<svg xmlns="http://www.w3.org/2000/svg" width="48" height="48" fill="none" viewBox="0 0 48 48"><g fill="#888" clip-path="url(#a)"><path d="M33.32 48.004a2.41 2.41 0 0 0 2.32-1.776l2.211-8.257 8.376-2.239a2.403 2.403 0 0 0 1.692-2.937l-4.343-16.186.344-1.28a2.4 2.4 0 0 0-1.447-2.846l-1.956-7.3a2.416 2.416 0 0 0-2.939-1.698L23.294 7.316l-11.977-3.21a2.35 2.35 0 0 0-1.486.08L6.84 1.197a3.998 3.998 0 1 0-5.656 5.654l5.454 5.454L.103 36.7a2.405 2.405 0 0 0 1.692 2.942l30.902 8.28q.306.083.623.083m13.051-14.796a.8.8 0 0 1-.56.977l-7.481 2L42.746 19.7zM37.988 5.03a.8.8 0 0 1 .984.569l1.706 6.373-14.294-3.83zM24.232 24.25l-4.038-1.346 2.692-2.695 1.346 4.038zm-3.255-4.39-6.786-6.786a.8.8 0 1 0-1.131 1.132l6.786 6.785-1.13 1.132L7.405 10.812l1.13-1.131 2.262 2.262a.8.8 0 0 0 1.132-1.131L9.667 8.55l1.131-1.132 11.31 11.311zM5.142 8.55l3.394-3.394 1.13 1.131-3.392 3.394zm-3.53-4.525A2.4 2.4 0 0 1 5.708 2.33l1.697 1.696L4.01 7.42 2.314 5.722a2.38 2.38 0 0 1-.702-1.697m.037 33.094 6.295-23.505L18.15 23.819a.8.8 0 0 0 .294.181c.006 0 .01.01.018.011l5.268 1.76a1.6 1.6 0 0 0 1.36-.17l9.197 2.47a.8.8 0 1 0 .415-1.544l-8.878-2.384a1.7 1.7 0 0 0-.073-.4l-1.76-5.269c0-.007-.009-.012-.012-.02a.8.8 0 0 0-.18-.292L11.436 5.796l30.368 8.134a.8.8 0 0 1 .566.981L34.095 45.81a.8.8 0 0 1-.981.566L2.214 38.1a.8.8 0 0 1-.565-.98"/><path d="M36.98 18.825a.8.8 0 0 0 .207-1.572l-11.375-3.048a.8.8 0 1 0-.415 1.544l11.377 3.049a.8.8 0 0 0 .207.027M35.738 23.46a.8.8 0 0 0 .206-1.573l-7.734-2.069a.8.8 0 1 0-.412 1.545l7.734 2.07a.8.8 0 0 0 .206.027M11.06 25.155l-2.32-.621a.8.8 0 1 0-.415 1.544l2.32.622a.8.8 0 1 0 .415-1.545M34.027 32.136a.8.8 0 0 0-.565-.979l-17.768-4.76a.8.8 0 0 0-.414 1.541l17.768 4.76a.8.8 0 0 0 .98-.562M9.817 29.79l-2.32-.622a.8.8 0 0 0-.413 1.546l2.32.62a.8.8 0 1 0 .414-1.544zM32.22 35.793l-17.768-4.761a.8.8 0 1 0-.414 1.544l17.767 4.761a.8.8 0 1 0 .414-1.544"/></g><defs><clipPath id="a"><path fill="#fff" d="M0 0h48v48H0z"/></clipPath></defs></svg>