<svg xmlns="http://www.w3.org/2000/svg" width="48" height="48" fill="none" viewBox="0 0 48 48"><g fill="#888" clip-path="url(#a)"><path d="m41.001 17.521-.941.942a5 5 0 0 1-.378.337 19.4 19.4 0 0 1 1.693 7.94c0 10.773-8.766 19.537-19.54 19.537S2.295 37.513 2.295 26.74c0-10.772 8.766-19.536 19.54-19.536 2.245 0 4.399.385 6.408 1.084.192-.305.415-.607.721-.916l.484-.484a21.2 21.2 0 0 0-7.612-1.409c-11.742 0-21.264 9.52-21.264 21.26C.572 38.482 10.094 48 21.836 48c11.743 0 21.263-9.52 21.263-21.261 0-3.302-.753-6.43-2.098-9.218"/><path d="M34.868 20.118h-1.933a12.56 12.56 0 0 1 1.543 6.046c0 6.971-5.672 12.642-12.643 12.642S9.192 33.135 9.192 26.164s5.672-12.64 12.644-12.64c1.959 0 3.817.447 5.474 1.247v-1.888a14.3 14.3 0 0 0-5.474-1.084c-7.936 0-14.368 6.432-14.368 14.365S13.9 40.53 21.836 40.53c7.933 0 14.367-6.433 14.367-14.366 0-2.16-.481-4.208-1.335-6.046"/><path d="M47.294 7.106a1.3 1.3 0 0 0-.566-.553 1.8 1.8 0 0 0-.664-.186l-4.104-.41a.56.56 0 0 1-.318-.169.55.55 0 0 1-.169-.318l-.41-4.105c-.033-.3-.112-.598-.321-.876A1.218 1.218 0 0 0 39.768 0c-.24 0-.452.068-.631.16a2 2 0 0 0-.468.35l-8.283 8.283c-.337.341-.576.752-.76 1.19-.18.441-.302.902-.305 1.381v4.73c0 .325.084.626.221.897l-3.564 3.67a6.86 6.86 0 0 0-4.143-1.392 6.896 6.896 0 1 0 6.897 6.895 6.86 6.86 0 0 0-1.515-4.304l3.692-3.801q.205.045.424.047h4.733c.48-.004.94-.125 1.38-.304.44-.185.85-.424 1.192-.761l8.28-8.28c.137-.138.257-.29.35-.47.093-.178.16-.39.16-.63a1.2 1.2 0 0 0-.134-.555m-25.458 24.23a5.18 5.18 0 0 1-5.173-5.171 5.18 5.18 0 0 1 5.172-5.172 5.14 5.14 0 0 1 2.932.916l-3.55 3.656a.862.862 0 1 0 1.237 1.2l3.548-3.652a5.14 5.14 0 0 1 1.006 3.052 5.18 5.18 0 0 1-5.172 5.171m9.21-15.891v-4.08c-.003-.152.059-.45.174-.72.109-.273.276-.527.386-.633l7.81-7.808.343 3.439c.024.231.09.446.179.647zm6.373.378c-.106.11-.36.276-.632.386-.27.115-.568.178-.72.174h-3.53l8.625-8.882c.196.084.402.147.627.171l3.438.343z"/></g><defs><clipPath id="a"><path fill="#fff" d="M0 0h48v48H0z"/></clipPath></defs></svg>