<svg xmlns="http://www.w3.org/2000/svg" width="99" height="24" fill="none" viewBox="0 0 99 24"><path fill="#fff" d="M90.43 17.357a191 191 0 0 0-18.592-5.943c-23.444-5.93-48.9-6.202-71.077 4.58 1.603-.801 2.99-1.95 4.525-2.679 6.207-2.988 12.778-5.209 19.574-6.66C46.369 2.143 68.364 5.567 88.94 12.46l-1-.967c-2.788-2.695-5.576-5.39-8.433-8.013.357.345 4.096-3.093 4.525-2.678 3.214 2.969 6.428 5.937 9.504 9.05 1.573 1.52 3.215 2.968 4.58 4.703.717.832.586 1.396.102 1.897.07-.072.141-.003.21-.074-.138.143-.279.145-.417.288s-.279.145-.417.288c-1.112.722-2.361 1.728-3.62 2.171-.068.071-.209.074-.278.145-1.749.522-4.072.35-5.895.663-3.927.629-7.777 1.608-11.549 3.078 1.606-.66 2.847-2.087 4.525-2.678 2.864-1.103 5.802-1.997 8.816-2.54.205-.355.555-.431.836-.436m2.736-.398.14-.002-.071-.07z"/></svg>