<svg xmlns="http://www.w3.org/2000/svg" width="20" height="20" fill="none" viewBox="0 0 20 20"><g fill="#ff0004" clip-path="url(#a)"><path d="M10 20C4.486 20 0 15.514 0 10S4.486 0 10 0s10 4.486 10 10-4.486 10-10 10m0-18.75c-4.825 0-8.75 3.925-8.75 8.75s3.925 8.75 8.75 8.75 8.75-3.925 8.75-8.75S14.825 1.25 10 1.25"/><path d="M6.906 13.718a.625.625 0 0 1-.442-1.067l6.188-6.188a.625.625 0 0 1 .884.885l-6.188 6.187a.63.63 0 0 1-.442.183"/><path d="M13.094 13.718a.62.62 0 0 1-.442-.183L6.464 7.348a.625.625 0 1 1 .885-.884l6.187 6.188a.625.625 0 0 1-.442 1.066"/></g><defs><clipPath id="a"><path fill="#fff" d="M0 0h20v20H0z"/></clipPath></defs></svg>