<svg xmlns="http://www.w3.org/2000/svg" width="48" height="48" fill="none" viewBox="0 0 48 48"><path fill="#888" d="M20.722 31.5a1.13 1.13 0 0 1-.877-.42l-7.5-9.39a1.125 1.125 0 1 1 1.717-1.44l6.518 8.13c2.385-3.772 9.697-14.13 21.577-19.665a1.125 1.125 0 0 1 .945 2.04C29.37 17.152 21.75 30.75 21.705 30.915a1.11 1.11 0 0 1-.885.578z"/><path fill="#888" d="M28.148 41.01H14.37A10.133 10.133 0 0 1 4.245 30.885v-13.77A10.13 10.13 0 0 1 14.37 6.99h13.778a10.1 10.1 0 0 1 4.95 1.26 1.127 1.127 0 1 1-1.103 1.965 7.85 7.85 0 0 0-3.847-1.005H14.37a7.883 7.883 0 0 0-7.875 7.875v13.8a7.88 7.88 0 0 0 7.875 7.875h13.778A7.89 7.89 0 0 0 36 30.885v-11.73a1.125 1.125 0 1 1 2.25 0v11.73A10.13 10.13 0 0 1 28.148 41.01"/></svg>