<svg xmlns="http://www.w3.org/2000/svg" width="18" height="18" fill="none" viewBox="0 0 18 18"><g fill="#c4c4c4" clip-path="url(#a)"><path d="M9.84 18H8.16a1.123 1.123 0 0 1-1.115-.99l-.179-1.407a7 7 0 0 1-1.03-.427l-1.12.871a1.12 1.12 0 0 1-1.49-.095l-1.18-1.18a1.116 1.116 0 0 1-.092-1.485l.87-1.121a7 7 0 0 1-.426-1.03l-1.41-.18A1.126 1.126 0 0 1 0 9.84V8.16c0-.568.425-1.047.99-1.115l1.407-.179q.175-.537.427-1.03l-.87-1.12a1.12 1.12 0 0 1 .095-1.49L3.23 2.045a1.117 1.117 0 0 1 1.485-.092l1.12.871q.493-.251 1.031-.426l.18-1.41A1.123 1.123 0 0 1 8.16 0h1.68c.568 0 1.047.425 1.114.99l.18 1.407q.538.175 1.031.427l1.12-.871a1.12 1.12 0 0 1 1.49.095l1.18 1.181c.403.391.444 1.031.092 1.485l-.87 1.121q.251.493.426 1.03l1.41.18c.562.068.987.547.987 1.115v1.68c0 .568-.425 1.047-.99 1.114l-1.407.18q-.175.537-.427 1.03l.871 1.12a1.117 1.117 0 0 1-.095 1.49l-1.181 1.18a1.115 1.115 0 0 1-1.485.092l-1.121-.87a7 7 0 0 1-1.03.426l-.18 1.41A1.124 1.124 0 0 1 9.84 18m-4.042-3.645a.4.4 0 0 1 .183.047c.413.231.86.417 1.33.552.144.041.25.164.269.313l.21 1.65a.38.38 0 0 0 .37.333h1.68a.38.38 0 0 0 .37-.33l.21-1.652a.37.37 0 0 1 .269-.313c.47-.135.917-.321 1.33-.552a.37.37 0 0 1 .413.031l1.313 1.02c.15.117.362.108.49-.025l1.19-1.189a.37.37 0 0 0 .029-.495l-1.02-1.312a.37.37 0 0 1-.032-.413c.231-.413.417-.86.552-1.33a.37.37 0 0 1 .313-.269l1.65-.21a.38.38 0 0 0 .333-.371V8.16a.38.38 0 0 0-.33-.37l-1.652-.21a.38.38 0 0 1-.313-.269 6.3 6.3 0 0 0-.552-1.33.37.37 0 0 1 .031-.413l1.02-1.312a.37.37 0 0 0-.024-.491L14.24 2.576a.37.37 0 0 0-.495-.029l-1.312 1.02a.38.38 0 0 1-.414.031 6.3 6.3 0 0 0-1.33-.551.37.37 0 0 1-.269-.313l-.21-1.65A.38.38 0 0 0 9.84.75H8.16a.38.38 0 0 0-.37.33l-.21 1.652a.38.38 0 0 1-.269.314 6.3 6.3 0 0 0-1.33.551.38.38 0 0 1-.414-.03l-1.312-1.02a.37.37 0 0 0-.49.024l-1.19 1.19a.37.37 0 0 0-.029.494l1.02 1.313a.37.37 0 0 1 .032.413 6.3 6.3 0 0 0-.552 1.33.37.37 0 0 1-.313.269l-1.65.21a.38.38 0 0 0-.333.37v1.68c0 .185.145.348.33.37l1.652.21a.37.37 0 0 1 .313.269c.135.47.321.917.552 1.33a.37.37 0 0 1-.031.413l-1.02 1.313a.37.37 0 0 0 .024.49l1.189 1.189a.37.37 0 0 0 .495.029l1.313-1.02a.4.4 0 0 1 .23-.078"/><path d="M9 12.75A3.754 3.754 0 0 1 5.25 9 3.754 3.754 0 0 1 9 5.25 3.754 3.754 0 0 1 12.75 9 3.754 3.754 0 0 1 9 12.75M9 6C7.346 6 6 7.346 6 9c0 1.655 1.346 3 3 3 1.655 0 3-1.345 3-3 0-1.654-1.345-3-3-3"/></g><defs><clipPath id="a"><path fill="#fff" d="M0 0h18v18H0z"/></clipPath></defs></svg>