<svg xmlns="http://www.w3.org/2000/svg" width="33" height="32" fill="none" viewBox="0 0 33 32"><path fill="url(#a)" d="m13.049 18.673-4.043-4.05-1.823 1.816 5.866 5.866L29.69 5.665l-1.816-1.817zm8.933-3.093c.084.553.15 1.068.15 1.634 0 4.883-3.972 8.848-8.849 8.848-4.883 0-8.848-3.971-8.848-8.848 0-4.883 3.972-8.848 8.848-8.848 2.253 0 4.005.755 5.756 2.116l1.823-1.823c-2.279-1.842-4.597-2.858-7.579-2.858-6.302-.007-11.426 5.117-11.426 11.413s5.124 11.42 11.42 11.42 11.42-5.124 11.42-11.42c0-1.38-.248-2.448-.6-3.75z"/><defs><linearGradient id="a" x1="2.928" x2="27.015" y1="20.716" y2="20.683" gradientUnits="userSpaceOnUse"><stop stop-color="#d8ae6b"/><stop offset="1" stop-color="#1ad079"/></linearGradient></defs></svg>