<svg xmlns="http://www.w3.org/2000/svg" width="20" height="20" fill="none" viewBox="0 0 20 20"><path fill="#fff" d="M8.147 11.67 5.62 9.14l-1.14 1.135 3.667 3.666 10.401-10.4-1.135-1.136zm5.583-1.933c.053.346.094.668.094 1.022a5.536 5.536 0 0 1-5.53 5.53 5.536 5.536 0 0 1-5.53-5.53 5.536 5.536 0 0 1 5.53-5.53c1.408 0 2.502.472 3.597 1.322l1.14-1.14c-1.425-1.15-2.874-1.785-4.737-1.785a7.14 7.14 0 0 0-7.142 7.133c0 3.935 3.203 7.137 7.138 7.137s7.137-3.202 7.137-7.137c0-.863-.155-1.53-.374-2.344z"/></svg>