<svg xmlns="http://www.w3.org/2000/svg" width="32" height="32" fill="none" viewBox="0 0 32 32"><g clip-path="url(#a)"><path fill="#fff" d="m27.076 2.702-.862.46-.48.858-.457-.87-.85-.485.863-.46.48-.858.457.87z"/><path fill="#fff" d="m26.227 2.218.85.484-.863.46-.48.858-.457-.871-.85-.484.863-.46.48-.858zm-.517.222-.07.123-.124.066-.092.05.214.121.065.126.044.084.047-.083.069-.124.124-.066.093-.049-.091-.052-.123-.07-.066-.124-.044-.085zM22.686 5.301l-1.428.762-.793 1.418-.755-1.439-1.405-.8 1.426-.762.794-1.417.755 1.438z"/><path fill="#fff" d="m21.28 4.502 1.406.8-1.427.761-.794 1.418-.755-1.439-1.405-.8 1.426-.762.795-1.417zm-1.198.337-.124.066-.657.35.77.439.065.124.342.652.429-.765.782-.417-.77-.438-.066-.125-.342-.652z"/><path fill="url(#b)" d="M31.773 17.995s-17.368-.905-30.055 13.42c0 0-.342-3.97-1.603-8.454L11.663 9.788S5.694 11.306.276 11.232c0 0 1.42-2.38 2.796-6.295 0 0 6.118 2.084 12.301-.631l2.381 3.482L8.92 19.615c.14-.079 12.347-6.866 22.854-1.62"/></g><defs><linearGradient id="b" x1="1.334" x2="28.667" y1="22.691" y2="23.026" gradientUnits="userSpaceOnUse"><stop stop-color="#d8ae6b"/><stop offset="1" stop-color="#1ad079"/></linearGradient><clipPath id="a"><path fill="#fff" d="M.416 1 32 1.432l-.416 30.393L0 31.392z"/></clipPath></defs></svg>