<svg xmlns="http://www.w3.org/2000/svg" width="84" height="91" fill="none" viewBox="0 0 84 91"><path fill="#1a1a1a" d="M36.61 79.964h-2.934l-.312-3.557h-.133c-.667 2.401-2.09 4.224-4.001 4.224-2.045 0-3.334-2.179-3.334-6.358v-2.978c0-4.179 1.289-6.313 3.556-6.313 1.645 0 2.845 1.156 3.423 3.068h.134v-6.935c0-1.957-.534-2.757-1.734-2.757-1.156 0-1.645.8-1.645 2.757v2.311h-3.6v-1.823c0-4.223 1.866-6.312 5.245-6.312 3.423 0 5.335 2.09 5.335 6.313zm-5.735-2.4c1.245 0 2.134-1.557 2.134-4.58v-2.178c0-1.69-.845-2.756-2-2.756-.979 0-1.512.8-1.512 2.756v3.957c0 1.956.444 2.8 1.378 2.8m11.658-21.606h3.157l.222 3.912h.089c.133-3.824 2.178-3.912 4.312-3.912v3.734c-3.245 0-4.179 1.467-4.179 4v16.272h-3.6zm19.66 14.937h3.602v3.379c0 4.223-1.867 6.357-5.246 6.357-3.423 0-5.335-2.134-5.335-6.358v-12.67c0-4.223 1.912-6.312 5.335-6.312 3.379 0 5.246 2.09 5.246 6.313v7.023h-6.98v6.136c0 1.956.534 2.8 1.69 2.8 1.2 0 1.689-.844 1.689-2.8zm0-9.78c0-1.957-.488-2.757-1.644-2.757-1.2 0-1.734.8-1.734 2.757v4.89h3.379zm19.936-5.157-2.979 11.78v.09l2.979 12.136h-3.646l-1.69-7.736-.266-3.111h-.178l-.266 3.111-1.556 7.736H70.88l2.8-12.226v-.088l-2.8-11.693h3.646l1.511 7.336.311 3.067h.178l.311-3.067 1.645-7.335z"/><g fill="#1a1a1a" clip-path="url(#a)"><path stroke="#1a1a1a" stroke-width="1.256" d="m67.859 4.011.086.164.16.09 1.225.7-1.244.664-.162.087-.09.16-.69 1.226-.651-1.244-.085-.163-.16-.091-1.23-.699 1.248-.664.163-.087.09-.161.685-1.227zM54.954 9.968l.085.163.16.091 2.677 1.523-2.717 1.452-.163.086-.09.161-1.503 2.686-1.432-2.727-.086-.162-.159-.091-2.677-1.526 2.717-1.449.162-.086.09-.161 1.506-2.687z"/><path d="M82.883 44.874s-45.305-2.36-78.398 35.008c0 0-.893-10.36-4.182-22.053l30.121-34.364S14.855 27.425.722 27.23c0 0 3.706-6.209 7.293-16.418 0 0 15.958 5.434 32.088-1.647l6.211 9.081-23.047 30.851c.364-.203 32.209-17.91 59.616-4.224"/></g><defs><clipPath id="a"><path fill="#fff" d="m1.087.543 82.387 1.128-1.085 79.278L0 79.822z"/></clipPath></defs></svg>