<svg xmlns="http://www.w3.org/2000/svg" width="57" height="61" fill="none" viewBox="0 0 57 61"><g clip-path="url(#a)"><path fill="url(#b)" d="M30.287 60.37h-.003c-3.77 0-7.478-.71-11.011-2.116a30 30 0 0 1-7.644-4.43h-.003a1.23 1.23 0 0 1-.454-.945c0-.278.092-.547.266-.765.229-.292.577-.458.949-.458.274 0 .538.093.753.267a27.6 27.6 0 0 0 7.027 4.067 27.35 27.35 0 0 0 10.123 1.945c3.468 0 6.752-.63 9.949-1.869a27.5 27.5 0 0 0 8.587-5.317c.476-.433 1.278-.395 1.712.084a1.22 1.22 0 0 1-.078 1.717 29.8 29.8 0 0 1-9.343 5.783 29.8 29.8 0 0 1-10.824 2.035z"/><path fill="url(#c)" d="M30.366 54.797a24.4 24.4 0 0 1-9.544-1.94 24.3 24.3 0 0 1-8.073-5.525 1.222 1.222 0 0 1 .027-1.722c.465-.452 1.261-.438 1.712.028a22.2 22.2 0 0 0 15.87 6.72h.005c2.982 0 5.88-.601 8.615-1.784a21.95 21.95 0 0 0 9.141-7.36 3.98 3.98 0 0 1 3.238-1.676h.016a4 4 0 0 1 3.567 2.229q.126.256.125.539c0 .466-.256.885-.672 1.09q-.256.13-.538.128c-.467 0-.883-.262-1.087-.679a1.6 1.6 0 0 0-.294-.408 1.54 1.54 0 0 0-1.106-.466c-.52.003-.973.237-1.275.656a24.3 24.3 0 0 1-10.153 8.181 24 24 0 0 1-9.574 1.983z"/><path fill="url(#d)" d="M10.057 52.018a1.216 1.216 0 0 1-.859-2.073c.454-.458 1.25-.463 1.713-.008h.003c.228.229.356.534.356.858s-.125.632-.354.86a1.2 1.2 0 0 1-.859.363"/><path fill="url(#e)" d="M53.559 48.474c-.256 0-.5-.077-.71-.23a1.23 1.23 0 0 1-.486-.792 1.219 1.219 0 0 1 1.199-1.411 1.215 1.215 0 0 1 1.196 1.024 1.215 1.215 0 0 1-1.2 1.409"/><path fill="url(#f)" d="M31.448 47.848a1.21 1.21 0 0 1-1.21-1.128 1.214 1.214 0 0 1 1.123-1.3h.005a1.226 1.226 0 0 1 1.289 1.128 1.216 1.216 0 0 1-1.123 1.297q0 .001-.003.002h-.084z"/><path fill="url(#g)" d="M6.333 47.455a1.22 1.22 0 0 1-1.016-.545A30.17 30.17 0 0 1 .345 30.35c0-4.024.805-7.963 2.384-11.712a29.6 29.6 0 0 1 7.315-10.36c.476-.433 1.28-.395 1.715.08a1.214 1.214 0 0 1-.079 1.716 27.1 27.1 0 0 0-6.714 9.512 27.5 27.5 0 0 0-1.014 18.732 27.8 27.8 0 0 0 3.39 7.249 1.217 1.217 0 0 1-1.009 1.885z"/><path fill="url(#h)" d="M34.52 47.335a1.218 1.218 0 0 1-.319-2.392h.003l.035-.01a15.3 15.3 0 0 0 2.621-.984 14.9 14.9 0 0 0 5.067-4c.24-.29.367-.642.367-1.018a1.55 1.55 0 0 0-.405-1.049 1.54 1.54 0 0 0-1.147-.504 1.54 1.54 0 0 0-1.207.57 11.96 11.96 0 0 1-9.245 4.383h-.003a11.95 11.95 0 0 1-10.843-6.987 1.217 1.217 0 0 1 1.1-1.725c.476 0 .909.278 1.107.708a9.49 9.49 0 0 0 12.705 4.65 9.6 9.6 0 0 0 3.3-2.574 3.94 3.94 0 0 1 3.075-1.463h.014a3.98 3.98 0 0 1 3.974 3.983c0 .926-.327 1.838-.916 2.56a17.3 17.3 0 0 1-5.891 4.645 17.6 17.6 0 0 1-3.083 1.152h-.005q-.151.041-.307.041z"/><path fill="url(#i)" d="M25.625 47.196q-.181.001-.35-.052a17.6 17.6 0 0 1-6.704-3.773 17.4 17.4 0 0 1-4.558-6.603 17.3 17.3 0 0 1-1.207-6.364c0-6.252 3.327-12.076 8.682-15.19.848-.493 1.748-.92 2.659-1.264q.208-.078.429-.079a1.22 1.22 0 0 1 1.212 1.218 1.225 1.225 0 0 1-.785 1.136c-.791.3-1.563.665-2.3 1.095-4.61 2.675-7.473 7.69-7.473 13.087 0 1.885.348 3.724 1.036 5.47a15.04 15.04 0 0 0 9.702 8.94 1.22 1.22 0 0 1 .815 1.515c-.152.512-.63.867-1.16.867z"/><path fill="url(#j)" d="M10.106 42.988a1.218 1.218 0 0 1-.595-2.275 1.208 1.208 0 0 1 1.65.463c.16.28.201.61.114.923s-.29.573-.57.73a1.2 1.2 0 0 1-.596.161z"/><path fill="url(#k)" d="M8.76 40.17c-.502 0-.942-.302-1.13-.768a24.2 24.2 0 0 1-1.726-9.009 24.57 24.57 0 0 1 3.618-12.842 24.34 24.34 0 0 1 10.147-9.2 24.4 24.4 0 0 1 5.774-1.955 1.23 1.23 0 0 1 1.433.95c.133.657-.291 1.3-.95 1.43-1.788.366-3.538.96-5.2 1.766a21.8 21.8 0 0 0-9.133 8.279 22.14 22.14 0 0 0-3.262 11.572c0 2.787.525 5.514 1.558 8.107q.082.215.087.444a1.215 1.215 0 0 1-1.213 1.223z"/><path fill="url(#l)" d="M19.64 30.298c-.05 0-.098 0-.147-.008a1.21 1.21 0 0 1-1.06-1.351 1.216 1.216 0 0 1 1.348-1.063 1.214 1.214 0 0 1 1.06 1.346v.008c-.073.61-.59 1.07-1.201 1.07z"/><path fill="url(#m)" d="M46.208 28.909a10.2 10.2 0 0 1-8.225-4.18 9.52 9.52 0 0 0-7.685-3.914 9.52 9.52 0 0 0-8.734 5.746 1.213 1.213 0 0 1-1.593.631 1.21 1.21 0 0 1-.63-1.599 11.94 11.94 0 0 1 10.96-7.208h.008c1.503 0 2.982.28 4.393.845a11.9 11.9 0 0 1 5.249 4.067 7.76 7.76 0 0 0 6.263 3.18q.108.001.242-.004c2.797-.09 5.189-1.547 6.559-3.993.215-.387.62-.627 1.06-.627.204 0 .41.055.59.155.285.156.49.417.576.73.09.314.052.64-.103.924a10.2 10.2 0 0 1-3.463 3.678 10.17 10.17 0 0 1-5.149 1.563c-.092 0-.203.003-.312.003z"/><path fill="url(#n)" d="M46.3 23.436h-.005a4.74 4.74 0 0 1-3.819-1.967 15.04 15.04 0 0 0-9.27-5.92 1.2 1.2 0 0 1-.769-.517 1.2 1.2 0 0 1-.182-.91 1.23 1.23 0 0 1 1.427-.96A17.46 17.46 0 0 1 44.44 20.04c.44.604 1.133.964 1.86.964.33 0 .654-.076.956-.223a2.27 2.27 0 0 0 1.275-2.033c0-.457-.139-.882-.405-1.258a21.8 21.8 0 0 0-6.081-5.729 22 22 0 0 0-7.63-3.021 1.216 1.216 0 0 1-.984-1.19q0-.115.024-.23c.122-.648.77-1.09 1.419-.966a24.4 24.4 0 0 1 8.468 3.353 24.3 24.3 0 0 1 6.755 6.364c.565.784.859 1.713.859 2.677 0 .861-.24 1.709-.69 2.45a4.67 4.67 0 0 1-3.962 2.236z"/><path fill="url(#o)" d="M55.135 18.584a1.215 1.215 0 0 1-.171-2.416 1.224 1.224 0 0 1 1.373 1.027 1.215 1.215 0 0 1-1.199 1.389z"/><path fill="url(#p)" d="M54.154 15.634c-.446 0-.856-.243-1.068-.635a8 8 0 0 0-.585-.923 27.46 27.46 0 0 0-12.243-9.418 27.2 27.2 0 0 0-9.867-1.855h-.003c-3.934 0-7.921.872-11.526 2.525a1.2 1.2 0 0 1-.505.112 1.216 1.216 0 0 1-.509-2.318 30.3 30.3 0 0 1 6.1-2.046 30 30 0 0 1 6.44-.703h.005c3.686 0 7.302.681 10.743 2.021a29.8 29.8 0 0 1 13.325 10.249c.278.381.533.784.756 1.198.098.178.15.379.15.58a1.23 1.23 0 0 1-.64 1.071 1.25 1.25 0 0 1-.576.147z"/><path fill="url(#q)" d="M27.582 15.484a1.21 1.21 0 0 1-1.196-1.01 1.23 1.23 0 0 1 .207-.91c.188-.265.468-.44.785-.494a1.22 1.22 0 0 1 1.398.997c.054.319-.017.643-.207.907a1.2 1.2 0 0 1-.788.496q-.096.015-.201.014z"/><path fill="url(#r)" d="M13.279 8.42a1.22 1.22 0 0 1-.72-2.198q.003-.001.002-.003c.212-.153.457-.232.718-.232.386 0 .753.186.978.496a1.22 1.22 0 0 1-.26 1.7q-.004.002-.003.003c-.21.15-.454.231-.715.231z"/><path fill="url(#s)" d="M31.548 8.382h-.07a1.216 1.216 0 1 1 .976-2.027c.214.243.326.553.304.88a1.21 1.21 0 0 1-1.21 1.147"/></g><defs><linearGradient id="b" x1="57.69" x2="9.3" y1="50.871" y2="57.889" gradientUnits="userSpaceOnUse"><stop stop-color="#fbcd00"/><stop offset="1" stop-color="#ff5700"/></linearGradient><linearGradient id="c" x1="56.851" x2="8.46" y1="45.085" y2="52.103" gradientUnits="userSpaceOnUse"><stop stop-color="#fbcd00"/><stop offset="1" stop-color="#ff5700"/></linearGradient><linearGradient id="d" x1="56.696" x2="8.305" y1="44.014" y2="51.032" gradientUnits="userSpaceOnUse"><stop stop-color="#fbcd00"/><stop offset="1" stop-color="#ff5700"/></linearGradient><linearGradient id="e" x1="57.09" x2="8.702" y1="46.744" y2="53.759" gradientUnits="userSpaceOnUse"><stop stop-color="#fbcd00"/><stop offset="1" stop-color="#ff5700"/></linearGradient><linearGradient id="f" x1="18.359" x2="32.994" y1="13.921" y2="50.346" gradientUnits="userSpaceOnUse"><stop stop-color="#ff04ac"/><stop offset=".5" stop-color="#a101ff"/><stop offset="1" stop-color="#fbcd00"/></linearGradient><linearGradient id="g" x1="10.4" x2="2.069" y1="1.642" y2="47.086" gradientUnits="userSpaceOnUse"><stop stop-color="#ff04ac"/><stop offset="1" stop-color="#a100a6"/></linearGradient><linearGradient id="h" x1="22.312" x2="36.947" y1="12.332" y2="48.757" gradientUnits="userSpaceOnUse"><stop stop-color="#ff04ac"/><stop offset=".5" stop-color="#a101ff"/><stop offset="1" stop-color="#fbcd00"/></linearGradient><linearGradient id="i" x1="15.589" x2="30.224" y1="15.032" y2="51.457" gradientUnits="userSpaceOnUse"><stop stop-color="#ff04ac"/><stop offset=".5" stop-color="#a101ff"/><stop offset="1" stop-color="#fbcd00"/></linearGradient><linearGradient id="j" x1="17.204" x2="8.87" y1="2.89" y2="48.334" gradientUnits="userSpaceOnUse"><stop stop-color="#ff04ac"/><stop offset="1" stop-color="#a100a6"/></linearGradient><linearGradient id="k" x1="19.085" x2="10.751" y1="3.236" y2="48.679" gradientUnits="userSpaceOnUse"><stop stop-color="#ff04ac"/><stop offset="1" stop-color="#a100a6"/></linearGradient><linearGradient id="l" x1="14.233" x2="28.868" y1="15.579" y2="52.002" gradientUnits="userSpaceOnUse"><stop stop-color="#ff04ac"/><stop offset=".5" stop-color="#a101ff"/><stop offset="1" stop-color="#fbcd00"/></linearGradient><linearGradient id="m" x1="30.97" x2="45.605" y1="8.853" y2="45.278" gradientUnits="userSpaceOnUse"><stop stop-color="#ff04ac"/><stop offset=".5" stop-color="#a101ff"/><stop offset="1" stop-color="#fbcd00"/></linearGradient><linearGradient id="n" x1="23.358" x2="53.847" y1="5.666" y2="21.44" gradientUnits="userSpaceOnUse"><stop stop-color="#a101ff"/><stop offset="1" stop-color="#8c00fe"/></linearGradient><linearGradient id="o" x1="25.318" x2="55.807" y1="1.877" y2="17.65" gradientUnits="userSpaceOnUse"><stop stop-color="#a101ff"/><stop offset="1" stop-color="#8c00fe"/></linearGradient><linearGradient id="p" x1="25.435" x2="55.924" y1="1.653" y2="17.427" gradientUnits="userSpaceOnUse"><stop stop-color="#a101ff"/><stop offset="1" stop-color="#8c00fe"/></linearGradient><linearGradient id="q" x1="20.743" x2="51.232" y1="10.719" y2="26.493" gradientUnits="userSpaceOnUse"><stop stop-color="#a101ff"/><stop offset="1" stop-color="#8c00fe"/></linearGradient><linearGradient id="r" x1="14.165" x2="5.831" y1="2.334" y2="47.778" gradientUnits="userSpaceOnUse"><stop stop-color="#ff04ac"/><stop offset="1" stop-color="#a100a6"/></linearGradient><linearGradient id="s" x1="24.481" x2="54.97" y1="3.495" y2="19.269" gradientUnits="userSpaceOnUse"><stop stop-color="#a101ff"/><stop offset="1" stop-color="#8c00fe"/></linearGradient><clipPath id="a"><path fill="#fff" d="M.348.37h56v60h-56z"/></clipPath></defs></svg>