<svg xmlns="http://www.w3.org/2000/svg" width="32" height="32" fill="none" viewBox="0 0 32 32"><path fill="url(#a)" d="m13.035 18.673-4.043-4.05-1.823 1.817 5.866 5.866 16.64-16.642-1.815-1.816zm8.932-3.093c.085.554.15 1.068.15 1.634 0 4.883-3.972 8.848-8.848 8.848-4.883 0-8.848-3.971-8.848-8.848 0-4.883 3.972-8.848 8.848-8.848 2.253 0 4.004.756 5.756 2.116l1.823-1.823c-2.28-1.842-4.597-2.858-7.579-2.858C6.967 5.795 1.843 10.92 1.843 17.214c0 6.296 5.124 11.42 11.42 11.42 6.295 0 11.42-5.124 11.42-11.42 0-1.38-.248-2.448-.6-3.75z"/><defs><linearGradient id="a" x1="2.913" x2="27" y1="20.716" y2="20.683" gradientUnits="userSpaceOnUse"><stop stop-color="#d8ae6b"/><stop offset="1" stop-color="#1ad079"/></linearGradient></defs></svg>