<svg xmlns="http://www.w3.org/2000/svg" width="56" height="56" fill="none" viewBox="0 0 56 56"><path fill="url(#a)" d="M10.638 8.4a1.87 1.87 0 0 1 0-2.637l1.641-1.641 14.353 14.353a1.87 1.87 0 0 0 2.638 0L43.672 4.073l1.69 1.69a1.87 1.87 0 0 1 0 2.637L29.421 24.342a2.48 2.48 0 0 1-2.638.193q-.052-.044-.101-.091z"/><path fill="url(#b)" d="M26.783 24.535q-.053-.044-.102-.091L10.638 8.4a1.87 1.87 0 0 1 0-2.637l1.641-1.641 14.353 14.353c.4.4.942.579 1.47.537v5.809a2.47 2.47 0 0 1-1.32-.286" opacity=".6"/><path fill="url(#c)" d="M45.362 47.598a1.87 1.87 0 0 1 0 2.637l-1.641 1.642-14.353-14.354a1.87 1.87 0 0 0-2.638 0L12.328 51.926l-1.69-1.69a1.87 1.87 0 0 1 0-2.638L26.58 31.656a2.48 2.48 0 0 1 2.638-.193q.051.044.1.091z"/><path fill="url(#d)" d="M29.218 31.463q.052.044.1.092l16.045 16.043a1.87 1.87 0 0 1 0 2.638l-1.642 1.64-14.353-14.352c-.4-.401-.942-.58-1.47-.537v-5.809c.453-.028.91.067 1.32.285" opacity=".6"/><path fill="url(#e)" d="M1.865 26.419A1.87 1.87 0 0 1 0 24.554v-2.321h20.299a1.87 1.87 0 0 0 1.864-1.865V0h2.391a1.87 1.87 0 0 1 1.865 1.865V24.41a2.48 2.48 0 0 1-1.729 2.002q-.067.006-.136.007z"/><path fill="url(#f)" d="M24.69 26.412q-.067.006-.136.007H1.865A1.87 1.87 0 0 1 0 24.554v-2.321H20.3c.566 0 1.075-.257 1.418-.66l4.108 4.108c-.3.339-.691.596-1.135.73" opacity=".6"/><path fill="url(#g)" d="M54.135 29.581A1.87 1.87 0 0 1 56 31.446v2.321H35.702a1.87 1.87 0 0 0-1.865 1.865V56h-2.39a1.87 1.87 0 0 1-1.866-1.865V31.59a2.48 2.48 0 0 1 1.73-2.002q.067-.006.135-.007z"/><path fill="url(#h)" d="M31.31 29.588q.068-.006.137-.007h22.688A1.87 1.87 0 0 1 56 31.446v2.321H35.702c-.567 0-1.076.257-1.419.66l-4.107-4.108c.3-.34.69-.596 1.135-.73" opacity=".6"/><path fill="url(#i)" d="M8.402 45.362a1.87 1.87 0 0 1-2.638 0l-1.641-1.641 14.353-14.353a1.87 1.87 0 0 0 0-2.638L4.074 12.328l1.69-1.69a1.87 1.87 0 0 1 2.637 0l15.942 15.941c.572.772.637 1.807.193 2.638q-.044.053-.091.102z"/><path fill="url(#j)" d="M24.536 29.217q-.044.053-.091.101L8.4 45.362a1.87 1.87 0 0 1-2.637 0l-1.641-1.641 14.353-14.353c.4-.401.579-.943.537-1.47h5.809c.027.452-.067.91-.286 1.32" opacity=".6"/><path fill="url(#k)" d="M47.598 10.638a1.87 1.87 0 0 1 2.638 0l1.641 1.641-14.353 14.353a1.87 1.87 0 0 0 0 2.637l14.402 14.403-1.69 1.69a1.87 1.87 0 0 1-2.638 0L31.657 29.42a2.48 2.48 0 0 1-.193-2.638q.044-.052.091-.1z"/><path fill="url(#l)" d="M31.464 26.783q.044-.053.091-.102l16.044-16.043a1.87 1.87 0 0 1 2.637 0l1.641 1.641-14.353 14.353c-.4.4-.579.943-.537 1.47h-5.809c-.027-.452.067-.91.286-1.32" opacity=".6"/><path fill="url(#m)" d="M26.419 54.136A1.87 1.87 0 0 1 24.554 56h-2.321V35.702a1.87 1.87 0 0 0-1.865-1.865H0v-2.39a1.87 1.87 0 0 1 1.865-1.865H24.41c.95.141 1.728.827 2.002 1.729q.006.067.007.136z"/><path fill="url(#n)" d="M26.412 31.31q.006.068.007.137v22.689A1.87 1.87 0 0 1 24.554 56h-2.321V35.703c0-.566-.257-1.075-.66-1.418l4.108-4.108c.34.3.596.691.73 1.135" opacity=".6"/><path fill="url(#o)" d="M29.581 1.865A1.87 1.87 0 0 1 31.446 0h2.321v20.299a1.87 1.87 0 0 0 1.865 1.864H56v2.391a1.87 1.87 0 0 1-1.865 1.865H31.59a2.48 2.48 0 0 1-2.002-1.729q-.006-.067-.007-.136z"/><path fill="url(#p)" d="M29.589 24.69q-.007-.067-.008-.136V1.864A1.87 1.87 0 0 1 31.446 0h2.322v20.299c0 .566.257 1.075.659 1.418l-4.108 4.108c-.339-.3-.596-.692-.73-1.135" opacity=".6"/><defs><linearGradient id="a" x1="28" x2="28" y1="24.826" y2="4.073" gradientUnits="userSpaceOnUse"><stop stop-color="#d5003b"/><stop offset="1" stop-color="#3f67be"/></linearGradient><linearGradient id="b" x1="28.203" x2="8.364" y1="14.474" y2="14.474" gradientUnits="userSpaceOnUse"><stop stop-color="#5e3fbe"/><stop offset="1" stop-color="#0067d5" stop-opacity="0"/></linearGradient><linearGradient id="c" x1="28" x2="28" y1="31.172" y2="51.926" gradientUnits="userSpaceOnUse"><stop stop-color="#d5003b"/><stop offset="1" stop-color="#3f67be"/></linearGradient><linearGradient id="d" x1="27.798" x2="47.636" y1="41.525" y2="41.525" gradientUnits="userSpaceOnUse"><stop stop-color="#5e3fbe"/><stop offset="1" stop-color="#0067d5" stop-opacity="0"/></linearGradient><linearGradient id="e" x1="25.756" x2="11.082" y1="25.756" y2="11.082" gradientUnits="userSpaceOnUse"><stop stop-color="#d76200"/><stop offset="1" stop-color="#8340c0"/></linearGradient><linearGradient id="f" x1="18.579" x2="4.552" y1="18.293" y2="32.32" gradientUnits="userSpaceOnUse"><stop stop-color="#c0408d"/><stop offset="1" stop-color="#5d00d7" stop-opacity="0"/></linearGradient><linearGradient id="g" x1="30.244" x2="44.919" y1="30.243" y2="44.918" gradientUnits="userSpaceOnUse"><stop stop-color="#d76200"/><stop offset="1" stop-color="#8340c0"/></linearGradient><linearGradient id="h" x1="37.421" x2="51.449" y1="37.707" y2="23.679" gradientUnits="userSpaceOnUse"><stop stop-color="#c0408d"/><stop offset="1" stop-color="#5d00d7" stop-opacity="0"/></linearGradient><linearGradient id="i" x1="24.827" x2="4.074" y1="28" y2="28" gradientUnits="userSpaceOnUse"><stop stop-color="#a200d5"/><stop offset="1" stop-color="#3fbe94"/></linearGradient><linearGradient id="j" x1="14.475" x2="14.475" y1="27.797" y2="47.635" gradientUnits="userSpaceOnUse"><stop stop-color="#3f6ebe"/><stop offset="1" stop-color="#00d56b" stop-opacity="0"/></linearGradient><linearGradient id="k" x1="31.173" x2="51.926" y1="28" y2="28" gradientUnits="userSpaceOnUse"><stop stop-color="#a200d5"/><stop offset="1" stop-color="#3fbe94"/></linearGradient><linearGradient id="l" x1="41.525" x2="41.525" y1="28.203" y2="8.364" gradientUnits="userSpaceOnUse"><stop stop-color="#3f6ebe"/><stop offset="1" stop-color="#00d56b" stop-opacity="0"/></linearGradient><linearGradient id="m" x1="25.756" x2="11.082" y1="30.244" y2="44.919" gradientUnits="userSpaceOnUse"><stop stop-color="#d500a3"/><stop offset="1" stop-color="#3fa9be"/></linearGradient><linearGradient id="n" x1="18.293" x2="32.321" y1="37.421" y2="51.449" gradientUnits="userSpaceOnUse"><stop stop-color="#3f44be"/><stop offset="1" stop-color="#00d5d5" stop-opacity="0"/></linearGradient><linearGradient id="o" x1="30.244" x2="44.919" y1="25.756" y2="11.082" gradientUnits="userSpaceOnUse"><stop stop-color="#d500a3"/><stop offset="1" stop-color="#3fa9be"/></linearGradient><linearGradient id="p" x1="37.708" x2="23.68" y1="18.579" y2="4.551" gradientUnits="userSpaceOnUse"><stop stop-color="#3f44be"/><stop offset="1" stop-color="#00d5d5" stop-opacity="0"/></linearGradient></defs></svg>