<svg width="57" height="61" viewBox="0 0 57 61" fill="none" xmlns="http://www.w3.org/2000/svg">
<g clip-path="url(#clip0_1_4075)">
<path d="M30.2871 60.3706H30.2843C26.514 60.3706 22.8063 59.6596 19.2725 58.2539C16.5052 57.1561 13.9364 55.6659 11.6286 53.8244H11.6258C11.3404 53.5928 11.1746 53.2469 11.1719 52.8791C11.1719 52.6012 11.2643 52.3316 11.4383 52.1136C11.6666 51.8221 12.0146 51.656 12.387 51.656C12.6615 51.656 12.9252 51.7486 13.1399 51.9229C15.2575 53.6119 17.6224 54.9795 20.1668 55.9901C23.4152 57.2787 26.8212 57.9352 30.2898 57.9352C33.7584 57.9352 37.0421 57.3059 40.2388 56.0664C43.422 54.8296 46.3088 53.0398 48.826 50.7488C49.3017 50.3157 50.1036 50.3538 50.5385 50.8333C50.9898 51.3263 50.9517 52.0973 50.4597 52.5495C47.7223 55.0448 44.5772 56.9899 41.1168 58.3329C37.6428 59.6841 34.0003 60.3679 30.2925 60.3679L30.2871 60.3706Z" fill="url(#paint0_linear_1_4075)"/>
<path d="M30.3661 54.7967C27.0796 54.7967 23.8693 54.1429 20.8221 52.857C17.7613 51.5658 15.0457 49.7052 12.7487 47.3324C12.5231 47.1009 12.4007 46.793 12.4062 46.4661C12.4143 46.1419 12.5421 45.8368 12.7759 45.6107C13.2407 45.1585 14.0372 45.1721 14.4884 45.638C18.623 49.9068 24.4048 52.3585 30.3579 52.3585H30.3634C33.3454 52.3585 36.2431 51.7565 38.9777 50.5742C42.6447 48.9887 45.8061 46.4443 48.1194 43.2135C48.8642 42.1646 50.0739 41.5381 51.3569 41.5381H51.3732C52.4225 41.5381 53.4527 41.9712 54.1948 42.7231C54.4993 43.0337 54.7494 43.3796 54.9396 43.7665C55.0239 43.9381 55.0647 44.1179 55.0647 44.3059C55.0647 44.7717 54.8092 45.1912 54.3933 45.3955C54.222 45.4827 54.0426 45.5236 53.855 45.5236C53.3875 45.5236 52.9716 45.262 52.7677 44.8452C52.6916 44.6954 52.5937 44.5565 52.4741 44.4366C52.1751 44.1342 51.7918 43.9735 51.3678 43.9708C50.8486 43.9735 50.3946 44.2078 50.0929 44.6273C47.5268 48.2205 44.0175 51.0482 39.94 52.808C36.9009 54.1238 33.6797 54.7912 30.3661 54.7912V54.7967Z" fill="url(#paint1_linear_1_4075)"/>
<path d="M10.0574 52.0181C9.7339 52.0181 9.42945 51.8927 9.20111 51.6639C8.72541 51.1872 8.72541 50.419 9.1984 49.945C9.65235 49.4873 10.4488 49.4819 10.9109 49.9368H10.9137C11.142 50.1656 11.2698 50.4707 11.2698 50.7949C11.2698 51.1191 11.1447 51.4269 10.9164 51.6557C10.688 51.8873 10.3836 52.0181 10.0574 52.0181Z" fill="url(#paint2_linear_1_4075)"/>
<path d="M53.5586 48.4737C53.3031 48.4737 53.0584 48.3974 52.8491 48.2449C52.5882 48.0542 52.4169 47.7736 52.3625 47.4521C52.3082 47.1307 52.387 46.812 52.5773 46.5477C52.8056 46.2317 53.1726 46.041 53.5613 46.041C53.8168 46.041 54.0642 46.1255 54.2708 46.2726C54.5345 46.4633 54.703 46.7439 54.7574 47.0653C54.809 47.384 54.7329 47.7082 54.5426 47.9725C54.317 48.2857 53.9473 48.4737 53.5586 48.4737Z" fill="url(#paint3_linear_1_4075)"/>
<path d="M31.4478 47.8475C30.809 47.8475 30.2789 47.3517 30.2381 46.7197C30.2137 46.3928 30.317 46.0795 30.529 45.8371C30.7438 45.5892 31.0401 45.4448 31.3608 45.4203H31.3663C32.0241 45.3794 32.6085 45.8888 32.6547 46.5481C32.7009 47.2155 32.1981 47.7958 31.5321 47.8448C31.5321 47.8448 31.5321 47.8475 31.5293 47.8475H31.4451H31.4478Z" fill="url(#paint4_linear_1_4075)"/>
<path d="M6.33342 47.4546C5.92567 47.4546 5.54239 47.2502 5.31677 46.9097C3.71296 44.4716 2.47069 41.821 1.62802 39.0232C0.779901 36.201 0.344971 33.2834 0.344971 30.3495C0.344971 26.3258 1.14959 22.3867 2.72893 18.6382C4.40613 14.6718 6.86893 11.1876 10.0439 8.27817C10.5196 7.84503 11.3242 7.88317 11.7592 8.35717C11.9603 8.58056 12.0745 8.87204 12.0745 9.17443C12.0745 9.51495 11.9331 9.84457 11.6803 10.0734C8.76631 12.7404 6.50467 15.944 4.96611 19.5862C3.50909 23.0323 2.77243 26.6527 2.77243 30.3495C2.77243 33.0464 3.16658 35.727 3.95217 38.3177C4.72961 40.8893 5.86859 43.3302 7.34191 45.5667C7.7116 46.1252 7.55666 46.8825 6.99941 47.2502C6.80097 47.381 6.56991 47.4518 6.33342 47.4518V47.4546Z" fill="url(#paint5_linear_1_4075)"/>
<path d="M34.5195 47.3349C33.9732 47.3322 33.4893 46.9644 33.3479 46.4305C33.3208 46.3269 33.3072 46.218 33.3072 46.1145C33.3072 45.5669 33.6741 45.0874 34.2015 44.9431H34.2042C34.2042 44.9431 34.2287 44.9349 34.2395 44.9322C35.1339 44.6897 36.0173 44.3546 36.86 43.9487C38.8389 42.9871 40.546 41.6414 41.9269 39.9496C42.1662 39.6582 42.2939 39.3067 42.2939 38.9308C42.2912 38.5358 42.1526 38.1735 41.8889 37.882C41.5844 37.5551 41.1876 37.378 40.7418 37.378C40.2633 37.378 39.8366 37.5823 39.5348 37.9474C38.423 39.3095 36.9905 40.4291 35.3948 41.181C33.8073 41.9301 32.0431 42.3278 30.2898 42.3306H30.2871C28.4957 42.3306 26.7587 41.9301 25.1223 41.1456C22.6269 39.9496 20.6099 37.8902 19.4438 35.3431C19.3078 35.0488 19.297 34.7165 19.4084 34.4114C19.5226 34.109 19.7455 33.8666 20.0391 33.7303C20.2022 33.6568 20.3707 33.6187 20.5447 33.6187C21.0204 33.6187 21.4526 33.8965 21.651 34.3269C22.5753 36.3565 24.1818 37.9991 26.1662 38.9499C27.4737 39.5764 28.8627 39.8952 30.2871 39.8952C31.7115 39.8952 33.087 39.5764 34.3564 38.9771C35.6286 38.3751 36.7703 37.4843 37.6565 36.4028C38.4122 35.4711 39.5321 34.9399 40.7309 34.9399H40.7445C41.8535 34.9399 42.9218 35.4084 43.6748 36.2311C44.3462 36.9667 44.7187 37.9256 44.7187 38.9226C44.7187 39.8488 44.3925 40.7614 43.8026 41.4834C42.1933 43.4502 40.2117 45.0139 37.912 46.1281C36.9198 46.6075 35.8841 46.9971 34.8294 47.2804H34.824C34.7234 47.3076 34.6201 47.3213 34.5168 47.3213L34.5195 47.3349Z" fill="url(#paint6_linear_1_4075)"/>
<path d="M25.6252 47.1959C25.5029 47.1959 25.3887 47.1796 25.2746 47.1442C22.8036 46.4032 20.4849 45.0983 18.5712 43.3712C16.5542 41.5487 15.0184 39.3285 14.0126 36.7678C13.2107 34.7356 12.8057 32.5944 12.8057 30.4041C12.8057 24.1521 16.1329 18.3278 21.488 15.2141C22.3361 14.721 23.2358 14.2933 24.1465 13.9501C24.2851 13.8983 24.4292 13.8711 24.576 13.8711C25.0761 13.8711 25.5328 14.1871 25.7095 14.6584C25.7612 14.7973 25.7883 14.9444 25.7883 15.0888C25.7856 15.5928 25.4703 16.0477 25.0027 16.2248C24.2117 16.5244 23.4397 16.8895 22.703 17.3199C18.0928 19.995 15.2304 25.0103 15.2304 30.4068C15.2304 32.292 15.5783 34.1308 16.2661 35.877C17.9759 40.2166 21.5151 43.4747 25.9677 44.8177C26.6093 45.0084 26.9735 45.6895 26.7832 46.3324C26.631 46.8445 26.1526 47.1987 25.6225 47.1987L25.6252 47.1959Z" fill="url(#paint7_linear_1_4075)"/>
<path d="M10.1064 42.9876C9.66878 42.9876 9.26375 42.7479 9.049 42.3665C8.72009 41.7835 8.92668 41.0425 9.51112 40.7129C9.69053 40.6094 9.89984 40.5576 10.1037 40.5576C10.5441 40.5576 10.9491 40.7946 11.1611 41.176C11.3215 41.4566 11.3623 41.7862 11.2753 42.0995C11.1883 42.4128 10.9844 42.6716 10.7045 42.8296C10.5196 42.9331 10.3157 42.9903 10.1091 42.9903L10.1064 42.9876Z" fill="url(#paint8_linear_1_4075)"/>
<path d="M8.76076 40.1701C8.25787 40.1701 7.81751 39.8677 7.62994 39.4019C6.48281 36.5224 5.90381 33.4932 5.90381 30.393C5.90109 25.8627 7.15424 21.4196 9.52189 17.5513C11.9575 13.574 15.4668 10.3921 19.6694 8.35173C21.5097 7.4582 23.456 6.80167 25.4431 6.39577C26.0955 6.26501 26.7424 6.70088 26.8756 7.34651C27.0088 8.00304 26.5847 8.64594 25.9269 8.7767C24.1383 9.14174 22.3877 9.73561 20.7268 10.542C16.9402 12.3726 13.7842 15.2385 11.5932 18.8207C9.45665 22.3077 8.33127 26.3095 8.33127 30.393C8.33127 33.1799 8.8559 35.9068 9.88886 38.5002C9.94323 38.6419 9.97313 38.7917 9.97585 38.9442C9.97585 39.4482 9.67683 39.8923 9.20928 40.0802C9.06793 40.1347 8.91571 40.1674 8.76348 40.1674L8.76076 40.1701Z" fill="url(#paint9_linear_1_4075)"/>
<path d="M19.6395 30.298C19.5906 30.298 19.5416 30.298 19.4927 30.2898C19.1692 30.2517 18.8838 30.0882 18.6826 29.8349C18.4815 29.5788 18.3945 29.2628 18.4326 28.9386C18.5087 28.2794 19.1176 27.7945 19.7808 27.8762C20.4441 27.9552 20.9171 28.5572 20.841 29.2219V29.2301C20.7676 29.8403 20.2511 30.3007 19.6395 30.3007V30.298Z" fill="url(#paint10_linear_1_4075)"/>
<path d="M46.2084 28.9088C42.9627 28.9088 39.8856 27.3451 37.9828 24.7299C36.9253 23.2779 35.4792 22.1555 33.802 21.4881C32.6766 21.0441 31.4969 20.8179 30.2981 20.8152C26.4979 20.8179 23.0701 23.0736 21.5642 26.5605C21.3739 27.0046 20.9335 27.2933 20.4524 27.2933C20.2865 27.2933 20.1234 27.2579 19.9712 27.1925C19.5281 27.0018 19.24 26.5632 19.24 26.0811C19.24 25.9149 19.2753 25.7514 19.3406 25.5934C21.238 21.2129 25.5383 18.3853 30.3008 18.3853H30.309C31.8122 18.3853 33.291 18.6658 34.7018 19.2298C36.8057 20.0633 38.6216 21.4717 39.9508 23.2969C41.3997 25.2883 43.7402 26.4761 46.2138 26.4761C46.2872 26.4761 46.366 26.4761 46.4558 26.4733C49.2529 26.3834 51.645 24.926 53.015 22.4797C53.2298 22.0929 53.6348 21.8531 54.0752 21.8531C54.2791 21.8531 54.4857 21.9076 54.6651 22.0084C54.9505 22.1637 55.1544 22.4252 55.2413 22.7385C55.3311 23.0518 55.293 23.3787 55.1381 23.662C54.309 25.1603 53.1102 26.4298 51.6749 27.3396C50.1499 28.3094 48.3722 28.8461 46.5264 28.9033C46.434 28.9033 46.3226 28.906 46.2138 28.906L46.2084 28.9088Z" fill="url(#paint11_linear_1_4075)"/>
<path d="M46.3008 23.4358H46.2953C44.7976 23.4358 43.3704 22.7003 42.4761 21.469C40.2471 18.3988 36.9579 16.2957 33.2067 15.5493C32.8913 15.4867 32.6168 15.3014 32.4374 15.0317C32.258 14.7648 32.19 14.4379 32.2553 14.1219C32.383 13.4762 33.0327 13.0349 33.6824 13.1629C38.029 14.0292 41.8482 16.4701 44.4387 20.0388C44.8791 20.6435 45.5723 21.0031 46.2981 21.0031C46.6297 21.0031 46.9532 20.9268 47.2549 20.7797C48.0269 20.4093 48.5298 19.6083 48.5298 18.7475C48.5298 18.2898 48.3912 17.8649 48.1248 17.4889C46.4829 15.2006 44.436 13.2719 42.0439 11.76C39.7034 10.2808 37.1401 9.26192 34.4136 8.73888C33.8455 8.62991 33.4296 8.12867 33.4296 7.54842C33.4296 7.47214 33.4377 7.39586 33.454 7.31959C33.5764 6.67123 34.2233 6.22991 34.873 6.3525C37.8958 6.93548 40.7446 8.06056 43.3405 9.70596C45.9963 11.3841 48.2661 13.528 50.0956 16.0696C50.661 16.8542 50.9545 17.7831 50.9545 18.7475C50.9545 19.6083 50.7153 20.4556 50.2641 21.1965C49.7965 21.962 49.1197 22.575 48.3096 22.9673C47.6844 23.2724 46.9912 23.4331 46.3035 23.4331L46.3008 23.4358Z" fill="url(#paint12_linear_1_4075)"/>
<path d="M55.1353 18.584C54.5345 18.584 54.0181 18.1345 53.9365 17.5461C53.8876 17.2219 53.9718 16.9032 54.1621 16.6444C54.3551 16.3829 54.6405 16.214 54.964 16.1677C55.6164 16.0696 56.2416 16.5436 56.3368 17.1947C56.4346 17.8594 55.9725 18.4778 55.312 18.5731C55.2522 18.5813 55.1951 18.584 55.138 18.584H55.1353Z" fill="url(#paint13_linear_1_4075)"/>
<path d="M54.1541 15.6339C53.7083 15.6339 53.2978 15.3914 53.0858 14.9992C52.9145 14.6859 52.7215 14.3726 52.5014 14.0757C49.4079 9.83139 45.1755 6.576 40.2581 4.65818C37.0967 3.42957 33.7749 2.80301 30.3906 2.80301H30.3879C26.4545 2.80301 22.4667 3.67475 18.8622 5.32833C18.7018 5.40188 18.5333 5.44002 18.3566 5.44002C17.8863 5.44002 17.4487 5.16215 17.253 4.72901C17.1171 4.43479 17.1035 4.10245 17.2176 3.80279C17.3318 3.49768 17.5547 3.2525 17.8483 3.12174C19.8028 2.22549 21.8551 1.53627 23.9482 1.07588C26.0657 0.61005 28.2322 0.373047 30.3879 0.373047H30.3933C34.0793 0.373047 37.6947 1.05409 41.1361 2.39439C46.4857 4.47566 51.096 8.01981 54.4613 12.6427C54.7385 13.0241 54.9941 13.4273 55.217 13.8414C55.3148 14.0185 55.3665 14.22 55.3665 14.4216C55.3637 14.8657 55.1191 15.277 54.7277 15.4922C54.551 15.5849 54.3525 15.6393 54.1514 15.6393L54.1541 15.6339Z" fill="url(#paint14_linear_1_4075)"/>
<path d="M27.5824 15.4837C26.9871 15.4837 26.4842 15.0588 26.3863 14.4731C26.332 14.1489 26.4081 13.8302 26.5929 13.5632C26.7805 13.2989 27.0605 13.1246 27.3785 13.0701C28.0363 12.9584 28.6643 13.4134 28.7757 14.0672C28.8301 14.3859 28.7594 14.7101 28.5691 14.9743C28.3816 15.2386 28.1016 15.4156 27.7808 15.4701C27.7156 15.481 27.6503 15.4837 27.5797 15.4837H27.5824Z" fill="url(#paint15_linear_1_4075)"/>
<path d="M13.2786 8.41999C12.8926 8.41999 12.5257 8.23203 12.2973 7.91875C12.1071 7.65722 12.0309 7.33577 12.0799 7.01432C12.1288 6.69559 12.2973 6.41228 12.5583 6.22158C12.561 6.22158 12.561 6.21886 12.561 6.21886C12.773 6.06631 13.0177 5.9873 13.2786 5.9873C13.6646 5.9873 14.0316 6.17255 14.2572 6.4831C14.6514 7.02522 14.5345 7.78526 13.9963 8.18299C13.9936 8.18299 13.9936 8.18572 13.9936 8.18572C13.7843 8.33555 13.5396 8.41727 13.2786 8.41727V8.41999Z" fill="url(#paint16_linear_1_4075)"/>
<path d="M31.5484 8.38214H31.4777C30.8117 8.344 30.3006 7.77193 30.3333 7.09905C30.3713 6.43163 30.9422 5.91404 31.6136 5.95218C31.9398 5.96852 32.2334 6.1129 32.4536 6.35535C32.6683 6.5978 32.7798 6.90836 32.758 7.23526C32.7227 7.87817 32.1926 8.38214 31.5484 8.38214Z" fill="url(#paint17_linear_1_4075)"/>
</g>
<defs>
<linearGradient id="paint0_linear_1_4075" x1="57.6904" y1="50.8714" x2="9.30009" y2="57.8892" gradientUnits="userSpaceOnUse">
<stop stop-color="#FBCD00"/>
<stop offset="1" stop-color="#FF5700"/>
</linearGradient>
<linearGradient id="paint1_linear_1_4075" x1="56.8506" y1="45.085" x2="8.46032" y2="52.1027" gradientUnits="userSpaceOnUse">
<stop stop-color="#FBCD00"/>
<stop offset="1" stop-color="#FF5700"/>
</linearGradient>
<linearGradient id="paint2_linear_1_4075" x1="56.6955" y1="44.0144" x2="8.3052" y2="51.0322" gradientUnits="userSpaceOnUse">
<stop stop-color="#FBCD00"/>
<stop offset="1" stop-color="#FF5700"/>
</linearGradient>
<linearGradient id="paint3_linear_1_4075" x1="57.0897" y1="46.7439" x2="8.70211" y2="53.7589" gradientUnits="userSpaceOnUse">
<stop stop-color="#FBCD00"/>
<stop offset="1" stop-color="#FF5700"/>
</linearGradient>
<linearGradient id="paint4_linear_1_4075" x1="18.3591" y1="13.9206" x2="32.9944" y2="50.3456" gradientUnits="userSpaceOnUse">
<stop stop-color="#FF04AC"/>
<stop offset="0.5" stop-color="#A101FF"/>
<stop offset="1" stop-color="#FBCD00"/>
</linearGradient>
<linearGradient id="paint5_linear_1_4075" x1="10.4" y1="1.64208" x2="2.06906" y2="47.0859" gradientUnits="userSpaceOnUse">
<stop stop-color="#FF04AC"/>
<stop offset="1" stop-color="#A100A6"/>
</linearGradient>
<linearGradient id="paint6_linear_1_4075" x1="22.3116" y1="12.3319" x2="36.9468" y2="48.7569" gradientUnits="userSpaceOnUse">
<stop stop-color="#FF04AC"/>
<stop offset="0.5" stop-color="#A101FF"/>
<stop offset="1" stop-color="#FBCD00"/>
</linearGradient>
<linearGradient id="paint7_linear_1_4075" x1="15.5892" y1="15.0316" x2="30.2245" y2="51.4566" gradientUnits="userSpaceOnUse">
<stop stop-color="#FF04AC"/>
<stop offset="0.5" stop-color="#A101FF"/>
<stop offset="1" stop-color="#FBCD00"/>
</linearGradient>
<linearGradient id="paint8_linear_1_4075" x1="17.204" y1="2.89045" x2="8.87028" y2="48.3342" gradientUnits="userSpaceOnUse">
<stop stop-color="#FF04AC"/>
<stop offset="1" stop-color="#A100A6"/>
</linearGradient>
<linearGradient id="paint9_linear_1_4075" x1="19.0849" y1="3.23573" x2="10.7512" y2="48.6795" gradientUnits="userSpaceOnUse">
<stop stop-color="#FF04AC"/>
<stop offset="1" stop-color="#A100A6"/>
</linearGradient>
<linearGradient id="paint10_linear_1_4075" x1="14.2328" y1="15.5792" x2="28.868" y2="52.0015" gradientUnits="userSpaceOnUse">
<stop stop-color="#FF04AC"/>
<stop offset="0.5" stop-color="#A101FF"/>
<stop offset="1" stop-color="#FBCD00"/>
</linearGradient>
<linearGradient id="paint11_linear_1_4075" x1="30.9695" y1="8.85336" x2="45.6048" y2="45.2783" gradientUnits="userSpaceOnUse">
<stop stop-color="#FF04AC"/>
<stop offset="0.5" stop-color="#A101FF"/>
<stop offset="1" stop-color="#FBCD00"/>
</linearGradient>
<linearGradient id="paint12_linear_1_4075" x1="23.3582" y1="5.66601" x2="53.8474" y2="21.4398" gradientUnits="userSpaceOnUse">
<stop stop-color="#A101FF"/>
<stop offset="1" stop-color="#8C00FE"/>
</linearGradient>
<linearGradient id="paint13_linear_1_4075" x1="25.3181" y1="1.87662" x2="55.8073" y2="17.6504" gradientUnits="userSpaceOnUse">
<stop stop-color="#A101FF"/>
<stop offset="1" stop-color="#8C00FE"/>
</linearGradient>
<linearGradient id="paint14_linear_1_4075" x1="25.4351" y1="1.65341" x2="55.9243" y2="17.4272" gradientUnits="userSpaceOnUse">
<stop stop-color="#A101FF"/>
<stop offset="1" stop-color="#8C00FE"/>
</linearGradient>
<linearGradient id="paint15_linear_1_4075" x1="20.7431" y1="10.7191" x2="51.2323" y2="26.4929" gradientUnits="userSpaceOnUse">
<stop stop-color="#A101FF"/>
<stop offset="1" stop-color="#8C00FE"/>
</linearGradient>
<linearGradient id="paint16_linear_1_4075" x1="14.1648" y1="2.33418" x2="5.83114" y2="47.778" gradientUnits="userSpaceOnUse">
<stop stop-color="#FF04AC"/>
<stop offset="1" stop-color="#A100A6"/>
</linearGradient>
<linearGradient id="paint17_linear_1_4075" x1="24.4807" y1="3.49497" x2="54.9699" y2="19.2688" gradientUnits="userSpaceOnUse">
<stop stop-color="#A101FF"/>
<stop offset="1" stop-color="#8C00FE"/>
</linearGradient>
<clipPath id="clip0_1_4075">
<rect width="56" height="60" fill="white" transform="translate(0.347656 0.370117)"/>
</clipPath>
</defs>
</svg>
