<svg xmlns="http://www.w3.org/2000/svg" width="73" height="79" fill="none" viewBox="0 0 73 79"><path fill="url(#a)" d="M30.19 64.509h-2.137l-.227-2.59h-.097c-.485 1.748-1.521 3.076-2.914 3.076-1.49 0-2.428-1.587-2.428-4.63v-2.17c0-3.044.939-4.598 2.59-4.598 1.198 0 2.072.842 2.493 2.234h.097V50.78c0-1.425-.388-2.008-1.262-2.008-.842 0-1.198.583-1.198 2.008v1.683h-2.623v-1.327c0-3.076 1.36-4.598 3.82-4.598 2.494 0 3.886 1.522 3.886 4.598zm-4.177-1.749c.907 0 1.554-1.133 1.554-3.335V57.84c0-1.23-.615-2.008-1.457-2.008-.712 0-1.1.583-1.1 2.008v2.881c0 1.425.323 2.04 1.003 2.04m8.492-15.736h2.299l.162 2.849h.065c.097-2.785 1.586-2.85 3.14-2.85v2.72c-2.363 0-3.043 1.069-3.043 2.915v11.85h-2.623zm14.32 10.88h2.622v2.46c0 3.076-1.36 4.63-3.82 4.63-2.494 0-3.886-1.554-3.886-4.63v-9.228c0-3.076 1.392-4.598 3.886-4.598 2.46 0 3.82 1.522 3.82 4.598v5.116h-5.083v4.468c0 1.425.388 2.04 1.23 2.04.874 0 1.23-.615 1.23-2.04zm0-7.124c0-1.425-.357-2.008-1.198-2.008-.875 0-1.263.583-1.263 2.008v3.561h2.46zm14.52-3.757-2.17 8.581v.065l2.17 8.84h-2.656l-1.23-5.634-.195-2.267h-.129l-.194 2.267-1.134 5.634h-2.655l2.04-8.905v-.065l-2.04-8.516h2.655l1.101 5.343.227 2.234h.13l.226-2.234 1.198-5.343z"/><g clip-path="url(#b)"><path fill="url(#c)" stroke="url(#d)" stroke-width=".915" d="m58.774 3.286.062.118.116.066 1.19.678-1.208.646-.118.063-.065.117-.67 1.193-.635-1.21-.062-.12-.117-.066-1.192-.678 1.21-.645.12-.064.064-.117.668-1.194z"/><path fill="url(#e)" stroke="url(#f)" stroke-width=".915" d="m47.643 8.422.062.12.117.065 2.442 1.39-2.48 1.324-.118.063-.065.117-1.374 2.451-1.307-2.488-.062-.119-.116-.066-2.44-1.392 2.477-1.321.118-.063.066-.117 1.374-2.453z"/><path fill="url(#g)" d="M71.657 38.57S32.58 36.534 4.037 68.764c0 0-.769-8.935-3.606-19.021l25.98-29.64S12.983 23.52.792 23.354c0 0 3.197-5.356 6.29-14.162 0 0 13.765 4.688 27.677-1.42l5.357 7.833-19.878 26.609c.314-.176 27.78-15.448 51.419-3.643"/></g><defs><linearGradient id="a" x1="23.655" x2="66.771" y1="66.044" y2="65.977" gradientUnits="userSpaceOnUse"><stop stop-color="#d8ae6b"/><stop offset="1" stop-color="#1ad079"/></linearGradient><linearGradient id="c" x1="55.342" x2="60.502" y1="5.169" y2="5.233" gradientUnits="userSpaceOnUse"><stop stop-color="#d8ae6b"/><stop offset="1" stop-color="#1ad079"/></linearGradient><linearGradient id="d" x1="55.342" x2="60.502" y1="5.169" y2="5.233" gradientUnits="userSpaceOnUse"><stop stop-color="#d8ae6b"/><stop offset="1" stop-color="#1ad079"/></linearGradient><linearGradient id="e" x1="41.709" x2="50.239" y1="11.676" y2="11.782" gradientUnits="userSpaceOnUse"><stop stop-color="#d8ae6b"/><stop offset="1" stop-color="#1ad079"/></linearGradient><linearGradient id="f" x1="41.709" x2="50.239" y1="11.676" y2="11.782" gradientUnits="userSpaceOnUse"><stop stop-color="#d8ae6b"/><stop offset="1" stop-color="#1ad079"/></linearGradient><linearGradient id="g" x1="3.173" x2="64.669" y1="49.134" y2="49.888" gradientUnits="userSpaceOnUse"><stop stop-color="#d8ae6b"/><stop offset="1" stop-color="#1ad079"/></linearGradient><clipPath id="b"><path fill="#fff" d="m1.108.333 71.059.973-.936 68.378-71.06-.972z"/></clipPath></defs></svg>