<svg xmlns="http://www.w3.org/2000/svg" width="67" height="73" fill="none" viewBox="0 0 67 73"><path fill="#fff" d="M29.152 63.171h-2.336l-.248-2.832h-.107c-.53 1.912-1.663 3.363-3.186 3.363-1.628 0-2.655-1.734-2.655-5.062v-2.372c0-3.328 1.027-5.027 2.832-5.027 1.31 0 2.266.92 2.726 2.443h.107V48.16c0-1.558-.425-2.195-1.381-2.195-.92 0-1.31.637-1.31 2.195V50h-2.868v-1.45c0-3.364 1.487-5.028 4.178-5.028 2.726 0 4.248 1.664 4.248 5.027zm-4.567-1.911c.991 0 1.7-1.24 1.7-3.647V55.88c0-1.346-.673-2.195-1.594-2.195-.778 0-1.203.637-1.203 2.195v3.15c0 1.558.354 2.23 1.097 2.23m9.285-17.206h2.513l.177 3.116h.07c.107-3.045 1.735-3.116 3.435-3.116v2.974c-2.584 0-3.328 1.168-3.328 3.186v12.957H33.87zM49.526 55.95h2.867v2.69c0 3.364-1.486 5.063-4.177 5.063-2.726 0-4.248-1.699-4.248-5.062V48.55c0-3.363 1.522-5.027 4.248-5.027 2.69 0 4.177 1.664 4.177 5.027v5.594h-5.558v4.885c0 1.558.425 2.23 1.346 2.23.955 0 1.345-.672 1.345-2.23zm0-7.788c0-1.558-.39-2.195-1.31-2.195-.956 0-1.38.637-1.38 2.195v3.894h2.69zM65.4 44.054l-2.372 9.382v.07l2.372 9.665h-2.903l-1.346-6.16-.212-2.478h-.142l-.212 2.478-1.24 6.16h-2.902l2.23-9.735v-.071l-2.23-9.31h2.903l1.204 5.84.247 2.443h.142l.248-2.443 1.31-5.84z"/><g clip-path="url(#a)"><path fill="#fff" stroke="#fff" d="m54.038 2.762.069.13.127.072.977.557-.992.529-.129.069-.072.128-.548.976-.52-.991-.067-.13-.128-.072-.979-.556.994-.53.13-.068.071-.13.547-.976zM43.762 7.506l.068.13.128.072 2.132 1.213-2.165 1.156-.13.069-.07.127-1.199 2.14-1.14-2.172-.068-.13-.127-.072-2.132-1.214 2.165-1.154.129-.069.072-.128 1.198-2.14z"/><path fill="url(#b)" d="M66.003 35.304s-36.078-1.88-62.432 27.878c0 0-.71-8.25-3.33-17.562l23.987-27.365S11.83 21.408.575 21.254c0 0 2.951-4.945 5.807-13.075 0 0 12.709 4.328 25.554-1.312l4.946 7.233-18.354 24.568c.29-.163 25.65-14.263 47.475-3.364"/></g><defs><linearGradient id="b" x1="2.773" x2="59.551" y1="45.057" y2="45.754" gradientUnits="userSpaceOnUse"><stop stop-color="#d8ae6b"/><stop offset="1" stop-color="#1ad079"/></linearGradient><clipPath id="a"><path fill="#fff" d="m.865 0 65.61.898-.865 63.133L0 63.133z"/></clipPath></defs></svg>