<svg xmlns="http://www.w3.org/2000/svg" width="90" height="29" fill="none" viewBox="0 0 90 29"><path fill="#6356e0" d="M16.933 14.444q.804.806 1.378 2.09a29 29 0 0 1 1.055 2.72q.478 1.435.976 2.892.5 1.455 1.092 2.547.595 1.092 1.38 1.725.786.631 1.897.402-.728.766-2.03 1.168-1.305.403-2.837.44-2.184 0-3.622-1.11a8.8 8.8 0 0 1-2.356-2.796 17.7 17.7 0 0 1-1.476-3.64 120 120 0 0 1-.976-3.64q-.422-1.686-.862-2.817-.44-1.13-1.13-1.13h2.338q.84 0 1.588-.516.747-.52 1.303-1.4.555-.882.881-2.068a9.6 9.6 0 0 0 .327-2.569q0-1.34-.327-2.565-.325-1.227-.881-2.147-.555-.919-1.303-1.473Q12.6 0 11.76 0h3.677q1.495 0 2.799.519a7.1 7.1 0 0 1 2.28 1.436A7 7 0 0 1 22.066 4.1q.576 1.225.576 2.604t-.576 2.606a7 7 0 0 1-1.552 2.146 7.1 7.1 0 0 1-2.28 1.436 7.5 7.5 0 0 1-2.798.516h-.573q.306 0 .69.154.305.117.668.327.365.211.71.554M9.23 24.293q0 .957.67 1.743.67.784 1.668.784H.186q.959.001 1.63-.784.67-.786.67-1.744V2.529q0-.957-.67-1.741Q1.145 0 .186 0H9.23zM72.956 24.712q0 .692.46 1.343.462.65 1.11.765h-8.89q.652-.116 1.112-.765.46-.651.46-1.343V11.073q0-.727-.46-1.36-.46-.632-1.111-.748l6.554-.958h.113q.651 0 .652.652zM70.082 5.939a2.84 2.84 0 0 1-2.088-.862 2.84 2.84 0 0 1-.862-2.09q0-1.224.862-2.106A2.81 2.81 0 0 1 70.082 0q1.226 0 2.109.881.88.882.88 2.106 0 .614-.229 1.152-.23.536-.632.938-.405.404-.96.632-.556.23-1.168.23"/><path fill="#6356e0" d="M63.225 10.192V23.37q0 .881.592 1.476.595.594 1.438.594.574 0 1.074-.308-.347.27-.806.597-.46.325-1.035.611-.575.287-1.266.48-.69.19-1.492.191a4.1 4.1 0 0 1-1.668-.343 4.3 4.3 0 0 1-1.36-.941 4.7 4.7 0 0 1-.92-1.379 4.1 4.1 0 0 1-.346-1.668V10.075q0-.69-.44-1.319-.44-.633-1.13-.787a11.1 11.1 0 0 0 4.06-1.054 11.5 11.5 0 0 0 3.299-2.357v3.411h1.53q-.648.154-1.09.787-.44.63-.44 1.32zM46.286 25.48q.075.535.67.976t1.669.518a9 9 0 0 1-2.512-.497 8 8 0 0 1-2.05-1.073 5.2 5.2 0 0 1-1.4-1.514 3.55 3.55 0 0 1-.516-1.86q0-1.224.862-2.087a2.85 2.85 0 0 1 2.09-.862q.612 0 1.166.23.555.23.96.632.402.403.632.94t.23 1.147q0 .69-.287 1.284a3 3 0 0 1-.786 1.016 4.3 4.3 0 0 0-.536.557q-.23.287-.192.592m10.31-3.831a3.7 3.7 0 0 1-.482 2.127q-.555.976-1.57 1.685-1.015.708-2.356 1.13-1.341.42-2.836.421 1.035 0 1.763-.843.726-.843.727-1.876 0-.96-.708-1.86-.71-.9-1.8-1.8a89 89 0 0 0-2.34-1.858 31 31 0 0 1-2.336-1.992 11 11 0 0 1-1.803-2.185 4.65 4.65 0 0 1-.708-2.49q0-1.15.613-1.992a5.1 5.1 0 0 1 1.552-1.398 7.3 7.3 0 0 1 2.088-.824q1.152-.27 2.225-.27h.63q.288 0 .595.078-1.037-.154-1.782.479-.747.632-.746 1.895 0 1.035.651 1.916.651.882 1.647 1.725a41 41 0 0 0 2.166 1.706 28 28 0 0 1 2.2 1.8q1.035.94 1.764 2.03a5.06 5.06 0 0 1 .845 2.396m-1.266-7.28a17 17 0 0 0-.48-1.898 8.6 8.6 0 0 0-.92-2.011 7 7 0 0 0-1.493-1.704q-.9-.747-2.203-1.016.612.114 1.13.268t.976.308q.459.15.9.23.44.076.94.037.306-.04.67-.154.363-.116.48-.267zM82.5 7.624q-.385.078-.903.71-.517.631-.977 1.666a14 14 0 0 0-.786 2.395q-.325 1.36-.325 2.893 0 1.917.498 3.603.5 1.684 1.362 2.95.862 1.263 2.012 1.992a4.5 4.5 0 0 0 2.452.727q1.111 0 2.185-.554a5.9 5.9 0 0 0 1.876-1.554 9.1 9.1 0 0 1-3.104 3.316 7.84 7.84 0 0 1-4.29 1.244q-1.801 0-3.394-.765a9 9 0 0 1-2.777-2.07q-1.187-1.303-1.878-3.066t-.69-3.793q0-1.992.69-3.774.69-1.781 1.878-3.084a9 9 0 0 1 2.777-2.069 7.7 7.7 0 0 1 3.393-.767m.65 0q1.38.115 2.605.654a8.9 8.9 0 0 1 2.147 1.303 6.4 6.4 0 0 1 1.454 1.684q.538.919.538 1.763 0 1.224-.881 2.087a2.9 2.9 0 0 1-2.107.862 2.84 2.84 0 0 1-2.09-.862 2.84 2.84 0 0 1-.862-2.087q0-1.19.806-2.07a3.7 3.7 0 0 0 .613-.785q.23-.402.23-.825 0-.383-.23-.708a1.8 1.8 0 0 0-.594-.535 3.3 3.3 0 0 0-.806-.327 5.4 5.4 0 0 0-.822-.154"/><path fill="#6356e0" d="M29.27 25.095q0 .615.747 1.111.75.498 1.86.498 1.266 0 2.3-.306a12 12 0 0 1-2.876.593q-1.53.135-2.814-.325-1.285-.459-2.128-1.608t-.844-3.296v-10.69q0-.726-.46-1.359t-1.11-.749l6.553-.957h.114q.651 0 .651.652v12.568q0 .727-.305 1.227a5.4 5.4 0 0 1-.69.9 10 10 0 0 0-.692.803 1.5 1.5 0 0 0-.305.938m12.073-1.149q0 .69.46 1.341.459.652 1.11.768l-6.553.957h-.114a.63.63 0 0 1-.46-.192.63.63 0 0 1-.191-.46V11.073a2.27 2.27 0 0 0-.46-1.36q-.46-.633-1.111-.749l6.551-.957h.116q.651 0 .652.652z"/></svg>