<svg xmlns="http://www.w3.org/2000/svg" width="88" height="33" fill="none" viewBox="0 0 88 33"><path fill="#808991" d="M11.345 32.313q-2.49 0-4.453-.87a10.03 10.03 0 0 1-5.422-5.78A11.6 11.6 0 0 1 .77 21.64q.035-3.209 1.04-5.476 1.008-2.267 2.66-3.684a10.7 10.7 0 0 1 3.633-2.063 12.6 12.6 0 0 1 3.924-.648q1.842 0 3.444.513 1.605.512 2.747 1.416t1.483 2.163q.24.786 0 1.588t-.922 1.483q-.647.614-1.518.903a9 9 0 0 1-1.617.392q-1.539.173-2.494-.424-.955-.599-1.005-1.588-.052-.988 1.042-1.943.236-.206.492-.7.258-.495.376-1.057.121-.564-.05-1.023-.17-.46-.75-.632-1.024-.27-2.115.564-1.092.837-1.978 2.354a14.3 14.3 0 0 0-1.4 3.324q-.271 1.058-.478 2.678a21 21 0 0 0-.137 3.429q.069 1.805.564 3.495a7.55 7.55 0 0 0 1.62 2.95q.784.853 1.672 1.244.886.393 1.706.29.921-.102 1.193-.816.274-.718.051-1.706a6.5 6.5 0 0 0-.784-1.93q-.562-.936-1.28-1.448 1.33-1.057 2.492-1.518 1.16-.46 2.114-.46 1.263 0 2.013.683.75.68.852 1.79.102 1.107-.648 2.404a8.2 8.2 0 0 1-3.155 3.036 8.67 8.67 0 0 1-4.213 1.091M30.275 31.631h-8.973q.752-3.137 1.126-5.677a33.6 33.6 0 0 0 .376-4.911q0-2.373-.376-4.912-.375-2.54-1.126-5.68h8.973q-.955 3.82-1.315 6.755a31 31 0 0 0-.153 5.897 28 28 0 0 1 .58-4.535q.48-2.25 1.382-4.162.904-1.91 2.37-3.154t3.582-1.483q2.013-.24 3.17.443 1.162.683 1.503 1.739.31.957-.118 2.03-.428 1.076-1.553 1.895-1.127.817-3.002 1.056-1.773.204-2.746-.613-.97-.819-.63-1.98.17-.545.135-.903-.032-.36-.306-.36-.205 0-.478.24-.817.785-1.519 2.592-.698 1.809-1.126 4.23a33 33 0 0 0-.475 5.083q-.052 2.66.392 5.182.067.307.153.616.086.306.154.612M52.615 28.562q-.956 1.877-2.61 2.832-1.656.954-3.394.954a6.15 6.15 0 0 1-3.138-.852q-1.468-.854-2.236-2.576-.765-1.722-.39-4.28.34-2.287 1.739-3.958a9.64 9.64 0 0 1 3.375-2.59q1.98-.922 4.028-.922 1.26 0 2.454.377 1.195.374 2.184 1.157.478-.956.699-2.318.222-1.365-.255-2.934-.374-1.294-1.194-1.978-.82-.681-1.569-.682-.546 0-.922.357-.374.359-.443 1.11-.137 1.704-.768 2.644-.63.937-1.5 1.33-.87.39-1.722.494-1.536.17-2.457-.494-.921-.666-.94-1.707-.016-1.04 1.078-1.996a10.7 10.7 0 0 1 3.598-2.112q2.028-.717 4.041-.717 1.741 0 3.31.562a7.4 7.4 0 0 1 2.728 1.706q1.16 1.142 1.672 2.915.513 1.773.137 4.194a60 60 0 0 0-.393 3.514q-.153 1.84.272 4.06.427 2.217 1.894 4.979h-8.972a7 7 0 0 1-.29-1.55 13 13 0 0 1-.017-1.519m-4.81-4.879q-.444 1.773-.29 3.087.152 1.314.733 2.031.58.715 1.33.715.784 0 1.636-.868.855-.87 1.538-2.746.681-1.878.953-4.879 0-1.192-.478-1.738-.476-.546-1.158-.546-1.092 0-2.389 1.28-1.296 1.279-1.876 3.664M62.673 10.452h1.161a9.4 9.4 0 0 1-.102-3.649 8.7 8.7 0 0 1 1.26-3.291q.956-1.485 2.559-2.424Q69.155.151 71.374.014q2.25-.102 3.478.564 1.227.663 1.467 1.757.239 1.09-.546 2.252-.784 1.158-2.526 2.044-1.74.887-4.466 1.126.102-1.09-.207-1.722-.306-.631-.782-.938-.785-.477-1.4-.478-.989 0-1.295.972-.306.974.75 2.44.785 1.056 1.86 1.601 1.074.546 2.472.82h5.799l-.17 1.023h-3.24q-.684 2.901-1.008 5.304a32 32 0 0 0-.29 4.672q.035 2.268.408 4.724.376 2.456 1.129 5.457h-8.973q.717-3 1.11-5.457.392-2.456.409-4.724a35 35 0 0 0-.29-4.672q-.307-2.403-.99-5.304h-1.09z"/><path fill="#808991" d="M87.098 28.084q-1.265 2.15-3.225 3.224-1.962 1.072-3.802 1.072-1.605 0-2.852-.8-1.244-.8-1.687-2.405t.341-3.99q.785-2.423 1.056-4.57a26 26 0 0 0 .207-4.127q-.102-2.628-.973-3.683-.868-1.06-2.335-1.33l.24-1.024q.679 0 1.77-.137a13.3 13.3 0 0 0 2.338-.53q1.247-.39 2.456-1.125a8.4 8.4 0 0 0 2.166-1.908q.957-1.176 1.435-2.883h1.021a51 51 0 0 0-.699 3.327 48 48 0 0 0-.46 3.256h3.274l.172 1.024h-3.547a47 47 0 0 0-.172 5.336q.07 2.643.443 5.236-.886.138-2.115.683-1.228.546-2.42 1.364a9.8 9.8 0 0 0-2.03 1.825q-.836 1.005-.956 2.098-.119 1.092.8 2.182.479.546 1.127.87.65.323 1.297.323.648 0 1.159-.307.921-.58 1.023-1.706t-.392-2.302-1.448-1.892q1.329-1.057 2.488-1.518 1.161-.461 2.115-.462 1.263 0 2.013.701.751.699.835 1.809.085 1.107-.663 2.37"/></svg>