<svg width="88" height="33" viewBox="0 0 88 33" fill="none" xmlns="http://www.w3.org/2000/svg">
<path d="M11.3455 32.3131C9.68484 32.3131 8.20018 32.023 6.89287 31.4426C5.5869 30.8623 4.4724 30.0724 3.55002 29.0729C2.62899 28.0721 1.9357 26.9355 1.47015 25.6633C1.00392 24.3898 0.771484 23.0484 0.771484 21.6385C0.794325 19.4999 1.14097 17.6749 1.81142 16.1629C2.48321 14.6515 3.36998 13.4237 4.47172 12.4793C5.57481 11.5355 6.78605 10.8477 8.10478 10.4158C9.42284 9.9846 10.7308 9.76831 12.0281 9.76831C13.2568 9.76831 14.4049 9.93959 15.473 10.2815C16.5425 10.622 17.4575 11.0942 18.2193 11.6974C18.9805 12.2993 19.4749 13.0207 19.7026 13.8603C19.8618 14.3835 19.8618 14.9128 19.7026 15.4482C19.5427 15.9822 19.2357 16.4765 18.7809 16.9313C18.349 17.3397 17.8431 17.6406 17.2627 17.834C16.6836 18.0275 16.1448 18.1585 15.645 18.2263C14.6198 18.3412 13.7888 18.1995 13.1513 17.8018C12.5151 17.4028 12.1799 16.8735 12.1463 16.2139C12.112 15.555 12.4594 14.9075 13.1889 14.2714C13.3461 14.1337 13.51 13.8999 13.6807 13.5701C13.8527 13.241 13.9776 12.889 14.0569 12.5142C14.1375 12.1381 14.12 11.7968 14.0058 11.4905C13.893 11.1842 13.6431 10.974 13.2561 10.8591C12.5736 10.6785 11.8682 10.8665 11.1413 11.4234C10.4137 11.9809 9.75471 12.7654 9.16353 13.777C8.57235 14.7872 8.10546 15.8955 7.76351 17.1006C7.58213 17.8065 7.42291 18.6992 7.2852 19.7793C7.14882 20.8594 7.10314 22.0026 7.14815 23.2076C7.1945 24.4113 7.38261 25.5767 7.71246 26.7031C8.04164 27.8282 8.58176 28.8116 9.33282 29.6532C9.85548 30.2215 10.4131 30.6359 11.0042 30.8972C11.5954 31.1592 12.1638 31.2559 12.7106 31.1874C13.3246 31.1195 13.7223 30.8475 13.9037 30.3706C14.0864 29.8923 14.1032 29.3241 13.9548 28.6645C13.8076 28.0035 13.5463 27.3607 13.1701 26.7354C12.7952 26.1107 12.3693 25.6277 11.891 25.2872C12.7778 24.5819 13.6081 24.0755 14.382 23.7692C15.1559 23.4629 15.8606 23.3097 16.4968 23.3097C17.3386 23.3097 18.0097 23.5374 18.5095 23.9922C19.0093 24.4456 19.2928 25.042 19.3614 25.7816C19.4292 26.5198 19.2136 27.3211 18.7137 28.1862C17.9412 29.4813 16.8898 30.4935 15.559 31.2223C14.2275 31.9491 12.8235 32.3131 11.3455 32.3131Z" fill="#62CDB6"/>
<path d="M30.275 31.6312H21.3025C21.8036 29.5396 22.1792 27.6467 22.4284 25.954C22.679 24.26 22.8046 22.6224 22.8046 21.0426C22.8046 19.4614 22.679 17.8238 22.4284 16.1311C22.1792 14.4371 21.8036 12.5436 21.3025 10.4513H30.275C29.6388 12.9983 29.2008 15.2499 28.9609 17.2059C28.7224 19.1605 28.6714 21.1259 28.8078 23.1034C28.8756 21.5813 29.0691 20.0693 29.3882 18.5681C29.7066 17.0675 30.1675 15.6798 30.7694 14.4062C31.3727 13.1327 32.1627 12.0815 33.1395 11.2519C34.1176 10.4231 35.3114 9.92869 36.7215 9.76883C38.0631 9.60963 39.1198 9.75741 39.8924 10.2121C40.6663 10.6676 41.1668 11.2466 41.3945 11.9505C41.6001 12.5886 41.5611 13.2657 41.2763 13.9817C40.9914 14.6984 40.4735 15.3298 39.7231 15.8759C38.972 16.4206 37.9717 16.7726 36.7215 16.9318C35.5391 17.0682 34.6235 16.864 33.9752 16.3192C33.3283 15.7731 33.1187 15.1128 33.3464 14.3391C33.4593 13.9757 33.5036 13.6747 33.4808 13.4363C33.4593 13.1965 33.3572 13.0763 33.1744 13.0763C33.0381 13.0763 32.8788 13.1562 32.6961 13.3154C32.1513 13.8386 31.6454 14.7031 31.1779 15.9081C30.7116 17.1138 30.3368 18.5237 30.0519 20.1371C29.7684 21.7512 29.6099 23.4459 29.5763 25.2205C29.542 26.9938 29.673 28.7214 29.9686 30.4034C30.013 30.6075 30.064 30.8131 30.1218 31.0186C30.1789 31.2228 30.23 31.427 30.275 31.6312Z" fill="#62CDB6"/>
<path d="M52.6146 28.5624C51.9784 29.8131 51.1084 30.7569 50.0053 31.3943C48.9016 32.0297 47.7703 32.3481 46.6114 32.3481C45.4969 32.3481 44.451 32.064 43.4728 31.4964C42.4947 30.9268 41.749 30.0684 41.2371 28.9198C40.7265 27.7718 40.5969 26.3451 40.8475 24.6397C41.0745 23.1156 41.6543 21.7964 42.5861 20.6821C43.5172 19.5684 44.6424 18.7046 45.9612 18.092C47.2812 17.4781 48.6241 17.1704 49.9892 17.1704C50.829 17.1704 51.6472 17.296 52.4426 17.5466C53.2394 17.7958 53.9676 18.182 54.6273 18.7046C54.9457 18.0672 55.1788 17.294 55.326 16.3859C55.4744 15.4764 55.3891 14.4984 55.0707 13.4519C54.8214 12.5888 54.4237 11.9299 53.8776 11.4745C53.3307 11.0197 52.8081 10.792 52.3083 10.792C51.9441 10.792 51.6371 10.9116 51.3866 11.1494C51.1373 11.3878 50.9895 11.7579 50.9432 12.259C50.8518 13.3948 50.5952 14.2761 50.1746 14.9028C49.7554 15.5281 49.2556 15.9715 48.6752 16.2328C48.0948 16.4927 47.5204 16.6573 46.9527 16.7271C45.9296 16.84 45.1107 16.6754 44.4966 16.2328C43.882 15.7888 43.5682 15.2198 43.5561 14.5266C43.5454 13.8335 43.9041 13.1685 44.6337 12.5304C45.6797 11.5994 46.8788 10.8954 48.2318 10.4185C49.5841 9.9403 50.9311 9.70117 52.2733 9.70117C53.4342 9.70117 54.5373 9.88858 55.5839 10.2627C56.6299 10.6375 57.5388 11.2058 58.3114 11.9688C59.0853 12.7305 59.6422 13.7018 59.9828 14.884C60.3248 16.0662 60.3704 17.4646 60.1199 19.0781C59.96 20.1944 59.8297 21.3659 59.7275 22.5924C59.6254 23.8196 59.7155 25.173 59.9989 26.6521C60.2838 28.1298 60.9153 29.7896 61.8934 31.6307H52.9209C52.7631 31.1081 52.6663 30.5909 52.6307 30.0805C52.5965 29.5686 52.5911 29.0622 52.6146 28.5624ZM47.8046 23.6832C47.509 24.8654 47.4122 25.8944 47.5143 26.7703C47.6165 27.6462 47.861 28.3233 48.2479 28.8015C48.6349 29.2784 49.0783 29.5162 49.5781 29.5162C50.1007 29.5162 50.6462 29.2274 51.2146 28.6484C51.7843 28.068 52.2962 27.1532 52.7516 25.9025C53.2064 24.6505 53.5242 23.0243 53.7056 21.0233C53.7056 20.228 53.5457 19.649 53.2273 19.2849C52.9102 18.9216 52.5239 18.7395 52.0691 18.7395C51.3415 18.7395 50.5455 19.1661 49.6802 20.0184C48.8163 20.8715 48.1915 22.0926 47.8046 23.6832Z" fill="#62CDB6"/>
<path d="M62.6738 10.4518H63.8347C63.5619 9.22325 63.5283 8.0068 63.7326 6.80312C63.9368 5.5981 64.3567 4.50054 64.9929 3.51181C65.6304 2.52173 66.4829 1.71367 67.551 1.08833C68.6205 0.463647 69.8949 0.104961 71.3749 0.0136102C72.8743 -0.0542311 74.0332 0.133844 74.8521 0.577836C75.6703 1.02048 76.1594 1.6062 76.3193 2.33499C76.4785 3.06244 76.2965 3.81273 75.7738 4.58652C75.2505 5.35897 74.4087 6.04007 73.2479 6.63117C72.0883 7.22226 70.5996 7.59774 68.7818 7.75693C68.8496 7.03016 68.7804 6.45585 68.5749 6.0347C68.3706 5.61422 68.11 5.30121 67.7929 5.09701C67.2696 4.77863 66.8027 4.61876 66.3929 4.61876C65.7332 4.61876 65.3019 4.94319 65.0977 5.59138C64.8934 6.24024 65.1433 7.05299 65.8474 8.03098C66.37 8.73492 66.9901 9.26892 67.7069 9.63231C68.423 9.99637 69.2473 10.2691 70.1791 10.4518H75.978L75.8087 11.4754H72.568C72.1125 13.4086 71.7766 15.1765 71.5603 16.7792C71.3453 18.3825 71.2486 19.9402 71.2701 21.4515C71.2929 22.9635 71.4293 24.5379 71.6785 26.1749C71.9291 27.8125 72.3053 29.6314 72.8072 31.6317H63.8347C64.313 29.6314 64.6825 27.8125 64.9445 26.1749C65.2058 24.5379 65.3422 22.9635 65.3529 21.4515C65.3637 19.9402 65.267 18.3825 65.0627 16.7792C64.8585 15.1765 64.5287 13.4086 64.0738 11.4754H62.9829L62.6738 10.4518Z" fill="#62CDB6"/>
<path d="M87.0984 28.0842C86.2559 29.5176 85.1811 30.5923 83.8738 31.3083C82.5658 32.023 81.2981 32.3804 80.0714 32.3804C79.0019 32.3804 78.0513 32.113 77.2203 31.5797C76.3907 31.0464 75.8284 30.2444 75.5328 29.175C75.2372 28.1057 75.3507 26.7757 75.874 25.1851C76.3967 23.5697 76.7487 22.0463 76.9301 20.6149C77.1128 19.1822 77.1814 17.8065 77.137 16.488C77.0685 14.7362 76.7447 13.5084 76.1643 12.8044C75.5852 12.0991 74.8072 11.6558 73.8291 11.4745L74.0683 10.4508C74.521 10.4508 75.1116 10.4051 75.8391 10.3138C76.568 10.2224 77.3473 10.0464 78.1769 9.78447C79.008 9.52318 79.8269 9.1477 80.633 8.65871C81.4405 8.16971 82.1627 7.53429 82.7989 6.75109C83.4364 5.96655 83.9147 5.00602 84.2338 3.86816H85.255C84.9822 4.98251 84.7498 6.09148 84.5563 7.19441C84.3628 8.29599 84.2097 9.38145 84.0968 10.4508H87.3698L87.5418 11.4745H83.9947C83.8348 13.2692 83.7777 15.0479 83.8227 16.8104C83.8691 18.573 84.0169 20.3187 84.2661 22.047C83.6749 22.1383 82.9695 22.366 82.1513 22.7294C81.3324 23.0935 80.5255 23.5482 79.7301 24.0943C78.9347 24.639 78.2582 25.2469 77.7013 25.9186C77.1437 26.589 76.8253 27.2882 76.7447 28.017C76.6654 28.7445 76.9328 29.4719 77.5455 30.1987C77.8639 30.5627 78.2394 30.8529 78.6714 31.0692C79.1047 31.2841 79.5373 31.3916 79.9693 31.3916C80.4006 31.3916 80.7869 31.2895 81.1275 31.0853C81.7415 30.6984 82.0828 30.1302 82.1513 29.3792C82.2191 28.6289 82.0881 27.8612 81.759 27.0766C81.4291 26.2921 80.9461 25.662 80.3106 25.1851C81.1973 24.4799 82.0263 23.9734 82.7989 23.6671C83.5728 23.3595 84.2775 23.205 84.9137 23.205C85.7555 23.205 86.4266 23.4387 86.9264 23.9062C87.4275 24.3724 87.7063 24.9749 87.7621 25.7144C87.8192 26.4526 87.5982 27.2425 87.0984 28.0842Z" fill="#62CDB6"/>
</svg>
