<svg xmlns="http://www.w3.org/2000/svg" width="128" height="25" fill="none" viewBox="0 0 128 25"><path fill="#b5c8c4" d="M.895 24.781V.001H20.16v5.518h-3.798q-1.457 0-2.546-.415a9 9 0 0 1-1.982-1.04 29 29 0 0 1-1.703-1.289 13.4 13.4 0 0 0-1.703-1.19A5.9 5.9 0 0 0 6.414.857v10.875a6.4 6.4 0 0 1 1.834-2.18q1.175-.892 2.793-.929.99 0 2.032.217 1.041.217 2.082.396t2.013.117a4 4 0 0 0 1.87-.63l-.96 5.486q-1.154.46-2.198.36a6.6 6.6 0 0 1-2-.508 27 27 0 0 1-1.866-.892 16 16 0 0 0-1.816-.83 4.5 4.5 0 0 0-1.838-.296q-.924.05-1.946.711v12.028zM36.944 24.781l-1.586-4.757h-7.434l-1.586 4.757h-5.785L28.748.001h5.817l8.195 24.78zm-1.816-5.487L29.113 1.122l-.86 2.644q-.695 2.05-.762 3.802-.063 1.749.185 3.284.247 1.537.545 2.942.297 1.406.36 2.761.068 1.352-.396 2.74zM57.99 0h5.487v24.781H57.99v-3.27a19.2 19.2 0 0 1-3.884 2.315 10.6 10.6 0 0 1-4.38.955q-1.649 0-2.725-.626a4.65 4.65 0 0 1-1.685-1.671 7.2 7.2 0 0 1-.86-2.343 14.4 14.4 0 0 1-.249-2.694V0h5.52V5.52q0 1.915-.726 3.567a74 74 0 0 1-1.586 3.37 12.7 12.7 0 0 0-.977 2.644 12.2 12.2 0 0 0-.379 3.01q0 1.519.464 2.793.464 1.27 1.518 2.013 1.059.744 2.875.708a9.3 9.3 0 0 0 3.767-.937 16.3 16.3 0 0 0 3.307-2.104zM75.3 24.781a8.9 8.9 0 0 1-3.617-.774q-1.768-.779-3.19-2.38-1.419-1.602-2.262-4.08t-.842-5.884q0-2.08.446-4.144a12.8 12.8 0 0 1 1.437-3.766 7.7 7.7 0 0 1 2.658-2.726Q71.6 0 74.044 0h10.61V5.52h-4.726q-.825 0-1.487-.379a7.3 7.3 0 0 1-1.275-.941 42 42 0 0 0-1.288-1.14 5.7 5.7 0 0 0-1.568-.946q-1.718-.725-3.024-.527t-2.18 1.076q-.875.876-1.356 2.163a9.8 9.8 0 0 0-.577 2.761q-.1 1.47.13 2.82.464 2.577 1.933 4.627a10.26 10.26 0 0 0 3.686 3.19q2.216 1.14 4.857 1.008a7.6 7.6 0 0 0 3.505-1.072q1.653-.975 2.28-2.73.626-1.815-.1-2.739-.725-.928-2.644-.103-1.092.465-2.23 1.076a8.6 8.6 0 0 1-2.366.856q-1.221.248-2.64-.31l-.96-5.487a3.97 3.97 0 0 0 1.866.63 8.5 8.5 0 0 0 2.018-.117q1.041-.18 2.082-.396a10 10 0 0 1 2.032-.217q1.622 0 2.478.762.86.762 1.207 1.932.347 1.173.347 2.46a13.9 13.9 0 0 1-.545 4.117 10.7 10.7 0 0 1-1.766 3.519 8.7 8.7 0 0 1-2.942 2.464q-1.755.906-4.1.905M98.827 19.33q1.32.1 2.775-.198a9.1 9.1 0 0 0 2.708-1.009 5.4 5.4 0 0 0 1.982-1.9l.663.332a17.7 17.7 0 0 1-2.348 4.181q-1.42 1.865-3.338 2.955-1.917 1.091-4.393 1.09-2.714 0-4.695-1.121a9.84 9.84 0 0 1-3.289-3.023 13.8 13.8 0 0 1-1.933-4.23 18.2 18.2 0 0 1-.626-4.744q0-2.08.446-4.144a12.8 12.8 0 0 1 1.437-3.766 7.7 7.7 0 0 1 2.659-2.726Q92.546 0 94.993 0h10.606V5.52h-4.727a2.94 2.94 0 0 1-1.487-.379 7.3 7.3 0 0 1-1.27-.941 49 49 0 0 0-1.289-1.14 5.7 5.7 0 0 0-1.568-.946q-1.721-.725-3.027-.527-1.303.198-2.181 1.076-.874.876-1.356 2.163a9.8 9.8 0 0 0-.577 2.761q-.099 1.47.13 2.82.069.335.15.68.084.349.184.708a6.2 6.2 0 0 1 1.834-2.244q1.17-.89 2.825-.928 1.022 0 2.064.217 1.044.217 2.067.396t1.996.117a4 4 0 0 0 1.87-.63l-.959 5.486q-1.353.528-2.542.33a8 8 0 0 1-2.297-.758q-1.11-.563-2.167-1.076a6.7 6.7 0 0 0-2.145-.644q-1.092-.13-2.248.527 1.157 2.811 3.766 4.644 2.613 1.834 6.182 2.1M108.501 0h19.27V5.52q-1.853 0-3.983.675a20.3 20.3 0 0 0-4.163 1.87 20.4 20.4 0 0 0-3.654 2.707 13.6 13.6 0 0 0-2.082 2.577q-.86 1.388-1.076 2.694-.213 1.307.464 2.198.679.892 2.496 1.054.958.1 2.248-.063a24 24 0 0 0 2.64-.495 23 23 0 0 0 2.546-.78q1.193-.445 1.951-.973l2.613 5.055q-1.128.83-2.812 1.455a20 20 0 0 1-3.636.96q-1.946.329-3.928.328-1.492 0-3.06-.23a10.3 10.3 0 0 1-2.892-.86 5.3 5.3 0 0 1-2.131-1.784q-.811-1.157-.811-3.009 0-2.08.991-3.879.995-1.8 2.645-3.306a23 23 0 0 1 3.654-2.708 34 34 0 0 1 4.014-2.08 35 35 0 0 1 3.735-1.406h-15.039z"/></svg>