<svg xmlns="http://www.w3.org/2000/svg" width="88" height="33" fill="none" viewBox="0 0 88 33"><path fill="#62cdb6" d="M11.346 32.313q-2.492 0-4.453-.87a10.03 10.03 0 0 1-5.423-5.78 11.6 11.6 0 0 1-.699-4.024q.035-3.209 1.04-5.476 1.008-2.267 2.66-3.684a10.7 10.7 0 0 1 3.634-2.063 12.6 12.6 0 0 1 3.923-.648q1.843 0 3.445.513 1.604.512 2.746 1.416t1.484 2.163a2.7 2.7 0 0 1 0 1.588q-.24.802-.922 1.483-.648.614-1.518.903a9 9 0 0 1-1.618.392q-1.537.173-2.494-.424-.954-.599-1.005-1.588-.051-.988 1.043-1.943.235-.206.492-.7.258-.495.376-1.057.12-.564-.051-1.023-.17-.46-.75-.632-1.024-.27-2.115.564-1.09.837-1.977 2.354a14.3 14.3 0 0 0-1.4 3.324q-.273 1.058-.479 2.678a21 21 0 0 0-.137 3.429q.07 1.805.564 3.495a7.55 7.55 0 0 0 1.62 2.95q.785.853 1.672 1.244.886.393 1.707.29.92-.102 1.193-.816.274-.718.05-1.706a6.5 6.5 0 0 0-.784-1.93q-.562-.936-1.279-1.448 1.33-1.057 2.491-1.518 1.161-.46 2.115-.46 1.263 0 2.012.683.75.68.852 1.79.103 1.107-.647 2.404a8.2 8.2 0 0 1-3.155 3.036 8.67 8.67 0 0 1-4.213 1.091M30.275 31.631h-8.972q.75-3.137 1.125-5.677a33.6 33.6 0 0 0 .377-4.911q0-2.373-.377-4.912-.373-2.54-1.126-5.68h8.973q-.954 3.82-1.314 6.755a31 31 0 0 0-.153 5.897 28 28 0 0 1 .58-4.535q.479-2.25 1.381-4.162.906-1.91 2.37-3.154 1.468-1.243 3.582-1.483 2.013-.24 3.171.443 1.161.683 1.502 1.739.31.957-.118 2.03-.428 1.076-1.553 1.895-1.126.817-3.001 1.056-1.775.204-2.747-.613-.97-.819-.629-1.98.17-.545.135-.903-.033-.36-.307-.36-.204 0-.478.24-.817.785-1.518 2.592-.699 1.809-1.126 4.23a33 33 0 0 0-.476 5.083q-.051 2.66.393 5.182.066.307.153.616.086.306.153.612M52.615 28.562q-.955 1.877-2.61 2.832t-3.394.954a6.15 6.15 0 0 1-3.138-.852q-1.468-.855-2.236-2.576-.765-1.722-.39-4.28.34-2.286 1.74-3.958a9.64 9.64 0 0 1 3.374-2.59q1.98-.922 4.028-.922 1.26 0 2.454.377 1.195.373 2.184 1.158.478-.957.699-2.32.222-1.364-.255-2.933-.374-1.295-1.193-1.977t-1.57-.683q-.545 0-.921.357-.375.358-.444 1.11-.137 1.704-.768 2.644-.63.938-1.5 1.33-.87.39-1.722.494-1.535.17-2.456-.494-.923-.666-.94-1.706-.018-1.039 1.077-1.997a10.7 10.7 0 0 1 3.598-2.111Q50.26 9.7 52.273 9.7a9.8 9.8 0 0 1 3.31.562 7.4 7.4 0 0 1 2.728 1.706q1.16 1.142 1.672 2.915.513 1.773.137 4.194a60 60 0 0 0-.392 3.514q-.154 1.842.27 4.06.429 2.217 1.895 4.979h-8.972a7 7 0 0 1-.29-1.55 13 13 0 0 1-.016-1.519m-4.81-4.879q-.444 1.773-.29 3.087.153 1.314.733 2.032.58.714 1.33.714.784 0 1.637-.868.854-.87 1.537-2.745.681-1.878.954-4.88 0-1.192-.479-1.738-.475-.545-1.158-.546-1.091 0-2.389 1.28-1.296 1.28-1.875 3.664M62.674 10.452h1.16a9.4 9.4 0 0 1-.101-3.649 8.7 8.7 0 0 1 1.26-3.291q.956-1.485 2.558-2.424Q69.156.151 71.375.014q2.25-.102 3.477.564 1.227.663 1.467 1.757.239 1.09-.545 2.252-.784 1.158-2.526 2.044-1.74.887-4.466 1.126.101-1.09-.207-1.722-.306-.631-.782-.938-.785-.477-1.4-.478-.99 0-1.295.972-.307.974.75 2.44.783 1.056 1.859 1.601 1.074.546 2.472.82h5.799l-.17 1.023h-3.24q-.683 2.901-1.008 5.304a32 32 0 0 0-.29 4.672q.035 2.268.409 4.724.375 2.456 1.128 5.457h-8.972q.717-3 1.11-5.457a31.4 31.4 0 0 0 .408-4.724 35 35 0 0 0-.29-4.672q-.306-2.403-.99-5.304h-1.09z"/><path fill="#62cdb6" d="M87.098 28.084q-1.263 2.15-3.224 3.224-1.962 1.072-3.803 1.072-1.605 0-2.85-.8-1.245-.801-1.688-2.405-.444-1.605.341-3.99.785-2.423 1.056-4.57a26 26 0 0 0 .207-4.127q-.102-2.628-.973-3.684-.868-1.057-2.335-1.33l.24-1.023q.679 0 1.77-.137a13.3 13.3 0 0 0 2.338-.53q1.247-.39 2.456-1.125a8.4 8.4 0 0 0 2.166-1.908q.956-1.176 1.435-2.883h1.021a51 51 0 0 0-.699 3.326 48 48 0 0 0-.46 3.257h3.274l.172 1.024h-3.547a47 47 0 0 0-.172 5.335q.07 2.645.443 5.237-.887.137-2.115.682-1.229.547-2.42 1.365a9.8 9.8 0 0 0-2.03 1.825q-.836 1.006-.956 2.098-.119 1.091.8 2.182.478.546 1.126.87a2.9 2.9 0 0 0 1.298.323q.648 0 1.159-.307.921-.58 1.023-1.706t-.392-2.302-1.448-1.892q1.329-1.058 2.488-1.518 1.16-.462 2.115-.462 1.263 0 2.012.701.752.7.836 1.808.086 1.108-.664 2.37"/></svg>