<svg xmlns="http://www.w3.org/2000/svg" width="90" height="29" fill="none" viewBox="0 0 90 29"><path fill="#808991" d="M16.933 14.444q.805.806 1.379 2.09a29 29 0 0 1 1.054 2.72q.48 1.435.977 2.892.499 1.455 1.092 2.547t1.379 1.725q.786.631 1.898.402-.728.766-2.03 1.168-1.305.403-2.837.44-2.185 0-3.623-1.11a8.8 8.8 0 0 1-2.355-2.796 17.7 17.7 0 0 1-1.476-3.64 121 121 0 0 1-.976-3.64q-.422-1.686-.863-2.817-.44-1.13-1.13-1.13h2.339q.84 0 1.587-.516.749-.52 1.303-1.4.557-.882.882-2.068a9.6 9.6 0 0 0 .327-2.569q0-1.34-.327-2.565-.325-1.227-.882-2.147-.555-.919-1.303-1.473Q12.601 0 11.761 0h3.677q1.495 0 2.798.519a7.1 7.1 0 0 1 2.28 1.436A7 7 0 0 1 22.068 4.1q.575 1.225.575 2.604a6.1 6.1 0 0 1-.576 2.606 7 7 0 0 1-1.552 2.146 7.1 7.1 0 0 1-2.279 1.436 7.5 7.5 0 0 1-2.798.516h-.574q.306 0 .69.154.305.117.668.327t.711.554M9.23 24.293q0 .957.67 1.743.67.784 1.669.784H.186q.96.001 1.63-.784.67-.786.67-1.744V2.529q0-.957-.67-1.741Q1.146 0 .186 0H9.23zM72.957 24.712q0 .692.46 1.343.461.65 1.11.765h-8.89q.652-.116 1.112-.765.46-.651.46-1.343V11.073a2.27 2.27 0 0 0-.46-1.36q-.46-.632-1.111-.748l6.553-.958h.114q.651 0 .652.652zM70.083 5.939a2.84 2.84 0 0 1-2.088-.862 2.84 2.84 0 0 1-.862-2.09q0-1.224.862-2.106A2.81 2.81 0 0 1 70.083 0q1.226 0 2.108.881.882.882.882 2.106 0 .614-.23 1.152-.23.536-.633.938-.403.404-.96.632-.554.23-1.167.23"/><path fill="#808991" d="M63.225 10.192V23.37q0 .881.593 1.476.594.594 1.438.594.573 0 1.073-.308-.346.27-.805.597-.46.325-1.036.611-.573.287-1.265.48-.69.19-1.493.191a4.1 4.1 0 0 1-1.668-.343 4.3 4.3 0 0 1-1.36-.941 4.7 4.7 0 0 1-.92-1.379 4.1 4.1 0 0 1-.345-1.668V10.075q0-.69-.44-1.319-.442-.633-1.131-.787a11.1 11.1 0 0 0 4.061-1.054 11.5 11.5 0 0 0 3.298-2.357v3.411h1.53q-.648.154-1.089.787-.44.63-.44 1.32zM46.286 25.48q.075.535.671.976.595.44 1.668.518a9 9 0 0 1-2.511-.497 8 8 0 0 1-2.05-1.073 5.2 5.2 0 0 1-1.4-1.514 3.55 3.55 0 0 1-.517-1.86q0-1.224.863-2.087a2.85 2.85 0 0 1 2.09-.862q.61 0 1.165.23t.96.632q.402.403.632.94t.23 1.147q0 .69-.287 1.284a3 3 0 0 1-.786 1.016 4.3 4.3 0 0 0-.536.557q-.23.287-.192.592m10.31-3.831q.075 1.149-.481 2.127-.555.976-1.571 1.685-1.015.708-2.355 1.13-1.342.42-2.837.421 1.035 0 1.763-.843t.728-1.876q0-.96-.709-1.86-.708-.9-1.8-1.8a89 89 0 0 0-2.34-1.858 31 31 0 0 1-2.335-1.992 11 11 0 0 1-1.803-2.185 4.65 4.65 0 0 1-.709-2.49q0-1.15.614-1.992a5.1 5.1 0 0 1 1.552-1.398 7.3 7.3 0 0 1 2.087-.824q1.152-.27 2.225-.27h.63q.29 0 .595.078-1.035-.154-1.782.479-.746.632-.746 1.895 0 1.035.651 1.916.653.882 1.647 1.725a41 41 0 0 0 2.166 1.706 28 28 0 0 1 2.201 1.8q1.035.94 1.763 2.03a5.06 5.06 0 0 1 .846 2.396m-1.265-7.28a17 17 0 0 0-.482-1.898 8.6 8.6 0 0 0-.919-2.011 7 7 0 0 0-1.493-1.704q-.9-.747-2.203-1.016.613.114 1.13.268t.976.308q.46.15.9.23.441.076.941.037.306-.04.669-.154.364-.116.48-.267zM82.5 7.624q-.384.078-.903.71-.517.631-.976 1.666a14 14 0 0 0-.787 2.395q-.325 1.36-.324 2.893 0 1.917.497 3.603.5 1.684 1.363 2.95.862 1.263 2.011 1.992a4.5 4.5 0 0 0 2.453.727q1.11 0 2.184-.554a5.9 5.9 0 0 0 1.877-1.554 9.1 9.1 0 0 1-3.104 3.316 7.84 7.84 0 0 1-4.291 1.244q-1.8 0-3.393-.765a9 9 0 0 1-2.777-2.07q-1.187-1.303-1.88-3.066-.689-1.763-.689-3.793 0-1.992.69-3.774.691-1.781 1.879-3.084a9 9 0 0 1 2.777-2.069 7.7 7.7 0 0 1 3.393-.767m.651 0a8.1 8.1 0 0 1 2.604.654 8.9 8.9 0 0 1 2.147 1.303 6.4 6.4 0 0 1 1.455 1.684q.537.919.538 1.763 0 1.224-.882 2.087a2.9 2.9 0 0 1-2.106.862 2.84 2.84 0 0 1-2.09-.862 2.84 2.84 0 0 1-.862-2.087q0-1.19.805-2.07a3.7 3.7 0 0 0 .614-.785q.23-.402.23-.825 0-.383-.23-.708a1.8 1.8 0 0 0-.595-.535 3.3 3.3 0 0 0-.805-.327 5.4 5.4 0 0 0-.823-.154"/><path fill="#808991" d="M29.271 25.095q0 .615.747 1.111.748.498 1.86.498 1.265 0 2.3-.306-1.343.46-2.876.593-1.53.135-2.815-.325-1.284-.459-2.128-1.608-.843-1.15-.843-3.296v-10.69a2.27 2.27 0 0 0-.46-1.359q-.46-.633-1.111-.749l6.554-.957h.113q.652 0 .652.652v12.568q0 .727-.306 1.227a5.4 5.4 0 0 1-.69.9 10 10 0 0 0-.691.803 1.5 1.5 0 0 0-.306.938m12.072-1.149q0 .69.46 1.341.46.652 1.111.768l-6.553.957h-.114a.63.63 0 0 1-.46-.192.63.63 0 0 1-.192-.46V11.073q0-.727-.46-1.36-.459-.633-1.11-.749l6.55-.957h.117q.651 0 .651.652z"/></svg>