<svg xmlns="http://www.w3.org/2000/svg" width="128" height="25" fill="none" viewBox="0 0 128 25"><path fill="#808991" d="M.895 24.781V.001H20.16v5.518h-3.798q-1.455 0-2.546-.415a9 9 0 0 1-1.982-1.04 29 29 0 0 1-1.703-1.289 13.4 13.4 0 0 0-1.703-1.19A5.9 5.9 0 0 0 6.414.857v10.875a6.4 6.4 0 0 1 1.834-2.18q1.175-.892 2.793-.929.99 0 2.032.217 1.041.217 2.082.396t2.014.117a4 4 0 0 0 1.87-.63l-.96 5.486q-1.155.46-2.199.36a6.6 6.6 0 0 1-2-.508 27 27 0 0 1-1.866-.892 16 16 0 0 0-1.815-.83 4.5 4.5 0 0 0-1.839-.296q-.924.05-1.946.711v12.028zM36.944 24.781l-1.586-4.757h-7.434l-1.586 4.757h-5.785L28.748.001h5.817l8.196 24.78zm-1.816-5.487L29.113 1.122l-.86 2.644q-.694 2.05-.762 3.802-.064 1.749.185 3.284.248 1.537.545 2.942t.36 2.761q.068 1.352-.396 2.74zM57.99 0h5.487v24.781H57.99v-3.27a19.2 19.2 0 0 1-3.884 2.315 10.6 10.6 0 0 1-4.38.955q-1.649 0-2.725-.626a4.65 4.65 0 0 1-1.685-1.671 7.2 7.2 0 0 1-.86-2.343 14.4 14.4 0 0 1-.249-2.694V0h5.52V5.52q0 1.915-.726 3.567a74 74 0 0 1-1.586 3.37 12.7 12.7 0 0 0-.977 2.644 12.2 12.2 0 0 0-.379 3.01q0 1.519.464 2.793.464 1.27 1.519 2.013 1.057.744 2.874.708a9.3 9.3 0 0 0 3.767-.937 16.3 16.3 0 0 0 3.307-2.104zM75.3 24.781a8.9 8.9 0 0 1-3.617-.774q-1.768-.779-3.19-2.38-1.42-1.602-2.262-4.08t-.843-5.884q0-2.08.446-4.144a12.8 12.8 0 0 1 1.438-3.766 7.7 7.7 0 0 1 2.658-2.726Q71.6 0 74.043 0h10.61V5.52h-4.725q-.825 0-1.487-.379a7.3 7.3 0 0 1-1.275-.941 42 42 0 0 0-1.289-1.14 5.7 5.7 0 0 0-1.568-.946q-1.716-.725-3.023-.527t-2.18 1.076q-.876.876-1.357 2.163a9.8 9.8 0 0 0-.576 2.761q-.1 1.47.13 2.82.463 2.577 1.933 4.627a10.26 10.26 0 0 0 3.685 3.19q2.217 1.14 4.857 1.008a7.6 7.6 0 0 0 3.506-1.072q1.652-.975 2.28-2.73.625-1.815-.1-2.739-.726-.928-2.644-.103-1.092.465-2.23 1.076a8.6 8.6 0 0 1-2.366.856q-1.221.248-2.64-.31l-.96-5.487a3.97 3.97 0 0 0 1.865.63 8.5 8.5 0 0 0 2.019-.117q1.041-.18 2.081-.396a10 10 0 0 1 2.032-.217q1.622 0 2.478.762.86.762 1.208 1.932.346 1.173.347 2.46a13.9 13.9 0 0 1-.545 4.117 10.7 10.7 0 0 1-1.766 3.519 8.7 8.7 0 0 1-2.943 2.464q-1.753.906-4.1.905M98.827 19.33q1.32.1 2.776-.198a9.1 9.1 0 0 0 2.707-1.009 5.4 5.4 0 0 0 1.983-1.9l.662.332a17.7 17.7 0 0 1-2.347 4.181q-1.419 1.865-3.339 2.955-1.915 1.091-4.393 1.09-2.713 0-4.694-1.121a9.85 9.85 0 0 1-3.29-3.023 13.8 13.8 0 0 1-1.932-4.23 18.2 18.2 0 0 1-.626-4.744q0-2.08.445-4.144a12.8 12.8 0 0 1 1.438-3.766 7.7 7.7 0 0 1 2.658-2.726Q92.546 0 94.993 0H105.6V5.52h-4.726q-.825 0-1.487-.379a7.4 7.4 0 0 1-1.27-.941 49 49 0 0 0-1.29-1.14 5.7 5.7 0 0 0-1.567-.946q-1.722-.725-3.028-.527-1.302.198-2.18 1.076-.876.876-1.357 2.163a9.8 9.8 0 0 0-.576 2.761q-.1 1.47.13 2.82.068.335.149.68.084.349.185.708a6.2 6.2 0 0 1 1.834-2.244q1.17-.89 2.824-.928 1.023 0 2.064.217 1.044.217 2.068.396 1.022.18 1.996.117a4 4 0 0 0 1.87-.63l-.96 5.486q-1.352.528-2.541.33a8 8 0 0 1-2.298-.758q-1.109-.563-2.167-1.076a6.7 6.7 0 0 0-2.145-.644q-1.09-.13-2.248.527 1.158 2.811 3.767 4.644 2.612 1.834 6.181 2.1M108.501 0h19.27V5.52q-1.851 0-3.983.675a20.4 20.4 0 0 0-4.163 1.87 20.4 20.4 0 0 0-3.654 2.707 13.6 13.6 0 0 0-2.081 2.577q-.862 1.388-1.077 2.694-.213 1.307.464 2.198.68.892 2.496 1.054.96.1 2.248-.063a24 24 0 0 0 2.64-.495 23 23 0 0 0 2.546-.78q1.193-.445 1.951-.973l2.613 5.055q-1.127.83-2.811 1.455a20 20 0 0 1-3.636.96q-1.947.329-3.929.328-1.492 0-3.059-.23a10.2 10.2 0 0 1-2.893-.86 5.33 5.33 0 0 1-2.131-1.784q-.811-1.157-.811-3.009 0-2.08.991-3.879.996-1.8 2.645-3.306a23 23 0 0 1 3.654-2.708 34 34 0 0 1 4.014-2.08 35 35 0 0 1 3.735-1.406h-15.039z"/></svg>