<svg xmlns="http://www.w3.org/2000/svg" width="115" height="27" fill="none" viewBox="0 0 115 27"><path fill="#808991" d="M.771 26.619q.266-1.178.456-2.795.188-1.617.303-3.384.114-1.768.115-3.442V9.621q0-1.674-.115-3.44a67 67 0 0 0-.303-3.386A27 27 0 0 0 .77 0h4.754q4.183 0 6.541 3.424 2.359 3.42 2.359 9.81 0 6.426-2.359 9.905-2.358 3.48-6.541 3.48zm4.676-3.728h.459q1.862 0 3.192-2.261 1.332-2.262 1.332-7.396 0-3.424-.629-5.516-.626-2.09-1.655-3.04-1.026-.95-2.28-.95h-.419zM21.305 27q-2.318 0-3.917-2.395-1.597-2.398-1.596-7.455 0-5.096 1.596-7.51 1.598-2.415 3.917-2.414 2.357 0 3.917 2.413 1.562 2.415 1.562 7.511 0 5.057-1.562 7.455Q23.662 27 21.305 27m0-3.31q1.066 0 1.558-1.728.495-1.732.496-4.812 0-3.158-.496-4.886-.492-1.73-1.558-1.73-1.065 0-1.559 1.73-.495 1.728-.496 4.886 0 3.08.496 4.812.495 1.729 1.559 1.729M33.587 27q-2.317 0-3.917-2.395-1.596-2.398-1.596-7.455 0-5.096 1.596-7.51 1.6-2.415 3.917-2.414 2.358 0 3.917 2.413 1.563 2.415 1.562 7.511 0 5.057-1.562 7.455Q35.944 27 33.587 27m0-3.31q1.065 0 1.56-1.728.495-1.732.495-4.812 0-3.158-.496-4.886-.492-1.73-1.559-1.73-1.063 0-1.558 1.73-.496 1.728-.496 4.886 0 3.08.496 4.812.495 1.729 1.558 1.729M44.692 27q-1.825 0-3.043-2.414-1.218-2.417-1.218-7.436t1.196-7.47q1.2-2.454 3.065-2.454 1.215 0 2.166 1.103.951 1.104 1.448 3.46h.266V9.544q0-1.672-.096-3.42a54 54 0 0 0-.285-3.347A39 39 0 0 0 47.772 0h5.095a40 40 0 0 0-.418 2.776 53 53 0 0 0-.285 3.347 64 64 0 0 0-.093 3.42v7.492q0 1.674.093 3.443.095 1.77.285 3.368a40 40 0 0 0 .418 2.773h-4.905a6.3 6.3 0 0 0 .514-1.844q.095-.895.096-2.187v-.341h-.23q-.496 2.433-1.446 3.594-.949 1.16-2.204 1.159m1.481-3.805q1.255 0 1.751-1.71.495-1.71.496-4.335 0-2.698-.477-4.41-.474-1.712-1.77-1.713-1.177 0-1.729 1.618-.552 1.615-.551 4.505 0 2.776.551 4.412.55 1.634 1.73 1.633M55.147 26.619a25 25 0 0 0 .437-2.773q.173-1.6.266-3.368a64 64 0 0 0 .096-3.443V9.543q0-1.672-.096-3.42a61 61 0 0 0-.266-3.347A25 25 0 0 0 55.147 0h5.06q-.23 1.177-.4 2.776a81 81 0 0 0-.285 3.347 52 52 0 0 0-.114 3.42v7.492q0 1.674.114 3.443.115 1.77.285 3.368.17 1.596.4 2.773zM68.307 27q-2.663 0-4.527-2.547-1.863-2.55-1.863-7.607 0-3.12.778-5.267.781-2.146 2.036-3.25 1.255-1.103 2.662-1.103 2.206 0 3.499 1.599 1.295 1.596 1.295 5.282 0 1.56-.514 2.928-.515 1.37-1.37 2.206-.855.837-1.959.837-1.103 0-1.806-.533t-1.048-.988l-.151.037q.076 2.358 1.047 3.69.97 1.33 2.3 1.33.875 0 1.465-.36.588-.363 1.31-1.314l.267 3.502q-.76.91-1.54 1.233-.778.325-1.88.325m-1.218-9.09q.8 0 1.33-1.064.532-1.065.573-2.624 0-2.055-.44-2.89-.437-.838-1.274-.837-.796 0-1.37 1.388-.57 1.388-.644 4.012.189.953.682 1.484.495.53 1.143.53M73.82 26.619q.267-1.178.456-2.795.188-1.617.303-3.384a54 54 0 0 0 .115-3.442V9.621q0-1.674-.115-3.44a67 67 0 0 0-.303-3.386A27 27 0 0 0 73.82 0h10.04l.57 4.372a7.6 7.6 0 0 0-1.236-.36q-.78-.173-2.11-.173h-2.588v7.644h.952q1.331 0 2.11-.056.78-.056 1.351-.17v4.257q-1.218-.19-3.728-.19h-.685v2.055q0 2.433.248 4.982.248 2.547.63 4.258zM90.705 27q-1.827 0-2.929-1.596-1.103-1.599-1.103-5.667V15.21q0-1.292-.096-2.717a43 43 0 0 0-.267-2.72q-.171-1.293-.437-2.167h5.098a21 21 0 0 0-.422 2.166 35 35 0 0 0-.285 2.72q-.093 1.426-.093 2.718v3.613q0 4.335 2.015 4.334 1.103 0 1.806-1.347.704-1.35.704-3.483V15.21q0-1.292-.096-2.717-.093-1.429-.264-2.72-.171-1.293-.437-2.167h5.095q-.226.874-.418 2.166a35 35 0 0 0-.285 2.72q-.093 1.426-.093 2.718v3.842q0 1.255.093 2.68.095 1.425.285 2.699.192 1.274.418 2.187h-4.98a6.2 6.2 0 0 0 .549-1.71q.132-.837.133-2.206v-.189h-.19q-.418 2.318-1.406 3.402Q92.11 27 90.705 27M101.198 26.619q.267-.914.437-2.188.17-1.273.267-2.698a41 41 0 0 0 .096-2.72V15.21q0-1.292-.096-2.717a43 43 0 0 0-.267-2.72q-.17-1.293-.437-2.166h5.021a7 7 0 0 0-.533 1.692q-.153.856-.152 2.224v.19h.189q.418-2.322 1.407-3.403.99-1.084 2.398-1.084 1.788 0 2.91 1.599 1.122 1.596 1.122 5.7v4.487q0 1.296.093 2.72.095 1.426.285 2.7.192 1.273.418 2.187h-5.132q.264-.914.434-2.188.174-1.273.267-2.698a41 41 0 0 0 .096-2.72V15.44q0-4.375-2.014-4.375-1.104 0-1.788 1.35-.686 1.352-.685 3.48v3.117q0 1.296.093 2.72.095 1.426.285 2.7.192 1.273.421 2.187z"/></svg>