<svg xmlns="http://www.w3.org/2000/svg" width="80" height="31" fill="none" viewBox="0 0 80 31"><path fill="#808991" d="M0 23.158q.718-.601 1.158-1.828.44-1.23.88-2.664.693-2.361 1.216-4.307.522-1.947.928-3.788.405-1.839.786-3.831.381-1.993.821-4.402a3.8 3.8 0 0 0 0-1.318Q5.675.372 5.282 0h10.26q-.372.372-.501 1.02a3.6 3.6 0 0 0-.01 1.318q.44 2.409.821 4.402.383 1.992.79 3.831.405 1.842.925 3.788.521 1.946 1.216 4.307.441 1.435.881 2.664.44 1.226 1.159 1.828h-9.568q.396-.464.615-1.134.22-.672.22-1.391 0-.578-.208-2.151a86 86 0 0 0-.556-3.545H7.92q.602 1.46 1.1 2.896a8.7 8.7 0 0 1 .498 2.87q0 .533-.138 1.112a2.1 2.1 0 0 1-.498.962q-.36.381-1.054.381zm7.482-9.263h3.635a80 80 0 0 0-.719-3.324 37 37 0 0 0-.845-3.02q-.451-1.367-.928-2.19-.473-.823-.959-.823-.602 0-.95.51-.347.51-.497 1.333-.15.82-.15 1.748-.001 1.528.427 2.964.43 1.435.986 2.802"/><mask id="a" width="13" height="5" x="22" y="1" maskUnits="userSpaceOnUse" style="mask-type:luminance"><path fill="#fff" d="M22.636 1.005h11.5v4.46h-11.5z"/></mask><g mask="url(#a)"><path fill="#808991" d="M33.804 1.925c-.315-.545-.97-.871-1.753-.871-1.78 0-3.042 1.624-3.662 2.65-.621-1.025-1.883-2.64-3.659-2.64-1.127 0-1.945.678-1.945 1.598 0 1.631 1.842 2.695 5.546 2.695 3.703 0 5.665-1.368 5.665-2.682 0-.261-.057-.517-.192-.75M24.711 3.55c-.623-.32-.845-.68-.845-.909 0-.293.363-.506.863-.506 1.206 0 2.16 1.197 2.678 2.031-1.389-.089-2.222-.372-2.696-.616m8.12-.635c-.313.542-1.382 1.118-3.451 1.25.522-.833 1.48-2.03 2.671-2.03.461 0 .724.17.817.331q.11.193-.037.449"/></g><path fill="#808991" d="M36.292 6.946q.694 0 1.551-.485.857-.486 1.737-1.214.88-.73 1.668-1.448.786-.717 1.389-1.204.602-.488.881-.488.44 0 .44.556v4.283h1.991v1.158h-1.991v9.358q0 .903.022 1.806.023.903.255 1.622.232.716.835 1.11a.5.5 0 0 0 .289.092q.15 0 .313.046-.045.418-.451.73a2.9 2.9 0 0 1-.962.474q-.557.163-1.112.163-1.666 0-2.674-.556-1.008-.555-1.53-1.493a6.2 6.2 0 0 1-.697-2.096 16 16 0 0 1-.172-2.34V9.588q0-.347-.034-.695a.9.9 0 0 0-.255-.568q-.219-.22-.775-.22h-.718zM21.052 23.158a2.43 2.43 0 0 0 .636-1.1q.175-.636.175-1.632V9.68q0-.995-.175-1.631a2.44 2.44 0 0 0-.636-1.103h5.675q.74 0 1.007.522.267.524.267 1.401v.394q0 .416.047.488.045.068.116.068.252 0 .495-.323.246-.325.569-.811.324-.489.833-.962.51-.475 1.262-.799.753-.324 1.843-.325.624 0 1.295.163.672.162 1.136.464.465.3.464.764 0 .207-.405.984-.406.777-.846 1.656-.486.95-.881 1.726-.394.774-.716.774a.66.66 0 0 1-.58-.31 17 17 0 0 1-.44-.707 2.25 2.25 0 0 0-.683-.707q-.45-.312-1.287-.313-.971 0-1.447.498-.474.498-.624 1.192t-.15 1.343v6.3q-.001.997.172 1.632.174.636.639 1.1zM46.528 11.579q0-1.46.66-2.42a4.6 4.6 0 0 1 1.761-1.516 9 9 0 0 1 2.41-.799 14.3 14.3 0 0 1 2.627-.245q1.53 0 2.872.245 1.343.243 2.373.649 1.031.403 1.61.89t.58.996q0 .765-.36 1.496a4 4 0 0 1-.869 1.192q-.507.462-.925.461a3.6 3.6 0 0 1-1.76-.461 9.6 9.6 0 0 1-1.622-1.146q-.787-.685-1.564-1.355a10.4 10.4 0 0 0-1.574-1.136 3.3 3.3 0 0 0-1.678-.464q-.397 0-.835.163a1.7 1.7 0 0 0-.731.51q-.29.347-.29.925 0 .556.465.927.463.37 1.263.602.798.232 1.772.415 1.527.28 3.067.685 1.542.406 2.802 1.1a5.8 5.8 0 0 1 2.028 1.819q.765 1.12.765 2.79 0 1.597-.707 2.687a5.3 5.3 0 0 1-1.794 1.724 8.1 8.1 0 0 1-2.283.913q-1.192.28-2.163.28-1.184-.001-2.538-.164a24 24 0 0 1-2.547-.437q-1.194-.278-1.946-.66-.753-.384-.752-.823 0-.372.206-1.078.209-.706.544-1.46.338-.75.731-1.272.393-.521.74-.522.534 0 1.251.464.72.465 1.68 1.066a12 12 0 0 0 2.213 1.066q1.25.461 2.848.461a4.4 4.4 0 0 0 1.552-.277q.74-.278 1.226-.764.488-.486.488-1.088 0-.418-.255-.568t-.718-.15q-.65 0-1.657.15t-2.326.15q-1.413 0-2.919-.3a9.9 9.9 0 0 1-2.802-1.008 6.1 6.1 0 0 1-2.108-1.865q-.81-1.158-.81-2.848M63.737 11.579a158 158 0 0 0-.823-2.698q-.406-1.286-1.146-1.935h8.105q-.415.975-.208 2.144.208 1.169.556 2.489.324 1.204.672 2.571.347 1.365.717 2.685.37 1.322.752 2.409.384 1.088.744 1.736.358.648.706.648.415 0 .797-.774.383-.777.626-1.991.243-1.217.243-2.513 0-1.785-.427-2.86-.429-1.078-1.054-1.68a5.5 5.5 0 0 0-1.239-.926q-.614-.324-1.044-.556-.427-.23-.427-.577 0-.556.485-1.112.489-.555 1.297-1.02a8.2 8.2 0 0 1 1.748-.74 6.5 6.5 0 0 1 1.844-.28q.924 0 1.469.43.546.428.801 1.1.255.67.255 1.435 0 .974-.43 2.57a56 56 0 0 1-1.1 3.568q-.672 1.967-1.437 4.074a196 196 0 0 0-1.435 4.1q-.557 1.342-1.088 2.535a12.3 12.3 0 0 1-1.18 2.108 4.8 4.8 0 0 1-1.53 1.423q-.88.51-2.154.51-.695 0-1.46-.21a5.3 5.3 0 0 1-1.296-.519q-.532-.314-.532-.636 0-.372.184-.915.185-.544.418-1.239a23 23 0 0 1 .566-1.612q.29-.728.638-.728.37 0 .787.22.417.221.996.452.58.231 1.367.231 1.065 0 1.724-.36.66-.356.974-.798.313-.44.313-.695 0-.323-.267-.405a2.1 2.1 0 0 0-.614-.08h-3.983a1.55 1.55 0 0 1-1.195-.52q-.473-.521-.799-1.367a16 16 0 0 1-.565-1.806 46 46 0 0 0-.498-1.819 45 45 0 0 0-.58-1.978q-.278-.87-.578-1.819-.302-.949-.695-2.27"/></svg>