<svg width="80" height="31" viewBox="0 0 80 31" fill="none" xmlns="http://www.w3.org/2000/svg">
<path d="M0 23.158C0.478986 22.7568 0.865089 22.1473 1.15831 21.3297C1.45092 20.5109 1.74414 19.6228 2.03736 18.6662C2.49995 17.0917 2.90548 15.6555 3.25395 14.359C3.6018 13.0613 3.91081 11.7987 4.18157 10.5714C4.45172 9.34465 4.71397 8.06754 4.96834 6.74004C5.2221 5.41134 5.49589 3.94424 5.78911 2.33813C5.86682 1.89139 5.86682 1.45193 5.78911 1.01975C5.71262 0.587569 5.54385 0.247653 5.28159 0H15.5412C15.2936 0.247653 15.1266 0.587569 15.041 1.01975C14.9566 1.45193 14.9536 1.89139 15.0313 2.33813C15.3239 3.94424 15.5977 5.41134 15.8521 6.74004C16.1076 8.06754 16.3705 9.34465 16.6413 10.5714C16.9114 11.7987 17.2198 13.0613 17.5665 14.359C17.9143 15.6555 18.3198 17.0917 18.783 18.6662C19.0775 19.6228 19.3713 20.5109 19.6645 21.3297C19.9571 22.1473 20.3432 22.7568 20.8228 23.158H11.2553C11.5187 22.849 11.7239 22.4709 11.8696 22.0241C12.0165 21.5761 12.0906 21.1124 12.0906 20.6329C12.0906 20.2481 12.0208 19.5306 11.8818 18.4817C11.7421 17.4316 11.557 16.2498 11.3257 14.9369H7.92118C8.32246 15.9099 8.68913 16.8756 9.0212 17.8334C9.35267 18.7901 9.51901 19.7467 9.51901 20.7033C9.51901 21.0578 9.47287 21.4286 9.3806 21.8153C9.28832 22.2007 9.12198 22.5212 8.88279 22.7768C8.64299 23.0311 8.2915 23.158 7.8289 23.158H0ZM7.48165 13.8953H11.1168C10.9013 12.7833 10.6615 11.6755 10.3981 10.5714C10.1358 9.46787 9.85412 8.46087 9.55301 7.55098C9.2519 6.63989 8.94228 5.90968 8.62539 5.36096C8.30971 4.81224 7.98978 4.53787 7.6662 4.53787C7.26432 4.53787 6.94803 4.70783 6.71673 5.04775C6.48483 5.38766 6.31909 5.83198 6.21892 6.3807C6.11815 6.92821 6.06837 7.51092 6.06837 8.12884C6.06837 9.14738 6.21043 10.1356 6.49575 11.0934C6.7823 12.05 7.11073 12.9842 7.48165 13.8953Z" fill="#B5B7C8"/>
<mask id="mask0_1_6325" style="mask-type:luminance" maskUnits="userSpaceOnUse" x="22" y="1" width="13" height="5">
<path d="M22.6357 1.00537H34.1363V5.46434H22.6357V1.00537Z" fill="white"/>
</mask>
<g mask="url(#mask0_1_6325)">
<path d="M33.8037 1.92523C33.4886 1.37954 32.8329 1.05359 32.051 1.05359C30.2704 1.05359 29.0083 2.6779 28.3885 3.70372C27.7675 2.67911 26.5059 1.06391 24.7296 1.06391C23.6023 1.06391 22.7852 1.74192 22.7852 2.66151C22.7852 4.29311 24.627 5.35716 28.3308 5.35716C32.034 5.35716 33.9961 3.989 33.9961 2.67547C33.9955 2.41386 33.9384 2.15831 33.8037 1.92523ZM24.7102 3.55015C24.0873 3.23026 23.8658 2.87092 23.8658 2.64148C23.8658 2.3477 24.2288 2.13464 24.729 2.13464C25.9347 2.13464 26.8884 3.33224 27.4069 4.16624C26.0179 4.07702 25.1849 3.79416 24.7102 3.55015ZM32.8311 2.91463C32.5173 3.45728 31.4488 4.03271 29.3793 4.16564C29.9013 3.33224 30.8599 2.13525 32.051 2.13525C32.5118 2.13525 32.7747 2.30581 32.8675 2.46606C32.941 2.59353 32.9289 2.74467 32.8311 2.91463Z" fill="#B5B7C8"/>
</g>
<path d="M36.292 6.94612C36.7546 6.94612 37.2718 6.78466 37.8437 6.46053C38.4149 6.137 38.9935 5.73214 39.5799 5.24654C40.1676 4.75973 40.7237 4.27718 41.2482 3.79947C41.7727 3.32056 42.2353 2.91933 42.6372 2.5952C43.0385 2.26985 43.3323 2.10718 43.5187 2.10718C43.8113 2.10718 43.9582 2.29292 43.9582 2.66318V6.94612H45.9494V8.10426H43.9582V17.4617C43.9582 18.0638 43.9655 18.6659 43.98 19.2681C43.9958 19.8702 44.0808 20.411 44.235 20.8899C44.3904 21.3676 44.6685 21.7373 45.0704 21.9995C45.1626 22.0614 45.2586 22.0918 45.3593 22.0918C45.4595 22.0918 45.5639 22.1076 45.6726 22.1379C45.6416 22.4165 45.4911 22.6599 45.2209 22.8687C44.9502 23.0775 44.6296 23.2354 44.2593 23.3422C43.8884 23.4502 43.5175 23.5049 43.1471 23.5049C42.0362 23.5049 41.145 23.3191 40.4736 22.9489C39.8015 22.5786 39.2916 22.0809 38.9437 21.4557C38.5953 20.8311 38.3633 20.1324 38.2468 19.3603C38.1314 18.5882 38.0744 17.8082 38.0744 17.0198V9.58775C38.0744 9.35649 38.0628 9.12522 38.0404 8.89335C38.0173 8.66209 37.9323 8.47271 37.7854 8.32521C37.6397 8.17831 37.3811 8.10426 37.0108 8.10426H36.292V6.94612Z" fill="#B5B7C8"/>
<path d="M21.0515 23.1579C21.3605 22.8489 21.5724 22.4823 21.6877 22.058C21.8043 21.6343 21.8626 21.0905 21.8626 20.4264V9.68021C21.8626 9.01677 21.8043 8.47291 21.6877 8.04862C21.5724 7.62312 21.3605 7.25589 21.0515 6.94632H26.7265C27.2201 6.94632 27.5558 7.12053 27.7342 7.46833C27.9121 7.81675 28.0014 8.28352 28.0014 8.86927V9.2626C28.0014 9.54121 28.0165 9.70389 28.0475 9.75062C28.0779 9.79615 28.1167 9.81861 28.1641 9.81861C28.3322 9.81861 28.4973 9.71117 28.6594 9.49569C28.8227 9.27899 29.0121 9.00888 29.2277 8.68475C29.4444 8.3594 29.7218 8.03891 30.0606 7.72327C30.4005 7.40642 30.8212 7.13995 31.3233 6.92447C31.8247 6.70777 32.4391 6.59912 33.1664 6.59912C33.5822 6.59912 34.0139 6.65375 34.4607 6.7618C34.9087 6.87045 35.2875 7.02523 35.5971 7.22554C35.9061 7.42645 36.061 7.68139 36.061 7.99035C36.061 8.12813 35.9256 8.45591 35.6554 8.97367C35.3847 9.49205 35.103 10.0438 34.8104 10.6295C34.4862 11.2626 34.1924 11.8381 33.9289 12.3558C33.6666 12.8724 33.4274 13.1304 33.2125 13.1304C32.9648 13.1304 32.7712 13.0272 32.6322 12.8196C32.4944 12.6108 32.3481 12.3753 32.1926 12.113C32.0384 11.8496 31.8114 11.6141 31.5103 11.4065C31.2092 11.1977 30.78 11.0933 30.2233 11.0933C29.5755 11.0933 29.0929 11.2596 28.776 11.591C28.4603 11.923 28.2521 12.3206 28.1519 12.7832C28.0511 13.2463 28.0014 13.6936 28.0014 14.1258V20.4264C28.0014 21.0905 28.0584 21.6343 28.1738 22.058C28.2903 22.4823 28.5028 22.8489 28.8124 23.1579H21.0515Z" fill="#B5B7C8"/>
<path d="M46.5281 11.5789C46.5281 10.6065 46.7478 9.79918 47.1886 9.1582C47.6287 8.51722 48.2158 8.0122 48.9491 7.64315C49.6825 7.27288 50.485 7.00641 51.358 6.84435C52.2304 6.68107 53.1064 6.59912 53.9854 6.59912C55.0053 6.59912 55.9627 6.68107 56.8581 6.84435C57.753 7.00641 58.544 7.2225 59.2306 7.49261C59.9184 7.76151 60.4551 8.05833 60.8406 8.38368C61.2273 8.70781 61.421 9.03923 61.421 9.37915C61.421 9.88902 61.3008 10.388 61.0616 10.8748C60.8218 11.3604 60.5322 11.7579 60.1922 12.0669C59.8535 12.3747 59.5451 12.5282 59.267 12.5282C58.6484 12.5282 58.0614 12.3747 57.5065 12.0669C56.951 11.7579 56.4101 11.3762 55.8844 10.9209C55.3599 10.4644 54.8384 10.0128 54.3206 9.5661C53.8039 9.11814 53.2794 8.73938 52.747 8.42981C52.214 8.12085 51.6549 7.96607 51.069 7.96607C50.805 7.96607 50.5263 8.0207 50.2337 8.12874C49.9405 8.23739 49.697 8.40735 49.5028 8.63862C49.3097 8.87049 49.2138 9.17884 49.2138 9.56367C49.2138 9.93454 49.368 10.2435 49.6776 10.4912C49.9866 10.7376 50.4073 10.9379 50.9403 11.0933C51.4727 11.2475 52.0634 11.3859 52.713 11.5085C53.7311 11.6948 54.7534 11.9231 55.78 12.1932C56.8078 12.4639 57.7421 12.8305 58.5822 13.293C59.4237 13.7562 60.0999 14.3626 60.6099 15.1116C61.1198 15.8594 61.3748 16.7893 61.3748 17.9013C61.3748 18.9666 61.1393 19.8625 60.6682 20.5891C60.1971 21.3144 59.5985 21.8893 58.8736 22.3129C58.1482 22.7372 57.3875 23.0413 56.591 23.2259C55.7958 23.4116 55.0745 23.5051 54.4274 23.5051C53.6388 23.5051 52.7931 23.4504 51.8898 23.3424C50.9865 23.2356 50.1372 23.0899 49.3425 22.9054C48.5472 22.7196 47.8989 22.4993 47.3974 22.245C46.8954 21.9894 46.6446 21.715 46.6446 21.4219C46.6446 21.1742 46.7132 20.8149 46.851 20.3439C46.9901 19.8728 47.1716 19.3866 47.395 18.8846C47.6196 18.3833 47.8637 17.959 48.1259 17.6124C48.3882 17.2646 48.6346 17.0904 48.8665 17.0904C49.2223 17.0904 49.6394 17.2452 50.1171 17.5541C50.5961 17.8637 51.1565 18.2188 51.7975 18.62C52.4386 19.0218 53.1756 19.3769 54.0097 19.6859C54.8432 19.9936 55.7927 20.1472 56.8581 20.1472C57.3984 20.1472 57.9157 20.0549 58.4098 19.8704C58.9034 19.6847 59.312 19.4297 59.6361 19.1056C59.9615 18.7821 60.1242 18.4197 60.1242 18.0179C60.1242 17.7399 60.0392 17.5505 59.8693 17.4497C59.6993 17.3496 59.4595 17.2992 59.1505 17.2992C58.7182 17.2992 58.1658 17.3496 57.4944 17.4497C56.8223 17.5505 56.0471 17.6002 55.168 17.6002C54.2258 17.6002 53.2527 17.5001 52.2492 17.2992C51.2451 17.0989 50.3114 16.7626 49.4469 16.2916C48.5824 15.8205 47.8794 15.199 47.3391 14.4269C46.7982 13.6548 46.5281 12.7055 46.5281 11.5789Z" fill="#B5B7C8"/>
<path d="M63.7369 11.5789C63.4583 10.6368 63.1839 9.73788 62.9137 8.88141C62.643 8.02373 62.2611 7.3785 61.7676 6.94632H69.8733C69.5965 7.5958 69.5267 8.31023 69.6645 9.09022C69.8035 9.86899 69.9887 10.6987 70.2206 11.5789C70.4373 12.3819 70.6613 13.239 70.8932 14.1501C71.1245 15.06 71.3631 15.9553 71.6096 16.8354C71.8572 17.7162 72.108 18.5192 72.3623 19.244C72.6179 19.9693 72.8656 20.5478 73.1054 20.98C73.3446 21.4122 73.5801 21.6283 73.812 21.6283C74.0889 21.6283 74.3542 21.3703 74.6085 20.8537C74.8641 20.336 75.0729 19.6725 75.235 18.8628C75.3965 18.0519 75.4779 17.2142 75.4779 16.3498C75.4779 15.1601 75.3352 14.2072 75.0505 13.4897C74.7652 12.771 74.4143 12.2114 73.9966 11.8095C73.5801 11.4083 73.1673 11.1 72.7581 10.8845C72.3484 10.6678 72.0005 10.4827 71.714 10.3285C71.4286 10.1749 71.2866 9.9825 71.2866 9.75063C71.2866 9.38036 71.4481 9.00949 71.7723 8.63862C72.0976 8.26835 72.5299 7.92843 73.069 7.61887C73.6093 7.30991 74.1921 7.06286 74.8174 6.87834C75.4439 6.6926 76.0582 6.59912 76.6605 6.59912C77.2772 6.59912 77.7666 6.74237 78.1296 7.02887C78.4938 7.31416 78.761 7.68078 78.9309 8.12874C79.1009 8.57549 79.1859 9.0538 79.1859 9.56367C79.1859 10.2132 79.0426 11.0702 78.7561 12.1349C78.4708 13.2002 78.1041 14.3893 77.6561 15.7016C77.2074 17.0127 76.7284 18.3711 76.2185 19.7757C75.7098 21.1809 75.2314 22.5478 74.7834 23.8765C74.4124 24.7713 74.05 25.6162 73.6955 26.4113C73.3409 27.2059 72.9476 27.9082 72.5153 28.5188C72.0831 29.1289 71.5731 29.6029 70.9855 29.9416C70.399 30.2815 69.6815 30.4515 68.8316 30.4515C68.3684 30.4515 67.8821 30.3817 67.3721 30.2427C66.8622 30.1049 66.4299 29.9319 66.0754 29.7231C65.7209 29.5143 65.5436 29.3018 65.5436 29.087C65.5436 28.8393 65.6049 28.534 65.7282 28.1716C65.8508 27.8086 65.9904 27.3959 66.1458 26.9334C66.3304 26.3458 66.5186 25.808 66.7116 25.3212C66.9059 24.8356 67.1184 24.5928 67.3503 24.5928C67.5961 24.5928 67.8584 24.6662 68.1371 24.8137C68.4151 24.9606 68.7472 25.1112 69.1327 25.2653C69.5194 25.4189 69.9753 25.496 70.4998 25.496C71.2101 25.496 71.785 25.3758 72.2239 25.1367C72.6641 24.8987 72.9888 24.6323 73.1977 24.3379C73.4065 24.0447 73.5109 23.8134 73.5109 23.6435C73.5109 23.428 73.4217 23.2926 73.2438 23.238C73.0653 23.1846 72.8607 23.1579 72.6294 23.1579H68.647C68.1674 23.1579 67.7692 22.9849 67.4523 22.6383C67.1366 22.2905 66.8701 21.8346 66.6534 21.2713C66.4378 20.708 66.249 20.1059 66.0876 19.4649C65.9255 18.8239 65.7597 18.2182 65.5898 17.6464C65.3888 16.9052 65.1951 16.2454 65.0094 15.6676C64.8248 15.0885 64.6318 14.4821 64.4314 13.849C64.2305 13.2166 63.9992 12.4596 63.7369 11.5789Z" fill="#B5B7C8"/>
</svg>
