<svg xmlns="http://www.w3.org/2000/svg" xmlns:xlink="http://www.w3.org/1999/xlink" viewBox="0 0 500 500" width="500" height="500" preserveAspectRatio="xMidYMid meet"><defs><clipPath id="__lottie_element_17"><rect width="500" height="500" x="0" y="0"></rect></clipPath></defs><g clip-path="url(#__lottie_element_17)"><g transform="matrix(0.9975680112838745,0.06970010697841644,-0.06970010697841644,0.9975680112838745,259.6180114746094,263.5947265625)" opacity="1" style="display: block;"><g opacity="1" transform="matrix(1,0,0,1,0,0)"><path stroke-linecap="round" stroke-linejoin="round" fill-opacity="0" stroke="rgb(255,255,255)" stroke-opacity="1" stroke-width="16" d=" M-188.6479949951172,144.66799926757812 C-162.6280059814453,133.37399291992188 -143.05499267578125,109.8740005493164 -137.03399658203125,81.3270034790039 C-137.03399658203125,81.3270034790039 -137.05099487304688,81.33599853515625 -137.05099487304688,81.33599853515625 C-149.80499267578125,57.058998107910156 -157.0279998779297,29.378999710083008 -157.0279998779297,0 C-157.0279998779297,-96.16400146484375 -79.6449966430664,-174.12100219726562 15.810999870300293,-174.12100219726562 C111.26699829101562,-174.12100219726562 188.64999389648438,-96.16400146484375 188.64999389648438,0 C188.64999389648438,96.16400146484375 111.26699829101562,174.12100219726562 15.810999870300293,174.12100219726562 C-20.42300033569336,174.12100219726562 -54.053001403808594,162.88800048828125 -81.83499908447266,143.6909942626953 C-81.83499908447266,143.6909942626953 -81.83499908447266,143.69000244140625 -81.83499908447266,143.69000244140625 C-94.75299835205078,159.0989990234375 -114.072998046875,168.88499450683594 -135.66099548339844,168.88499450683594 C-156.78799438476562,168.88499450683594 -175.74200439453125,159.51300048828125 -188.64999389648438,144.6699981689453"></path></g></g><g transform="matrix(0.9975680112838745,0.06970010697841644,-0.06970010697841644,0.9975680112838745,30.042861938476562,-37.454742431640625)" opacity="1" style="display: block;"><g opacity="1" transform="matrix(1,0,0,1,191.3730010986328,250)"><path stroke-linecap="round" stroke-linejoin="miter" fill-opacity="0" stroke-miterlimit="10" stroke="rgb(26,208,121)" stroke-opacity="1" stroke-width="16" d=" M-9.743000030517578,0 C-9.743000030517578,0 9.743000030517578,0 9.743000030517578,0"></path></g></g><g transform="matrix(0.9975680112838745,0.06970010697841644,-0.06970010697841644,0.9975680112838745,99.83551025390625,28.931045532226562)" opacity="1" style="display: block;"><g opacity="1" transform="matrix(1,0,0,1,191.3730010986328,250)"><path stroke-linecap="round" stroke-linejoin="miter" fill-opacity="0" stroke-miterlimit="10" stroke="rgb(26,208,121)" stroke-opacity="1" stroke-width="16" d=" M-9.743000030517578,0 C-9.743000030517578,0 9.743000030517578,0 9.743000030517578,0"></path></g></g><g transform="matrix(0.9975680112838745,0.06970010697841644,-0.06970010697841644,0.9975680112838745,174.3727569580078,34.58406066894531)" opacity="1" style="display: block;"><g opacity="1" transform="matrix(1,0,0,1,191.3730010986328,250)"><path stroke-linecap="round" stroke-linejoin="miter" fill-opacity="0" stroke-miterlimit="10" stroke="rgb(26,208,121)" stroke-opacity="1" stroke-width="16" d=" M-9.743000030517578,0 C-9.743000030517578,0 9.743000030517578,0 9.743000030517578,0"></path></g></g></g></svg>
