<svg xmlns="http://www.w3.org/2000/svg" xmlns:xlink="http://www.w3.org/1999/xlink" viewBox="0 0 500 500" width="500" height="500" preserveAspectRatio="xMidYMid meet"><defs><clipPath id="__lottie_element_5"><rect width="500" height="500" x="0" y="0"></rect></clipPath></defs><g clip-path="url(#__lottie_element_5)"><g transform="matrix(1,0,0,1,78.66200256347656,108.98501586914062)" opacity="1" style="display: block;"><g opacity="1" transform="matrix(1,0,0,1,315.60699462890625,150.66299438476562)"><path stroke-linecap="round" stroke-linejoin="round" fill-opacity="0" stroke="rgb(255,255,255)" stroke-opacity="1" stroke-width="16" d=" M-30.621000289916992,110.66300201416016 C-30.621000289916992,110.66300201416016 -30.621000289916992,-103.05500030517578 -30.621000289916992,-103.05500030517578 C-30.621000289916992,-107.25700378417969 -27.21500015258789,-110.66300201416016 -23.01300048828125,-110.66300201416016 C-23.01300048828125,-110.66300201416016 23.013999938964844,-110.66300201416016 23.013999938964844,-110.66300201416016 C27.21500015258789,-110.66300201416016 30.621000289916992,-107.25700378417969 30.621000289916992,-103.05500030517578 C30.621000289916992,-103.05500030517578 30.621000289916992,110.66300201416016 30.621000289916992,110.66300201416016"></path></g><g opacity="1" transform="matrix(1,0,0,1,254.36399841308594,170.06700134277344)"><path stroke-linecap="round" stroke-linejoin="round" fill-opacity="0" stroke="rgb(255,255,255)" stroke-opacity="1" stroke-width="16" d=" M-30.621000289916992,91.25800323486328 C-30.621000289916992,91.25800323486328 -30.621000289916992,-83.6510009765625 -30.621000289916992,-83.6510009765625 C-30.621000289916992,-87.85199737548828 -27.21500015258789,-91.25800323486328 -23.01300048828125,-91.25800323486328 C-23.01300048828125,-91.25800323486328 23.013999938964844,-91.25800323486328 23.013999938964844,-91.25800323486328 C27.21500015258789,-91.25800323486328 30.621000289916992,-87.85199737548828 30.621000289916992,-83.6510009765625 C30.621000289916992,-83.6510009765625 30.621000289916992,91.25800323486328 30.621000289916992,91.25800323486328"></path></g><g opacity="1" transform="matrix(1,0,0,1,193.11399841308594,189.4709930419922)"><path stroke-linecap="round" stroke-linejoin="round" fill-opacity="0" stroke="rgb(255,255,255)" stroke-opacity="1" stroke-width="16" d=" M-30.621000289916992,71.85399627685547 C-30.621000289916992,71.85399627685547 -30.621000289916992,-64.24600219726562 -30.621000289916992,-64.24600219726562 C-30.621000289916992,-68.447998046875 -27.21500015258789,-71.85399627685547 -23.01300048828125,-71.85399627685547 C-23.01300048828125,-71.85399627685547 23.013999938964844,-71.85399627685547 23.013999938964844,-71.85399627685547 C27.21500015258789,-71.85399627685547 30.621000289916992,-68.447998046875 30.621000289916992,-64.24600219726562 C30.621000289916992,-64.24600219726562 30.621000289916992,71.85399627685547 30.621000289916992,71.85399627685547"></path></g><g opacity="1" transform="matrix(1,0,0,1,131.86300659179688,208.70700073242188)"><path stroke-linecap="round" stroke-linejoin="round" fill-opacity="0" stroke="rgb(255,255,255)" stroke-opacity="1" stroke-width="16" d=" M-30.621000289916992,52.279998779296875 C-30.621000289916992,52.279998779296875 -30.621000289916992,-44.67399978637695 -30.621000289916992,-44.67399978637695 C-30.621000289916992,-48.875 -27.21500015258789,-52.28099822998047 -23.01300048828125,-52.28099822998047 C-23.01300048828125,-52.28099822998047 23.013999938964844,-52.28099822998047 23.013999938964844,-52.28099822998047 C27.21500015258789,-52.28099822998047 30.621000289916992,-48.875 30.621000289916992,-44.67399978637695 C30.621000289916992,-44.67399978637695 30.621000289916992,52.279998779296875 30.621000289916992,52.279998779296875"></path></g><g opacity="1" transform="matrix(1,0,0,1,70.62100219726562,228.11099243164062)"><path stroke-linecap="round" stroke-linejoin="round" fill-opacity="0" stroke="rgb(255,255,255)" stroke-opacity="1" stroke-width="16" d=" M-30.621000289916992,32.875999450683594 C-30.621000289916992,32.875999450683594 -30.621000289916992,-25.26799964904785 -30.621000289916992,-25.26799964904785 C-30.621000289916992,-29.469999313354492 -27.21500015258789,-32.875999450683594 -23.01300048828125,-32.875999450683594 C-23.01300048828125,-32.875999450683594 23.013999938964844,-32.875999450683594 23.013999938964844,-32.875999450683594 C27.21500015258789,-32.875999450683594 30.621000289916992,-29.469999313354492 30.621000289916992,-25.26799964904785 C30.621000289916992,-25.26799964904785 30.621000289916992,32.875999450683594 30.621000289916992,32.875999450683594"></path></g><g opacity="1" transform="matrix(1,0,0,1,0,0)"><path stroke-linecap="round" stroke-linejoin="round" fill-opacity="0" stroke="rgb(26,208,121)" stroke-opacity="1" stroke-width="16" d=" M21.540000915527344,262.7250061035156 C21.540000915527344,262.7250061035156 364.5400085449219,262.7250061035156 364.5400085449219,262.7250061035156"></path></g></g><g transform="matrix(0.5877852439880371,-0.80901700258255,0.80901700258255,0.5877852439880371,177.64707946777344,-134.6150665283203)" opacity="1" style="display: block;"><g opacity="1" transform="matrix(1,0,0,1,320.7070007324219,56.159000396728516)"><path stroke-linecap="round" stroke-linejoin="round" fill-opacity="0" stroke="rgb(26,208,121)" stroke-opacity="1" stroke-width="16" d=" M-18.698999404907227,-11.04800033569336 C-18.698999404907227,-11.04800033569336 13.592000007629395,-16.159000396728516 13.592000007629395,-16.159000396728516 C13.592000007629395,-16.159000396728516 18.698999404907227,16.159000396728516 18.698999404907227,16.159000396728516"></path></g><g opacity="1" transform="matrix(1,0,0,1,187.0330047607422,143.23399353027344)"><path stroke-linecap="round" stroke-linejoin="round" fill-opacity="0" stroke="rgb(26,208,121)" stroke-opacity="1" stroke-width="16" d=" M147.0330047607422,-102.94100189208984 C79.4489974975586,-4.1620001792907715 -27.78700065612793,72.66200256347656 -147.0330047607422,102.94100189208984"></path></g></g><g transform="matrix(1,0,0,1,60.20199966430664,-11.289993286132812)" opacity="1" style="display: block;"><g opacity="1" transform="matrix(1,0,0,1,320.7070007324219,56.159000396728516)"><path stroke-linecap="round" stroke-linejoin="round" fill-opacity="0" stroke="rgb(26,208,121)" stroke-opacity="1" stroke-width="16" d=" M-18.698999404907227,-11.04800033569336 C-18.698999404907227,-11.04800033569336 13.592000007629395,-16.159000396728516 13.592000007629395,-16.159000396728516 C13.592000007629395,-16.159000396728516 18.698999404907227,16.159000396728516 18.698999404907227,16.159000396728516"></path></g><g opacity="1" transform="matrix(1,0,0,1,187.0330047607422,143.23399353027344)"><path stroke-linecap="round" stroke-linejoin="round" fill-opacity="0" stroke="rgb(26,208,121)" stroke-opacity="1" stroke-width="16" d=" M147.0330047607422,-102.94100189208984 C79.4489974975586,-4.1620001792907715 -27.78700065612793,72.66200256347656 -147.0330047607422,102.94100189208984"></path></g></g></g></svg>
