<svg xmlns="http://www.w3.org/2000/svg" xmlns:xlink="http://www.w3.org/1999/xlink" viewBox="0 0 500 500" width="500" height="500" preserveAspectRatio="xMidYMid meet"><defs><clipPath id="__lottie_element_56"><rect width="500" height="500" x="0" y="0"></rect></clipPath><g id="__lottie_element_65"><g transform="matrix(0.9426558017730713,-0.33376646041870117,0.33376646041870117,0.9426558017730713,250.190185546875,255.27516174316406)" opacity="1" style="display: block;"><g opacity="1" transform="matrix(1,0,0,1,0,0)"><path fill="rgb(147,177,244)" fill-opacity="1" d=" M-31.5,-62 C-31.5,-62 -43.5,-63.5 -57,-54.5 C-70.5,-45.5 -60.5,-28 -60.5,-28 C-60.5,-28 36.5,64.5 36.5,64.5 C36.5,64.5 43,68.5 60,54 C71.23400115966797,44.417999267578125 60,28.5 60,28.5 C60,28.5 -31.5,-62 -31.5,-62z"></path></g></g></g><filter id="__lottie_element_71" filterUnits="objectBoundingBox" x="0%" y="0%" width="100%" height="100%"><feComponentTransfer in="SourceGraphic"><feFuncA type="table" tableValues="1.0 0.0"></feFuncA></feComponentTransfer></filter><mask id="__lottie_element_65_2" mask-type="alpha"><g filter="url(#__lottie_element_71)"><rect width="500" height="500" x="0" y="0" fill="#ffffff" opacity="0"></rect><use xlink:href="#__lottie_element_65"></use></g></mask></defs><g clip-path="url(#__lottie_element_56)"><g transform="matrix(0.9426558017730713,-0.33376646041870117,0.33376646041870117,0.9426558017730713,51.923248291015625,160.6986083984375)" opacity="1" style="display: block;"><g opacity="1" transform="matrix(1,0,0,1,0,0)"><g opacity="1" transform="matrix(1,0,0,1,256.47900390625,54.20199966430664)"><path stroke-linecap="round" stroke-linejoin="round" fill-opacity="0" stroke="rgb(26,208,121)" stroke-opacity="1" stroke-width="16" d=" M-18.23699951171875,18.236000061035156 C-18.23699951171875,18.236000061035156 -4.294000148773193,4.294000148773193 6.349999904632568,-6.349999904632568"></path></g><g opacity="1" transform="matrix(1,0,0,1,284.4460144042969,106.052001953125)"><path stroke-linecap="round" stroke-linejoin="round" fill-opacity="0" stroke="rgb(26,208,121)" stroke-opacity="1" stroke-width="16" d=" M-18.23699951171875,3.9049999713897705 C-18.23699951171875,3.9049999713897705 -4.294000148773193,0.9200000166893005 6.349999904632568,-1.3600000143051147"></path></g><g opacity="1" transform="matrix(1,0,0,1,204.62600708007812,26.23699951171875)"><path stroke-linecap="round" stroke-linejoin="round" fill-opacity="0" stroke="rgb(26,208,121)" stroke-opacity="1" stroke-width="16" d=" M-3.9059998989105225,18.236000061035156 C-3.9059998989105225,18.236000061035156 -0.9200000166893005,4.294000148773193 1.3600000143051147,-6.349999904632568"></path></g><g opacity="1" transform="matrix(1,0,0,1,54.20399856567383,256.4649963378906)"><path stroke-linecap="round" stroke-linejoin="round" fill-opacity="0" stroke="rgb(26,208,121)" stroke-opacity="1" stroke-width="16" d=" M18.238000869750977,-18.236000061035156 C18.238000869750977,-18.236000061035156 4.295000076293945,-4.294000148773193 -6.35099983215332,6.349999904632568"></path></g><g opacity="1" transform="matrix(1,0,0,1,26.238000869750977,204.61500549316406)"><path stroke-linecap="round" stroke-linejoin="round" fill-opacity="0" stroke="rgb(26,208,121)" stroke-opacity="1" stroke-width="16" d=" M18.238000869750977,-3.9059998989105225 C18.238000869750977,-3.9059998989105225 4.295000076293945,-0.9200000166893005 -6.35099983215332,1.3600000143051147"></path></g><g opacity="1" transform="matrix(1,0,0,1,106.05699920654297,284.42999267578125)"><path stroke-linecap="round" stroke-linejoin="round" fill-opacity="0" stroke="rgb(26,208,121)" stroke-opacity="1" stroke-width="16" d=" M3.9059998989105225,-18.236000061035156 C3.9059998989105225,-18.236000061035156 0.9200000166893005,-4.294000148773193 -1.3600000143051147,6.349999904632568"></path></g></g><g opacity="1" transform="matrix(1,0,0,1,0,0)"><g opacity="1" transform="matrix(1,0,0,1,256.47900390625,54.20199966430664)"><path stroke-linecap="round" stroke-linejoin="round" fill-opacity="0" stroke="rgb(26,208,121)" stroke-opacity="1" stroke-width="16" d="M0 0"></path></g><g opacity="1" transform="matrix(1,0,0,1,284.4460144042969,106.052001953125)"><path stroke-linecap="round" stroke-linejoin="round" fill-opacity="0" stroke="rgb(26,208,121)" stroke-opacity="1" stroke-width="16" d="M0 0"></path></g><g opacity="1" transform="matrix(1,0,0,1,204.62600708007812,26.23699951171875)"><path stroke-linecap="round" stroke-linejoin="round" fill-opacity="0" stroke="rgb(26,208,121)" stroke-opacity="1" stroke-width="16" d="M0 0"></path></g><g opacity="1" transform="matrix(1,0,0,1,54.20399856567383,256.4649963378906)"><path stroke-linecap="round" stroke-linejoin="round" fill-opacity="0" stroke="rgb(26,208,121)" stroke-opacity="1" stroke-width="16" d="M0 0"></path></g><g opacity="1" transform="matrix(1,0,0,1,26.238000869750977,204.61500549316406)"><path stroke-linecap="round" stroke-linejoin="round" fill-opacity="0" stroke="rgb(26,208,121)" stroke-opacity="1" stroke-width="16" d="M0 0"></path></g><g opacity="1" transform="matrix(1,0,0,1,106.05699920654297,284.42999267578125)"><path stroke-linecap="round" stroke-linejoin="round" fill-opacity="0" stroke="rgb(26,208,121)" stroke-opacity="1" stroke-width="16" d="M0 0"></path></g></g><g opacity="1" transform="matrix(1,0,0,1,0,0)"><g opacity="1" transform="matrix(1,0,0,1,256.47900390625,54.20199966430664)"><path stroke-linecap="round" stroke-linejoin="round" fill-opacity="0" stroke="rgb(26,208,121)" stroke-opacity="1" stroke-width="16" d="M0 0"></path></g><g opacity="1" transform="matrix(1,0,0,1,284.4460144042969,106.052001953125)"><path stroke-linecap="round" stroke-linejoin="round" fill-opacity="0" stroke="rgb(26,208,121)" stroke-opacity="1" stroke-width="16" d="M0 0"></path></g><g opacity="1" transform="matrix(1,0,0,1,204.62600708007812,26.23699951171875)"><path stroke-linecap="round" stroke-linejoin="round" fill-opacity="0" stroke="rgb(26,208,121)" stroke-opacity="1" stroke-width="16" d="M0 0"></path></g><g opacity="1" transform="matrix(1,0,0,1,54.20399856567383,256.4649963378906)"><path stroke-linecap="round" stroke-linejoin="round" fill-opacity="0" stroke="rgb(26,208,121)" stroke-opacity="1" stroke-width="16" d="M0 0"></path></g><g opacity="1" transform="matrix(1,0,0,1,26.238000869750977,204.61500549316406)"><path stroke-linecap="round" stroke-linejoin="round" fill-opacity="0" stroke="rgb(26,208,121)" stroke-opacity="1" stroke-width="16" d="M0 0"></path></g><g opacity="1" transform="matrix(1,0,0,1,106.05699920654297,284.42999267578125)"><path stroke-linecap="round" stroke-linejoin="round" fill-opacity="0" stroke="rgb(26,208,121)" stroke-opacity="1" stroke-width="16" d="M0 0"></path></g></g></g><g mask="url(#__lottie_element_65_2)" style="display: block;"><g transform="matrix(0.9426558017730713,-0.33376646041870117,0.33376646041870117,0.9426558017730713,-19.774673461914062,126.49668884277344)" opacity="1"><g opacity="1" transform="matrix(1,0,0,1,0.942657470703125,0.942657470703125)"><g opacity="1" transform="matrix(1,0,0,1,135.99000549316406,132.656005859375)"><path stroke-linecap="round" stroke-linejoin="round" fill-opacity="0" stroke="rgb(255,255,255)" stroke-opacity="1" stroke-width="16" d=" M69.31800079345703,-24.094999313354492 C95.98999786376953,2.5769999027252197 95.98999786376953,45.965999603271484 69.31800079345703,72.63800048828125 C56.40599822998047,85.55000305175781 39.22999954223633,92.65499877929688 20.951000213623047,92.64800262451172 C2.671999931335449,92.65499877929688 -14.503000259399414,85.55000305175781 -27.415000915527344,72.63800048828125 C-27.415000915527344,72.63800048828125 -75.96399688720703,24.08799934387207 -75.96399688720703,24.08799934387207 C-88.8759994506836,11.190999984741211 -95.98899841308594,-5.992000102996826 -95.98200225830078,-24.270999908447266 C-95.98200225830078,-42.54199981689453 -88.8759994506836,-59.71799850463867 -75.96399688720703,-72.62999725341797 C-63.051998138427734,-85.54199981689453 -45.87699890136719,-92.64800262451172 -27.597999572753906,-92.65499877929688 C-9.319000244140625,-92.64800262451172 7.855999946594238,-85.54199981689453 20.76799964904785,-72.62999725341797 C20.76799964904785,-72.62999725341797 69.31800079345703,-24.094999313354492 69.31800079345703,-24.094999313354492z"></path></g><g opacity="1" transform="matrix(1,0,0,1,132.66900634765625,132.656005859375)"><path stroke-linecap="round" stroke-linejoin="round" fill-opacity="0" stroke="rgb(255,255,255)" stroke-opacity="1" stroke-width="16" d=" M43.979000091552734,4.564000129699707 C54.84700012207031,15.432000160217285 54.84700012207031,33.11000061035156 43.979000091552734,43.97800064086914 C33.11800003051758,54.8390007019043 15.432000160217285,54.832000732421875 4.571000099182129,43.97100067138672 C4.571000099182129,43.97100067138672 -43.986000061035156,-4.572000026702881 -43.986000061035156,-4.572000026702881 C-54.84700012207031,-15.432999610900879 -54.84700012207031,-33.11000061035156 -43.986000061035156,-43.97100067138672 C-33.11800003051758,-54.8390007019043 -15.4399995803833,-54.8390007019043 -4.572000026702881,-43.97100067138672 C-4.572000026702881,-43.97100067138672 43.979000091552734,4.564000129699707 43.979000091552734,4.564000129699707z"></path></g></g><g opacity="1" transform="matrix(1,0,0,1,-0.942657470703125,-0.942657470703125)"><g opacity="1" transform="matrix(1,0,0,1,293.6830139160156,290.3489990234375)"><path stroke-linecap="round" stroke-linejoin="round" fill-opacity="0" stroke="rgb(255,255,255)" stroke-opacity="1" stroke-width="16" d=" M69.31800079345703,-24.094999313354492 C95.98999786376953,2.5769999027252197 95.98999786376953,45.965999603271484 69.31800079345703,72.63800048828125 C56.40599822998047,85.55000305175781 39.22999954223633,92.65499877929688 20.951000213623047,92.64800262451172 C2.671999931335449,92.65499877929688 -14.503000259399414,85.55000305175781 -27.415000915527344,72.63800048828125 C-27.415000915527344,72.63800048828125 -75.96499633789062,24.08799934387207 -75.96499633789062,24.08799934387207 C-88.87699890136719,11.190999984741211 -95.98999786376953,-5.992000102996826 -95.98300170898438,-24.270999908447266 C-95.98300170898438,-42.54199981689453 -88.87699890136719,-59.71799850463867 -75.96499633789062,-72.62999725341797 C-63.053001403808594,-85.54199981689453 -45.87799835205078,-92.64800262451172 -27.599000930786133,-92.65499877929688 C-9.319999694824219,-92.64800262451172 7.855000019073486,-85.54199981689453 20.767000198364258,-72.62999725341797 C20.767000198364258,-72.62999725341797 69.31800079345703,-24.094999313354492 69.31800079345703,-24.094999313354492z"></path></g><g opacity="1" transform="matrix(1,0,0,1,290.36199951171875,290.3489990234375)"><path stroke-linecap="round" stroke-linejoin="round" fill-opacity="0" stroke="rgb(255,255,255)" stroke-opacity="1" stroke-width="16" d=" M43.979000091552734,4.564000129699707 C54.84700012207031,15.432000160217285 54.84700012207031,33.11000061035156 43.979000091552734,43.97800064086914 C33.11800003051758,54.8390007019043 15.432000160217285,54.832000732421875 4.571000099182129,43.97100067138672 C4.571000099182129,43.97100067138672 -43.986000061035156,-4.572000026702881 -43.986000061035156,-4.572000026702881 C-54.84700012207031,-15.432999610900879 -54.84700012207031,-33.11000061035156 -43.986000061035156,-43.97100067138672 C-33.11800003051758,-54.8390007019043 -15.4399995803833,-54.8390007019043 -4.572000026702881,-43.97100067138672 C-4.572000026702881,-43.97100067138672 43.979000091552734,4.564000129699707 43.979000091552734,4.564000129699707z"></path></g></g></g></g><g transform="matrix(0.9426558017730713,-0.33376646041870117,0.33376646041870117,0.9426558017730713,-19.774673461914062,126.49668884277344)" opacity="1" style="display: block;"><g opacity="1" transform="matrix(1,0,0,1,210.41600036621094,211.5050048828125)"><path stroke-linecap="round" stroke-linejoin="round" fill-opacity="0" stroke="rgb(255,255,255)" stroke-opacity="1" stroke-width="16" d=" M-24.010000228881836,-57.3849983215332 C-24.010000228881836,-57.3849983215332 58.487998962402344,25.113000869750977 58.487998962402344,25.113000869750977 C62.702999114990234,29.327999114990234 65.02899932861328,34.94900131225586 65.02899932861328,40.94499969482422 C65.02899932861328,46.94200134277344 62.702999114990234,52.57699966430664 58.487998962402344,56.79199981689453 C58.487998962402344,56.79199981689453 57.89400100708008,57.38600158691406 57.89400100708008,57.38600158691406 C53.67300033569336,61.606998443603516 48.04399871826172,63.92599868774414 42.04800033569336,63.92599868774414 C36.051998138427734,63.92599868774414 30.42300033569336,61.606998443603516 26.20199966430664,57.38600158691406 C26.20199966430664,57.38600158691406 -56.28900146484375,-25.106000900268555 -56.28900146484375,-25.106000900268555 C-65.02899932861328,-33.845001220703125 -65.02899932861328,-48.05799865722656 -56.29600143432617,-56.79100036621094 C-56.29600143432617,-56.79100036621094 -55.70199966430664,-57.3849983215332 -55.70199966430664,-57.3849983215332 C-51.48099899291992,-61.60599899291992 -45.85300064086914,-63.92599868774414 -39.85599899291992,-63.92599868774414 C-33.86000061035156,-63.92599868774414 -28.231000900268555,-61.60599899291992 -24.010000228881836,-57.3849983215332z"></path></g></g></g></svg>
