<svg xmlns="http://www.w3.org/2000/svg" xmlns:xlink="http://www.w3.org/1999/xlink" viewBox="0 0 500 500" width="500" height="500" preserveAspectRatio="xMidYMid meet" style="width: 100%; height: 100%; transform: translate3d(0px, 0px, 0px); content-visibility: visible;"><defs><clipPath id="__lottie_element_32"><rect width="500" height="500" x="0" y="0"></rect></clipPath><clipPath id="__lottie_element_39"><path d="M0,0 L500,0 L500,500 L0,500z"></path></clipPath><g id="__lottie_element_42"><g transform="matrix(1,0,0,1,250,250)" opacity="1" ><path fill="rgb(255,0,0)" fill-opacity="1" d=" M68.64,137.9 C68.64,137.9 142.33,88.2 142.33,88.2 M52.01,83.73 C52.01,83.73 128.16,196.62 128.16,196.62 C136.79,209.41 154.15,212.79 166.94,204.16 C179.73,195.54 183.1,178.17 174.48,165.39 C174.48,165.39 98.33,52.49 98.33,52.49"></path><g opacity="1" transform="matrix(0.1908089965581894,-0.9816271662712097,0.9816271662712097,0.1908089965581894,28.08818817138672,-7.349941253662109)"><path stroke-linecap="round" stroke-linejoin="round" fill-opacity="0" stroke="rgb(255,255,255)" stroke-opacity="1" stroke-width="16" d=" M-134.843994140625,67.52300262451172 C-134.843994140625,67.52300262451172 -71.99600219726562,130.37100219726562 -71.99600219726562,130.37100219726562 M-84.83799743652344,40.86199951171875 C-84.83799743652344,40.86199951171875 -181.1320037841797,137.156005859375 -181.1320037841797,137.156005859375 C-192.0399932861328,148.06399536132812 -192.03900146484375,165.75100708007812 -181.13099670410156,176.65899658203125 C-170.22300720214844,187.56700134277344 -152.53700256347656,187.56700134277344 -141.62899780273438,176.65899658203125 C-141.62899780273438,176.65899658203125 -45.334999084472656,80.36499786376953 -45.334999084472656,80.36499786376953"></path></g></g></g><filter id="__lottie_element_45" filterUnits="objectBoundingBox" x="0%" y="0%" width="100%" height="100%"><feComponentTransfer in="SourceGraphic"><feFuncA type="table" tableValues="1.0 0.0"></feFuncA></feComponentTransfer></filter><mask id="__lottie_element_42_2" mask-type="alpha"><g filter="url(#__lottie_element_45)"><rect width="500" height="500" x="0" y="0" fill="#ffffff" opacity="0"></rect><use xlink:href="#__lottie_element_42"></use></g></mask><filter id="__lottie_element_48"><feColorMatrix type="matrix" color-interpolation-filters="linearRGB" values="0.3333 0.3333 0.3333 0 0 0.3333 0.3333 0.3333 0 0 0.3333 0.3333 0.3333 0 0 0 0 0 1 0" result="filter_result_0_tint_1"></feColorMatrix><feColorMatrix type="matrix" color-interpolation-filters="sRGB" values="0 0 0 0 0.10196078568696976 0 0 0 0 0.8156862854957581 0 0 0 0 0.4745098054409027 0 0 0 1 0" result="filter_result_0_tint_2"></feColorMatrix><feMerge result="filter_result_0"><feMergeNode in="SourceGraphic"></feMergeNode><feMergeNode in="filter_result_0_tint_1"></feMergeNode><feMergeNode in="filter_result_0_tint_2"></feMergeNode></feMerge></filter><g id="__lottie_element_49"><g transform="matrix(1,0,0,1,250,250)" opacity="1" style="display: block;"><path fill="rgb(255,255,255)" fill-opacity="1" d=" M208.64,11.26 C208.64,24.15 198.19,34.59 185.31,34.59 C172.43,34.59 161.98,24.15 161.98,11.26 C161.98,-1.62 172.43,-12.07 185.31,-12.07 C198.19,-12.07 208.64,-1.62 208.64,11.26z M36.4,-78.74 C23.51,-78.74 13.07,-68.3 13.07,-55.41 C13.07,-42.53 23.51,-32.08 36.4,-32.08 C49.28,-32.08 59.73,-42.53 59.73,-55.41 C59.73,-68.3 49.28,-78.74 36.4,-78.74z M-158.22,2.19 C-171.11,2.19 -181.55,12.64 -181.55,25.52 C-181.55,38.41 -171.11,48.85 -158.22,48.85 C-145.34,48.85 -134.89,38.41 -134.89,25.52 C-134.89,12.64 -145.34,2.19 -158.22,2.19z M-37.69,-178.38 C-50.57,-178.38 -61.02,-167.93 -61.02,-155.05 C-61.02,-142.16 -50.57,-131.71 -37.69,-131.71 C-24.8,-131.71 -14.36,-142.16 -14.36,-155.05 C-14.36,-167.93 -24.8,-178.38 -37.69,-178.38z"></path><path stroke-linecap="round" stroke-linejoin="round" fill-opacity="0" stroke="rgb(255,255,255)" stroke-opacity="1" stroke-width="16" d=" M208.64,11.26 C208.64,24.15 198.19,34.59 185.31,34.59 C172.43,34.59 161.98,24.15 161.98,11.26 C161.98,-1.62 172.43,-12.07 185.31,-12.07 C198.19,-12.07 208.64,-1.62 208.64,11.26z M36.4,-78.74 C23.51,-78.74 13.07,-68.3 13.07,-55.41 C13.07,-42.53 23.51,-32.08 36.4,-32.08 C49.28,-32.08 59.73,-42.53 59.73,-55.41 C59.73,-68.3 49.28,-78.74 36.4,-78.74z M-158.22,2.19 C-171.11,2.19 -181.55,12.64 -181.55,25.52 C-181.55,38.41 -171.11,48.85 -158.22,48.85 C-145.34,48.85 -134.89,38.41 -134.89,25.52 C-134.89,12.64 -145.34,2.19 -158.22,2.19z M-37.69,-178.38 C-50.57,-178.38 -61.02,-167.93 -61.02,-155.05 C-61.02,-142.16 -50.57,-131.71 -37.69,-131.71 C-24.8,-131.71 -14.36,-142.16 -14.36,-155.05 C-14.36,-167.93 -24.8,-178.38 -37.69,-178.38z"></path><g opacity="1" transform="matrix(1,0,0,1,82.65399932861328,103.80899810791016)"></g><g opacity="1" transform="matrix(1,0,0,1,-35.14999771118164,-75.63299560546875)"></g><g opacity="1" transform="matrix(1,0,0,1,-0.3489990234375,68.2969970703125)"></g><g opacity="1" transform="matrix(1,0,0,1,-10.468999862670898,-112.27200317382812)"></g></g></g><filter id="__lottie_element_55" filterUnits="objectBoundingBox" x="0%" y="0%" width="100%" height="100%"><feComponentTransfer in="SourceGraphic"><feFuncA type="table" tableValues="1.0 0.0"></feFuncA></feComponentTransfer></filter><mask id="__lottie_element_49_2" mask-type="alpha"><g filter="url(#__lottie_element_55)"><rect width="500" height="500" x="0" y="0" fill="#ffffff" opacity="0"></rect><use xlink:href="#__lottie_element_49"></use></g></mask></defs><g clip-path="url(#__lottie_element_32)"><g transform="matrix(1,0,0,1,250,250)" opacity="1" style="display: block;"><g opacity="1" transform="matrix(0.1908089965581894,-0.9816271662712097,0.9816271662712097,0.1908089965581894,28.08818817138672,-7.349941253662109)"><path stroke-linecap="round" stroke-linejoin="round" fill-opacity="0" stroke="rgb(255,255,255)" stroke-opacity="1" stroke-width="16" d=" M-134.843994140625,67.52300262451172 C-134.843994140625,67.52300262451172 -71.99600219726562,130.37100219726562 -71.99600219726562,130.37100219726562 M-104.11799621582031,-26.051000595092773 C-104.11799621582031,43.36899948120117 -47.84199905395508,99.64600372314453 21.577999114990234,99.64600372314453 C90.99800109863281,99.64600372314453 147.2740020751953,43.36899948120117 147.2740020751953,-26.051000595092773 C147.2740020751953,-95.47100067138672 90.99800109863281,-151.7469940185547 21.577999114990234,-151.7469940185547 C-47.84199905395508,-151.7469940185547 -104.11799621582031,-95.47100067138672 -104.11799621582031,-26.051000595092773z M-84.83799743652344,40.86199951171875 C-84.83799743652344,40.86199951171875 -181.1320037841797,137.156005859375 -181.1320037841797,137.156005859375 C-192.0399932861328,148.06399536132812 -192.03900146484375,165.75100708007812 -181.13099670410156,176.65899658203125 C-170.22300720214844,187.56700134277344 -152.53700256347656,187.56700134277344 -141.62899780273438,176.65899658203125 C-141.62899780273438,176.65899658203125 -45.334999084472656,80.36499786376953 -45.334999084472656,80.36499786376953"></path></g></g><g mask="url(#__lottie_element_42_2)" style="display: block;"><g clip-path="url(#__lottie_element_39)" transform="matrix(1,0,0,1,0,0)" opacity="1"><g mask="url(#__lottie_element_49_2)" style="display: block;"><g filter="url(#__lottie_element_48)" transform="matrix(1,0,0,1,250,250)" opacity="1"><g opacity="0" transform="matrix(1,0,0,1,-15.45300006866455,-4.915999889373779)"><path stroke-linecap="butt" stroke-linejoin="miter" fill-opacity="0" stroke-miterlimit="4" stroke="rgb(104,100,247)" stroke-opacity="0" stroke-width="0" d=" M216.5469970703125,-229.08399963378906 C216.5469970703125,-229.08399963378906 216.5469970703125,229.08399963378906 216.5469970703125,229.08399963378906 C216.5469970703125,229.08399963378906 -216.5469970703125,229.08399963378906 -216.5469970703125,229.08399963378906 C-216.5469970703125,229.08399963378906 -216.5469970703125,-229.08399963378906 -216.5469970703125,-229.08399963378906 C-216.5469970703125,-229.08399963378906 216.5469970703125,-229.08399963378906 216.5469970703125,-229.08399963378906z"></path></g><path stroke-linecap="round" stroke-linejoin="round" fill-opacity="0" stroke="rgb(104,100,247)" stroke-opacity="1" stroke-width="16" d=" M-150.54200744628906,16.726999282836914 C-150.54200744628906,16.726999282836914 -46.54999923706055,-145.2729949951172 -46.54999923706055,-145.2729949951172 M-31.052000045776367,-147.22999572753906 C-31.052000045776367,-147.22999572753906 30.381000518798828,-66.3239974975586 30.381000518798828,-66.3239974975586 M171.45199584960938,9.444000244140625 C171.45199584960938,9.444000244140625 49.25199890136719,-47.77000045776367 49.25199890136719,-47.77000045776367"></path><g opacity="1" transform="matrix(1,0,0,1,0,0)"></g></g></g><g transform="matrix(1,0,0,1,250,250)" opacity="1" style="display: block;"><path fill="rgb(255,255,255)" fill-opacity="1" d=" M208.64,11.26 C208.64,24.15 198.19,34.59 185.31,34.59 C172.43,34.59 161.98,24.15 161.98,11.26 C161.98,-1.62 172.43,-12.07 185.31,-12.07 C198.19,-12.07 208.64,-1.62 208.64,11.26z M36.4,-78.74 C23.51,-78.74 13.07,-68.3 13.07,-55.41 C13.07,-42.53 23.51,-32.08 36.4,-32.08 C49.28,-32.08 59.73,-42.53 59.73,-55.41 C59.73,-68.3 49.28,-78.74 36.4,-78.74z M-158.22,2.19 C-171.11,2.19 -181.55,12.64 -181.55,25.52 C-181.55,38.41 -171.11,48.85 -158.22,48.85 C-145.34,48.85 -134.89,38.41 -134.89,25.52 C-134.89,12.64 -145.34,2.19 -158.22,2.19z M-37.69,-178.38 C-50.57,-178.38 -61.02,-167.93 -61.02,-155.05 C-61.02,-142.16 -50.57,-131.71 -37.69,-131.71 C-24.8,-131.71 -14.36,-142.16 -14.36,-155.05 C-14.36,-167.93 -24.8,-178.38 -37.69,-178.38z"></path><path stroke-linecap="round" stroke-linejoin="round" fill-opacity="0" stroke="rgb(255,255,255)" stroke-opacity="1" stroke-width="16" d=" M208.64,11.26 C208.64,24.15 198.19,34.59 185.31,34.59 C172.43,34.59 161.98,24.15 161.98,11.26 C161.98,-1.62 172.43,-12.07 185.31,-12.07 C198.19,-12.07 208.64,-1.62 208.64,11.26z M36.4,-78.74 C23.51,-78.74 13.07,-68.3 13.07,-55.41 C13.07,-42.53 23.51,-32.08 36.4,-32.08 C49.28,-32.08 59.73,-42.53 59.73,-55.41 C59.73,-68.3 49.28,-78.74 36.4,-78.74z M-158.22,2.19 C-171.11,2.19 -181.55,12.64 -181.55,25.52 C-181.55,38.41 -171.11,48.85 -158.22,48.85 C-145.34,48.85 -134.89,38.41 -134.89,25.52 C-134.89,12.64 -145.34,2.19 -158.22,2.19z M-37.69,-178.38 C-50.57,-178.38 -61.02,-167.93 -61.02,-155.05 C-61.02,-142.16 -50.57,-131.71 -37.69,-131.71 C-24.8,-131.71 -14.36,-142.16 -14.36,-155.05 C-14.36,-167.93 -24.8,-178.38 -37.69,-178.38z"></path><g opacity="1" transform="matrix(1,0,0,1,82.65399932861328,103.80899810791016)"></g><g opacity="1" transform="matrix(1,0,0,1,-35.14999771118164,-75.63299560546875)"></g><g opacity="1" transform="matrix(1,0,0,1,-0.3489990234375,68.2969970703125)"></g><g opacity="1" transform="matrix(1,0,0,1,-10.468999862670898,-112.27200317382812)"></g></g></g></g></g></svg>
