<svg xmlns="http://www.w3.org/2000/svg" width="256" height="256" fill="none" viewBox="0 0 256 256"><g clip-path="url(#a)"><path fill="#fff" d="m216.611 21.613-6.899 3.683-3.847 6.863-3.65-6.965-6.803-3.871 6.906-3.683 3.84-6.863 3.657 6.965z"/><path fill="#fff" d="m209.814 17.744 6.797 3.869-6.9 3.682-3.844 6.864-3.651-6.967-6.804-3.87 6.907-3.681 3.84-6.864zm-4.135 1.775-.552.985-.996.532-.743.392 1.713.975.524 1.004.352.67.374-.664.552-.985.996-.528.739-.396-.728-.416-.981-.56-.525-.996-.355-.678zM181.486 42.41l-11.419 6.097-6.346 11.338-6.042-11.508-11.24-6.406 11.411-6.089 6.354-11.338 6.034 11.508z"/><path fill="#fff" d="m170.239 36.013 11.249 6.398-11.42 6.095-6.347 11.34-6.041-11.51-11.241-6.405 11.412-6.087 6.354-11.34zm-9.58 2.697-.996.528-5.255 2.802 6.158 3.51.524.997 2.735 5.213 3.431-6.117 6.252-3.341-6.155-3.5-.528-1-2.738-5.217z"/><path fill="url(#b)" d="M254.185 143.961s-138.944-7.237-240.437 107.364c0 0-2.738-31.77-12.825-67.634L93.3 78.301S45.553 90.447 2.207 89.853c0 0 11.367-19.04 22.367-50.353 0 0 48.943 16.667 98.411-5.052l19.048 27.854-70.683 94.615c1.117-.625 98.781-54.927 182.835-12.955"/></g><defs><linearGradient id="b" x1="10.672" x2="229.338" y1="181.525" y2="184.207" gradientUnits="userSpaceOnUse"><stop stop-color="#d8ae6b"/><stop offset="1" stop-color="#1ad079"/></linearGradient><clipPath id="a"><path fill="#fff" d="m3.329 8 252.67 3.459-3.328 243.137-252.67-3.459z"/></clipPath></defs></svg>