<svg xmlns="http://www.w3.org/2000/svg" width="50" height="54" fill="none" viewBox="0 0 50 54"><path fill="url(#a)" d="M20.61 43.897h-1.467l-.156-1.779h-.067c-.333 1.201-1.045 2.112-2 2.112-1.023 0-1.668-1.089-1.668-3.179v-1.49c0-2.089.645-3.156 1.779-3.156.822 0 1.422.578 1.712 1.534h.066v-3.468c0-.978-.267-1.378-.867-1.378-.578 0-.822.4-.822 1.378v1.156h-1.801v-.912c0-2.112.934-3.156 2.623-3.156 1.712 0 2.668 1.044 2.668 3.156zm-2.868-1.2c.623 0 1.067-.779 1.067-2.29v-1.09c0-.844-.422-1.378-1-1.378-.49 0-.756.4-.756 1.378v1.979c0 .978.222 1.4.69 1.4m5.83-10.805h1.579l.11 1.957h.045c.067-1.912 1.09-1.957 2.157-1.957v1.868c-1.623 0-2.09.733-2.09 2v8.137h-1.8zm9.832 7.47h1.8v1.69c0 2.111-.933 3.178-2.623 3.178-1.712 0-2.668-1.067-2.668-3.179v-6.336c0-2.112.956-3.156 2.668-3.156 1.69 0 2.624 1.044 2.624 3.156v3.513h-3.49v3.068c0 .978.266 1.4.844 1.4.6 0 .845-.422.845-1.4zm0-4.891c0-.978-.245-1.378-.823-1.378-.6 0-.867.4-.867 1.378v2.445h1.69zm9.969-2.579-1.49 5.891v.045l1.49 6.069H41.55l-.845-3.868-.133-1.556h-.09l-.133 1.556-.778 3.868h-1.823l1.4-6.114v-.044l-1.4-5.847h1.823l.756 3.668.156 1.534h.089l.155-1.534.823-3.668z"/><g clip-path="url(#b)"><path fill="url(#c)" stroke="url(#d)" stroke-width=".628" d="m40.234 2.028.043.08.08.046.818.466-.83.442-.081.044-.046.08-.459.82-.436-.832-.043-.081-.08-.046-.818-.466.831-.442.08-.044.046-.08.458-.82z"/><path fill="url(#e)" stroke="url(#f)" stroke-width=".628" d="m32.591 5.554.043.082.08.045 1.677.953-1.702.91-.081.044-.046.08-.943 1.683-.896-1.71-.043-.08-.08-.046-1.676-.955 1.702-.908.08-.043.046-.08.943-1.685z"/><path fill="url(#g)" d="M49.08 26.252S22.25 24.855 2.655 46.982c0 0-.529-6.134-2.477-13.059l17.837-20.349s-9.22 2.345-17.589 2.23c0 0 2.195-3.676 4.319-9.722 0 0 9.45 3.218 19.002-.976l3.678 5.379-13.648 18.268c.215-.12 19.073-10.605 35.303-2.5"/></g><defs><linearGradient id="a" x1="16.123" x2="45.725" y1="45.115" y2="45.069" gradientUnits="userSpaceOnUse"><stop stop-color="#d8ae6b"/><stop offset="1" stop-color="#1ad079"/></linearGradient><linearGradient id="c" x1="37.879" x2="41.421" y1="3.32" y2="3.364" gradientUnits="userSpaceOnUse"><stop stop-color="#d8ae6b"/><stop offset="1" stop-color="#1ad079"/></linearGradient><linearGradient id="d" x1="37.879" x2="41.421" y1="3.32" y2="3.364" gradientUnits="userSpaceOnUse"><stop stop-color="#d8ae6b"/><stop offset="1" stop-color="#1ad079"/></linearGradient><linearGradient id="e" x1="28.518" x2="34.374" y1="7.788" y2="7.861" gradientUnits="userSpaceOnUse"><stop stop-color="#d8ae6b"/><stop offset="1" stop-color="#1ad079"/></linearGradient><linearGradient id="f" x1="28.518" x2="34.374" y1="7.788" y2="7.861" gradientUnits="userSpaceOnUse"><stop stop-color="#d8ae6b"/><stop offset="1" stop-color="#1ad079"/></linearGradient><linearGradient id="g" x1="2.061" x2="44.282" y1="33.505" y2="34.023" gradientUnits="userSpaceOnUse"><stop stop-color="#d8ae6b"/><stop offset="1" stop-color="#1ad079"/></linearGradient><clipPath id="b"><path fill="#fff" d="M.643 0 49.43.668l-.643 46.947L0 46.947z"/></clipPath></defs></svg>