<svg width="32" height="32" viewBox="0 0 32 32" fill="none" xmlns="http://www.w3.org/2000/svg">
<g clip-path="url(#clip0_1_947)">
<path d="M27.0763 2.70161L26.214 3.16202L25.7331 4.01987L25.2768 3.14919L24.4264 2.66533L25.2898 2.20494L25.7697 1.34708L26.2269 2.21777L27.0763 2.70161Z" fill="white"/>
<path d="M26.2268 2.21795L27.0763 2.70161L26.2138 3.16184L25.7333 4.01987L25.277 3.14901L24.4264 2.66533L25.2899 2.20512L25.7699 1.34708L26.2268 2.21795ZM25.7098 2.43983L25.6409 2.56301L25.5163 2.62948L25.4235 2.67851L25.6377 2.80039L25.7032 2.92588L25.7472 3.0097L25.7939 2.92665L25.8628 2.80348L25.9874 2.73748L26.0797 2.68797L25.9888 2.63595L25.8661 2.56609L25.8005 2.44155L25.7561 2.35678L25.7098 2.43983Z" fill="white"/>
<path d="M22.6857 5.30132L21.2584 6.06334L20.4651 7.48067L19.7099 6.04214L18.3049 5.24135L19.7313 4.48028L20.5255 3.06296L21.2798 4.50148L22.6857 5.30132Z" fill="white"/>
<path d="M21.2798 4.50164L22.686 5.30135L21.2585 6.06322L20.4652 7.48071L19.71 6.04202L18.3049 5.24138L19.7314 4.48044L20.5257 3.06296L21.2798 4.50164ZM20.0824 4.83881L19.9579 4.9048L19.301 5.25501L20.0707 5.69387L20.1363 5.81842L20.4781 6.47004L20.907 5.70532L21.6885 5.2877L20.9192 4.85026L20.8532 4.72523L20.5109 4.07314L20.0824 4.83881Z" fill="white"/>
<path d="M31.7732 17.9952C31.7732 17.9952 14.4051 17.0905 1.71844 31.4156C1.71844 31.4156 1.3763 27.4444 0.115333 22.9614L11.6626 9.7877C11.6626 9.7877 5.69418 11.3057 0.275913 11.2316C0.275913 11.2316 1.69676 8.85141 3.07172 4.9374C3.07172 4.9374 9.18957 7.02081 15.3731 4.30594L17.7542 7.78759L8.91875 19.6145C9.05836 19.5364 21.2663 12.7486 31.7732 17.9952Z" fill="url(#paint0_linear_1_947)"/>
</g>
<defs>
<linearGradient id="paint0_linear_1_947" x1="1.33403" y1="22.6906" x2="28.6673" y2="23.0259" gradientUnits="userSpaceOnUse">
<stop stop-color="#D8AE6B"/>
<stop offset="1" stop-color="#1AD079"/>
</linearGradient>
<clipPath id="clip0_1_947">
<rect width="31.5869" height="30.3949" fill="white" transform="translate(0.416077 1) rotate(0.784325)"/>
</clipPath>
</defs>
</svg>
